<?xml version="1.0" encoding="UTF-8" standalone="no"?><!DOCTYPE svg PUBLIC "-//W3C//DTD SVG 1.1//EN" "http://www.w3.org/Graphics/SVG/1.1/DTD/svg11.dtd"><!-- Generated by graphviz version 2.40.1 (20161225.0304)
 --><!-- Title: pipeline_dag Pages: 1 --><svg xmlns="http://www.w3.org/2000/svg" xmlns:xlink="http://www.w3.org/1999/xlink" width="3644pt" height="1933pt" viewBox="0.00 0.00 3644.39 1933.20">
<g id="graph0" class="graph" transform="scale(1 1) rotate(0) translate(4 1929.2)">
<title>pipeline_dag</title>
<polygon fill="#ffffff" stroke="transparent" points="-4,4 -4,-1929.2 3640.3865,-1929.2 3640.3865,4 -4,4"/>
<!-- p0 -->
<g id="node1" class="node">
<title>p0</title>
<ellipse fill="#000000" stroke="#000000" cx="2738.3016" cy="-1904.8" rx="3.6" ry="3.6"/>
<text text-anchor="middle" x="2683.5736" y="-1912.6" font-family="Times,serif" font-size="14.00" fill="#000000">Channel.fromPath</text>
</g>
<!-- p1 -->
<g id="node2" class="node">
<title>p1</title>
<ellipse fill="none" stroke="#000000" cx="2738.3016" cy="-1860.7" rx="3.5" ry="3.5"/>
<text text-anchor="middle" x="2722.749" y="-1868.4" font-family="Times,serif" font-size="14.00" fill="#000000">map</text>
</g>
<!-- p0&#45;&gt;p1 -->
<g id="edge1" class="edge">
<title>p0-&gt;p1</title>
<path fill="none" stroke="#000000" d="M2738.3016,-1901.0401C2738.3016,-1895.2469 2738.3016,-1883.844 2738.3016,-1874.6354"/>
<polygon fill="#000000" stroke="#000000" points="2741.8017,-1874.4504 2738.3016,-1864.4504 2734.8017,-1874.4505 2741.8017,-1874.4504"/>
</g>
<!-- p2 -->
<g id="node3" class="node">
<title>p2</title>
<ellipse fill="none" stroke="#000000" cx="2738.3016" cy="-1800.9" rx="3.5" ry="3.5"/>
<text text-anchor="middle" x="2721.1957" y="-1808.6" font-family="Times,serif" font-size="14.00" fill="#000000">view</text>
</g>
<!-- p1&#45;&gt;p2 -->
<g id="edge2" class="edge">
<title>p1-&gt;p2</title>
<path fill="none" stroke="#000000" d="M2738.3016,-1857.1383C2738.3016,-1848.9704 2738.3016,-1828.5287 2738.3016,-1814.6757"/>
<polygon fill="#000000" stroke="#000000" points="2741.8017,-1814.6719 2738.3016,-1804.6719 2734.8017,-1814.672 2741.8017,-1814.6719"/>
<text text-anchor="middle" x="2760.0688" y="-1826.6" font-family="Times,serif" font-size="14.00" fill="#000000">channel</text>
</g>
<!-- p3 -->
<g id="node4" class="node">
<title>p3</title>
<ellipse fill="none" stroke="#000000" cx="2738.3016" cy="-1726.6" rx="281.3137" ry="18"/>
<text text-anchor="middle" x="2738.3016" y="-1722.4" font-family="Times,serif" font-size="14.00" fill="#000000">bbknn:BBKNN:bbknn_base:QC_FILTER:SC__FILE_CONVERTER</text>
</g>
<!-- p2&#45;&gt;p3 -->
<g id="edge3" class="edge">
<title>p2-&gt;p3</title>
<path fill="none" stroke="#000000" d="M2738.3016,-1797.3164C2738.3016,-1789.6595 2738.3016,-1771.0817 2738.3016,-1754.889"/>
<polygon fill="#000000" stroke="#000000" points="2741.8017,-1754.7312 2738.3016,-1744.7313 2734.8017,-1754.7313 2741.8017,-1754.7312"/>
<text text-anchor="middle" x="2749.9615" y="-1766.8" font-family="Times,serif" font-size="14.00" fill="#000000">data</text>
</g>
<!-- p4 -->
<g id="node5" class="node">
<title>p4</title>
<ellipse fill="none" stroke="#000000" cx="2738.3016" cy="-1653.6" rx="344.9414" ry="18"/>
<text text-anchor="middle" x="2738.3016" y="-1649.4" font-family="Times,serif" font-size="14.00" fill="#000000">bbknn:BBKNN:bbknn_base:QC_FILTER:SC__SCANPY__COMPUTE_QC_STATS</text>
</g>
<!-- p3&#45;&gt;p4 -->
<g id="edge4" class="edge">
<title>p3-&gt;p4</title>
<path fill="none" stroke="#000000" d="M2738.3016,-1708.5551C2738.3016,-1700.4828 2738.3016,-1690.7764 2738.3016,-1681.7817"/>
<polygon fill="#000000" stroke="#000000" points="2741.8017,-1681.6903 2738.3016,-1671.6904 2734.8017,-1681.6904 2741.8017,-1681.6903"/>
</g>
<!-- p5 -->
<g id="node6" class="node">
<title>p5</title>
<ellipse fill="none" stroke="#000000" cx="2536.3016" cy="-1564.8" rx="309.1058" ry="18"/>
<text text-anchor="middle" x="2536.3016" y="-1560.6" font-family="Times,serif" font-size="14.00" fill="#000000">bbknn:BBKNN:bbknn_base:QC_FILTER:SC__SCANPY__GENE_FILTER</text>
</g>
<!-- p4&#45;&gt;p5 -->
<g id="edge5" class="edge">
<title>p4-&gt;p5</title>
<path fill="none" stroke="#000000" d="M2697.4238,-1635.63C2665.3895,-1621.5476 2620.6683,-1601.8879 2586.4668,-1586.8528"/>
<polygon fill="#000000" stroke="#000000" points="2587.6815,-1583.5636 2577.1185,-1582.7433 2584.8644,-1589.9718 2587.6815,-1583.5636"/>
<text text-anchor="middle" x="2671.4615" y="-1605" font-family="Times,serif" font-size="14.00" fill="#000000">data1</text>
</g>
<!-- p7 -->
<g id="node9" class="node">
<title>p7</title>
<ellipse fill="none" stroke="#000000" cx="3030.3016" cy="-1564.8" rx="3.5" ry="3.5"/>
<text text-anchor="middle" x="3015.911" y="-1572.5" font-family="Times,serif" font-size="14.00" fill="#000000">join</text>
</g>
<!-- p4&#45;&gt;p7 -->
<g id="edge8" class="edge">
<title>p4-&gt;p7</title>
<path fill="none" stroke="#000000" d="M2815.6237,-1636.0244C2866.7968,-1623.4484 2934.9684,-1604.8769 2993.3016,-1582.8 3001.7196,-1579.6141 3010.8143,-1575.2039 3017.8803,-1571.5462"/>
<polygon fill="#000000" stroke="#000000" points="3019.7624,-1574.5087 3026.9255,-1566.7022 3016.4576,-1568.3379 3019.7624,-1574.5087"/>
<text text-anchor="middle" x="2954.4615" y="-1605" font-family="Times,serif" font-size="14.00" fill="#000000">data1</text>
</g>
<!-- p6 -->
<g id="node7" class="node">
<title>p6</title>
<ellipse fill="none" stroke="#000000" cx="2182.3016" cy="-1476" rx="307.8997" ry="18"/>
<text text-anchor="middle" x="2182.3016" y="-1471.8" font-family="Times,serif" font-size="14.00" fill="#000000">bbknn:BBKNN:bbknn_base:QC_FILTER:SC__SCANPY__CELL_FILTER</text>
</g>
<!-- p5&#45;&gt;p6 -->
<g id="edge6" class="edge">
<title>p5-&gt;p6</title>
<path fill="none" stroke="#000000" d="M2466.3625,-1547.256C2407.6697,-1532.533 2323.819,-1511.4993 2262.4326,-1496.1007"/>
<polygon fill="#000000" stroke="#000000" points="2262.9486,-1492.6217 2252.3975,-1493.5834 2261.2454,-1499.4114 2262.9486,-1492.6217"/>
</g>
<!-- p13 -->
<g id="node8" class="node">
<title>p13</title>
<ellipse fill="none" stroke="#000000" cx="2182.3016" cy="-1387.2" rx="3.5" ry="3.5"/>
<text text-anchor="middle" x="2166.749" y="-1394.9" font-family="Times,serif" font-size="14.00" fill="#000000">map</text>
</g>
<!-- p6&#45;&gt;p13 -->
<g id="edge7" class="edge">
<title>p6-&gt;p13</title>
<path fill="none" stroke="#000000" d="M2182.3016,-1457.6006C2182.3016,-1440.7728 2182.3016,-1416.2514 2182.3016,-1401.0352"/>
<polygon fill="#000000" stroke="#000000" points="2185.8017,-1400.8153 2182.3016,-1390.8153 2178.8017,-1400.8153 2185.8017,-1400.8153"/>
<text text-anchor="middle" x="2197.4615" y="-1427.4" font-family="Times,serif" font-size="14.00" fill="#000000">data2</text>
</g>
<!-- p14 -->
<g id="node15" class="node">
<title>p14</title>
<ellipse fill="none" stroke="#000000" cx="2182.3016" cy="-1328.7" rx="3.5" ry="3.5"/>
<text text-anchor="middle" x="2160.1438" y="-1336.4" font-family="Times,serif" font-size="14.00" fill="#000000">collect</text>
</g>
<!-- p13&#45;&gt;p14 -->
<g id="edge14" class="edge">
<title>p13-&gt;p14</title>
<path fill="none" stroke="#000000" d="M2182.3016,-1383.3617C2182.3016,-1375.1878 2182.3016,-1355.7199 2182.3016,-1342.3686"/>
<polygon fill="#000000" stroke="#000000" points="2185.8017,-1342.3263 2182.3016,-1332.3263 2178.8017,-1342.3263 2185.8017,-1342.3263"/>
</g>
<!-- p10 -->
<g id="node10" class="node">
<title>p10</title>
<ellipse fill="none" stroke="#000000" cx="3072.3016" cy="-1476" rx="564.1698" ry="18"/>
<text text-anchor="middle" x="3072.3016" y="-1471.8" font-family="Times,serif" font-size="14.00" fill="#000000">bbknn:BBKNN:bbknn_base:QC_FILTER:GENERATE_DUAL_INPUT_REPORT:SC__SCANPY__GENERATE_DUAL_INPUT_REPORT</text>
</g>
<!-- p7&#45;&gt;p10 -->
<g id="edge9" class="edge">
<title>p7-&gt;p10</title>
<path fill="none" stroke="#000000" d="M3031.8967,-1561.4274C3036.3666,-1551.9767 3049.3441,-1524.5386 3059.398,-1503.2818"/>
<polygon fill="#000000" stroke="#000000" points="3062.6589,-1504.5732 3063.7706,-1494.0369 3056.331,-1501.5803 3062.6589,-1504.5732"/>
</g>
<!-- p11 -->
<g id="node13" class="node">
<title>p11</title>
<ellipse fill="none" stroke="#000000" cx="3072.3016" cy="-1387.2" rx="493.0817" ry="18"/>
<text text-anchor="middle" x="3072.3016" y="-1383" font-family="Times,serif" font-size="14.00" fill="#000000">bbknn:BBKNN:bbknn_base:QC_FILTER:GENERATE_DUAL_INPUT_REPORT:SC__SCANPY__REPORT_TO_HTML</text>
</g>
<!-- p10&#45;&gt;p11 -->
<g id="edge12" class="edge">
<title>p10-&gt;p11</title>
<path fill="none" stroke="#000000" d="M3072.3016,-1457.6006C3072.3016,-1445.4949 3072.3016,-1429.4076 3072.3016,-1415.6674"/>
<polygon fill="#000000" stroke="#000000" points="3075.8017,-1415.272 3072.3016,-1405.272 3068.8017,-1415.2721 3075.8017,-1415.272"/>
</g>
<!-- p8 -->
<g id="node11" class="node">
<title>p8</title>
<ellipse fill="#000000" stroke="#000000" cx="3088.3016" cy="-1564.8" rx="3.6" ry="3.6"/>
</g>
<!-- p8&#45;&gt;p10 -->
<g id="edge10" class="edge">
<title>p8-&gt;p10</title>
<path fill="none" stroke="#000000" d="M3087.6141,-1560.9844C3085.8641,-1551.2719 3081.1141,-1524.9096 3077.3641,-1504.0971"/>
<polygon fill="#000000" stroke="#000000" points="3080.7862,-1503.3515 3075.5683,-1494.1306 3073.8971,-1504.5928 3080.7862,-1503.3515"/>
<text text-anchor="middle" x="3097.2469" y="-1516.2" font-family="Times,serif" font-size="14.00" fill="#000000">ipynb</text>
</g>
<!-- p9 -->
<g id="node12" class="node">
<title>p9</title>
<ellipse fill="#000000" stroke="#000000" cx="2980.3016" cy="-1564.8" rx="3.6" ry="3.6"/>
</g>
<!-- p9&#45;&gt;p10 -->
<g id="edge11" class="edge">
<title>p9-&gt;p10</title>
<path fill="none" stroke="#000000" d="M2979.3512,-1561.3029C2977.0974,-1552.192 2972.405,-1527.3672 2983.4362,-1512 2986.7729,-1507.3516 2990.8159,-1503.3025 2995.3152,-1499.7755"/>
<polygon fill="#000000" stroke="#000000" points="2997.5488,-1502.4893 3003.8529,-1493.9741 2993.6146,-1496.6995 2997.5488,-1502.4893"/>
<text text-anchor="middle" x="3013.2343" y="-1516.2" font-family="Times,serif" font-size="14.00" fill="#000000">reportTitle</text>
</g>
<!-- p12 -->
<g id="node14" class="node">
<title>p12</title>
<ellipse fill="#000000" stroke="#000000" cx="3072.3016" cy="-1328.7" rx="1.8" ry="1.8"/>
</g>
<!-- p11&#45;&gt;p12 -->
<g id="edge13" class="edge">
<title>p11-&gt;p12</title>
<path fill="none" stroke="#000000" d="M3072.3016,-1369.0109C3072.3016,-1359.7893 3072.3016,-1348.8476 3072.3016,-1340.6923"/>
<polygon fill="#000000" stroke="#000000" points="3075.8017,-1340.6028 3072.3016,-1330.6028 3068.8017,-1340.6028 3075.8017,-1340.6028"/>
</g>
<!-- p15 -->
<g id="node16" class="node">
<title>p15</title>
<ellipse fill="none" stroke="#000000" cx="2182.3016" cy="-1270.2" rx="248.8513" ry="18"/>
<text text-anchor="middle" x="2182.3016" y="-1266" font-family="Times,serif" font-size="14.00" fill="#000000">bbknn:BBKNN:bbknn_base:SC__FILE_CONCATENATOR</text>
</g>
<!-- p14&#45;&gt;p15 -->
<g id="edge15" class="edge">
<title>p14-&gt;p15</title>
<path fill="none" stroke="#000000" d="M2182.3016,-1324.8617C2182.3016,-1319.3711 2182.3016,-1308.7846 2182.3016,-1298.379"/>
<polygon fill="#000000" stroke="#000000" points="2185.8017,-1298.2292 2182.3016,-1288.2293 2178.8017,-1298.2293 2185.8017,-1298.2292"/>
</g>
<!-- p16 -->
<g id="node17" class="node">
<title>p16</title>
<ellipse fill="none" stroke="#000000" cx="1840.3016" cy="-1181.4" rx="396.9486" ry="18"/>
<text text-anchor="middle" x="1840.3016" y="-1177.2" font-family="Times,serif" font-size="14.00" fill="#000000">bbknn:BBKNN:bbknn_base:NORMALIZE_TRANSFORM:SC__SCANPY__NORMALIZATION</text>
</g>
<!-- p15&#45;&gt;p16 -->
<g id="edge16" class="edge">
<title>p15-&gt;p16</title>
<path fill="none" stroke="#000000" d="M2115.1414,-1252.7619C2058.6621,-1238.0971 1977.8596,-1217.1168 1918.4811,-1201.6992"/>
<polygon fill="#000000" stroke="#000000" points="1919.33,-1198.3037 1908.7713,-1199.1781 1917.5707,-1205.079 1919.33,-1198.3037"/>
<text text-anchor="middle" x="2062.5127" y="-1221.6" font-family="Times,serif" font-size="14.00" fill="#000000">filtered</text>
</g>
<!-- p60 -->
<g id="node61" class="node">
<title>p60</title>
<ellipse fill="none" stroke="#000000" cx="2526.3016" cy="-1181.4" rx="271.971" ry="18"/>
<text text-anchor="middle" x="2526.3016" y="-1177.2" font-family="Times,serif" font-size="14.00" fill="#000000">bbknn:BBKNN:bbknn_base:SC__H5AD_TO_FILTERED_LOOM</text>
</g>
<!-- p15&#45;&gt;p60 -->
<g id="edge60" class="edge">
<title>p15-&gt;p60</title>
<path fill="none" stroke="#000000" d="M2249.4448,-1252.8677C2306.6769,-1238.0938 2388.9558,-1216.8544 2448.9384,-1201.3705"/>
<polygon fill="#000000" stroke="#000000" points="2449.9329,-1204.7286 2458.7407,-1198.8401 2448.1832,-1197.9508 2449.9329,-1204.7286"/>
<text text-anchor="middle" x="2405.5127" y="-1221.6" font-family="Times,serif" font-size="14.00" fill="#000000">filtered</text>
</g>
<!-- p17 -->
<g id="node18" class="node">
<title>p17</title>
<ellipse fill="none" stroke="#000000" cx="1840.3016" cy="-1092.6" rx="436.3576" ry="18"/>
<text text-anchor="middle" x="1840.3016" y="-1088.4" font-family="Times,serif" font-size="14.00" fill="#000000">bbknn:BBKNN:bbknn_base:NORMALIZE_TRANSFORM:SC__SCANPY__DATA_TRANSFORMATION</text>
</g>
<!-- p16&#45;&gt;p17 -->
<g id="edge17" class="edge">
<title>p16-&gt;p17</title>
<path fill="none" stroke="#000000" d="M1840.3016,-1163.0006C1840.3016,-1150.8949 1840.3016,-1134.8076 1840.3016,-1121.0674"/>
<polygon fill="#000000" stroke="#000000" points="1843.8017,-1120.672 1840.3016,-1110.672 1836.8017,-1120.6721 1843.8017,-1120.672"/>
</g>
<!-- p18 -->
<g id="node19" class="node">
<title>p18</title>
<ellipse fill="none" stroke="#000000" cx="1840.3016" cy="-1003.8" rx="374.3951" ry="18"/>
<text text-anchor="middle" x="1840.3016" y="-999.6" font-family="Times,serif" font-size="14.00" fill="#000000">bbknn:BBKNN:bbknn_base:HVG_SELECTION:SC__SCANPY__FEATURE_SELECTION</text>
</g>
<!-- p17&#45;&gt;p18 -->
<g id="edge18" class="edge">
<title>p17-&gt;p18</title>
<path fill="none" stroke="#000000" d="M1840.3016,-1074.2006C1840.3016,-1062.0949 1840.3016,-1046.0076 1840.3016,-1032.2674"/>
<polygon fill="#000000" stroke="#000000" points="1843.8017,-1031.872 1840.3016,-1021.872 1836.8017,-1031.8721 1843.8017,-1031.872"/>
<text text-anchor="middle" x="1851.9615" y="-1044" font-family="Times,serif" font-size="14.00" fill="#000000">data</text>
</g>
<!-- p19 -->
<g id="node20" class="node">
<title>p19</title>
<ellipse fill="none" stroke="#000000" cx="1840.3016" cy="-930.8" rx="363.4411" ry="18"/>
<text text-anchor="middle" x="1840.3016" y="-926.6" font-family="Times,serif" font-size="14.00" fill="#000000">bbknn:BBKNN:bbknn_base:HVG_SELECTION:SC__SCANPY__FEATURE_SCALING</text>
</g>
<!-- p18&#45;&gt;p19 -->
<g id="edge19" class="edge">
<title>p18-&gt;p19</title>
<path fill="none" stroke="#000000" d="M1840.3016,-985.7551C1840.3016,-977.6828 1840.3016,-967.9764 1840.3016,-958.9817"/>
<polygon fill="#000000" stroke="#000000" points="1843.8017,-958.8903 1840.3016,-948.8904 1836.8017,-958.8904 1843.8017,-958.8903"/>
</g>
<!-- p22 -->
<g id="node21" class="node">
<title>p22</title>
<ellipse fill="none" stroke="#000000" cx="1216.3016" cy="-842" rx="461.7765" ry="18"/>
<text text-anchor="middle" x="1216.3016" y="-837.8" font-family="Times,serif" font-size="14.00" fill="#000000">bbknn:BBKNN:bbknn_base:HVG_SELECTION:GENERATE_REPORT:SC__SCANPY__GENERATE_REPORT</text>
</g>
<!-- p19&#45;&gt;p22 -->
<g id="edge20" class="edge">
<title>p19-&gt;p22</title>
<path fill="none" stroke="#000000" d="M1720.7264,-913.7835C1614.2575,-898.6322 1458.7414,-876.5011 1348.5821,-860.8245"/>
<polygon fill="#000000" stroke="#000000" points="1348.7939,-857.3195 1338.4005,-859.3756 1347.8077,-864.2497 1348.7939,-857.3195"/>
<text text-anchor="middle" x="1595.9615" y="-882.2" font-family="Times,serif" font-size="14.00" fill="#000000">data</text>
</g>
<!-- p25 -->
<g id="node26" class="node">
<title>p25</title>
<ellipse fill="none" stroke="#000000" cx="2078.3016" cy="-842" rx="382.4856" ry="18"/>
<text text-anchor="middle" x="2078.3016" y="-837.8" font-family="Times,serif" font-size="14.00" fill="#000000">bbknn:BBKNN:bbknn_base:DIM_REDUCTION:SC__SCANPY__DIM_REDUCTION__PCA</text>
</g>
<!-- p19&#45;&gt;p25 -->
<g id="edge25" class="edge">
<title>p19-&gt;p25</title>
<path fill="none" stroke="#000000" d="M1888.1781,-912.9368C1926.381,-898.683 1980.0309,-878.6657 2020.6029,-863.5279"/>
<polygon fill="#000000" stroke="#000000" points="2021.9483,-866.7617 2030.0939,-859.9867 2019.5013,-860.2033 2021.9483,-866.7617"/>
<text text-anchor="middle" x="1992.9615" y="-882.2" font-family="Times,serif" font-size="14.00" fill="#000000">data</text>
</g>
<!-- p23 -->
<g id="node24" class="node">
<title>p23</title>
<ellipse fill="none" stroke="#000000" cx="778.3016" cy="-769" rx="455.9797" ry="18"/>
<text text-anchor="middle" x="778.3016" y="-764.8" font-family="Times,serif" font-size="14.00" fill="#000000">bbknn:BBKNN:bbknn_base:HVG_SELECTION:GENERATE_REPORT:SC__SCANPY__REPORT_TO_HTML</text>
</g>
<!-- p22&#45;&gt;p23 -->
<g id="edge23" class="edge">
<title>p22-&gt;p23</title>
<path fill="none" stroke="#000000" d="M1111.1111,-824.4683C1045.6273,-813.5543 961.3437,-799.507 893.9803,-788.2798"/>
<polygon fill="#000000" stroke="#000000" points="894.1841,-784.7655 883.7447,-786.5739 893.0332,-791.6703 894.1841,-784.7655"/>
</g>
<!-- p62 -->
<g id="node63" class="node">
<title>p62</title>
<ellipse fill="none" stroke="#000000" cx="1255.3016" cy="-769" rx="3.5" ry="3.5"/>
<text text-anchor="middle" x="1262.6922" y="-776.7" font-family="Times,serif" font-size="14.00" fill="#000000">join</text>
</g>
<!-- p22&#45;&gt;p62 -->
<g id="edge62" class="edge">
<title>p22-&gt;p62</title>
<path fill="none" stroke="#000000" d="M1225.942,-823.9551C1233.053,-810.6447 1242.5378,-792.8911 1248.7774,-781.212"/>
<polygon fill="#000000" stroke="#000000" points="1251.9566,-782.6885 1253.5818,-772.2191 1245.7825,-779.39 1251.9566,-782.6885"/>
</g>
<!-- p20 -->
<g id="node22" class="node">
<title>p20</title>
<ellipse fill="#000000" stroke="#000000" cx="1258.3016" cy="-930.8" rx="3.6" ry="3.6"/>
</g>
<!-- p20&#45;&gt;p22 -->
<g id="edge21" class="edge">
<title>p20-&gt;p22</title>
<path fill="none" stroke="#000000" d="M1257.04,-927.4064C1253.8585,-918.9358 1245.1305,-896.2332 1236.3016,-878 1234.8682,-875.0399 1233.3042,-871.9812 1231.7028,-868.955"/>
<polygon fill="#000000" stroke="#000000" points="1234.7382,-867.2104 1226.8796,-860.1045 1228.5916,-870.5601 1234.7382,-867.2104"/>
<text text-anchor="middle" x="1260.2469" y="-882.2" font-family="Times,serif" font-size="14.00" fill="#000000">ipynb</text>
</g>
<!-- p21 -->
<g id="node23" class="node">
<title>p21</title>
<ellipse fill="#000000" stroke="#000000" cx="1175.3016" cy="-930.8" rx="3.6" ry="3.6"/>
</g>
<!-- p21&#45;&gt;p22 -->
<g id="edge22" class="edge">
<title>p21-&gt;p22</title>
<path fill="none" stroke="#000000" d="M1174.4602,-927.255C1172.5557,-918.4389 1168.6577,-895.0102 1176.4362,-878 1178.1328,-874.2897 1180.4139,-870.7961 1183.0301,-867.5535"/>
<polygon fill="#000000" stroke="#000000" points="1185.7968,-869.7198 1190.0815,-860.03 1180.6894,-864.9328 1185.7968,-869.7198"/>
<text text-anchor="middle" x="1207.2343" y="-882.2" font-family="Times,serif" font-size="14.00" fill="#000000">reportTitle</text>
</g>
<!-- p24 -->
<g id="node25" class="node">
<title>p24</title>
<ellipse fill="#000000" stroke="#000000" cx="778.3016" cy="-696" rx="1.8" ry="1.8"/>
</g>
<!-- p23&#45;&gt;p24 -->
<g id="edge24" class="edge">
<title>p23-&gt;p24</title>
<path fill="none" stroke="#000000" d="M778.3016,-750.9551C778.3016,-737.6025 778.3016,-719.7784 778.3016,-708.101"/>
<polygon fill="#000000" stroke="#000000" points="781.8017,-707.8525 778.3016,-697.8525 774.8017,-707.8525 781.8017,-707.8525"/>
</g>
<!-- p26 -->
<g id="node27" class="node">
<title>p26</title>
<ellipse fill="none" stroke="#000000" cx="2078.3016" cy="-769" rx="387.7027" ry="18"/>
<text text-anchor="middle" x="2078.3016" y="-764.8" font-family="Times,serif" font-size="14.00" fill="#000000">bbknn:BBKNN:bbknn_base:DIM_REDUCTION:SC__SCANPY__DIM_REDUCTION__TSNE</text>
</g>
<!-- p25&#45;&gt;p26 -->
<g id="edge26" class="edge">
<title>p25-&gt;p26</title>
<path fill="none" stroke="#000000" d="M2078.3016,-823.9551C2078.3016,-815.8828 2078.3016,-806.1764 2078.3016,-797.1817"/>
<polygon fill="#000000" stroke="#000000" points="2081.8017,-797.0903 2078.3016,-787.0904 2074.8017,-797.0904 2081.8017,-797.0903"/>
</g>
<!-- p27 -->
<g id="node28" class="node">
<title>p27</title>
<ellipse fill="none" stroke="#000000" cx="2078.3016" cy="-696" rx="391.2158" ry="18"/>
<text text-anchor="middle" x="2078.3016" y="-691.8" font-family="Times,serif" font-size="14.00" fill="#000000">bbknn:BBKNN:bbknn_base:DIM_REDUCTION:SC__SCANPY__DIM_REDUCTION__UMAP</text>
</g>
<!-- p26&#45;&gt;p27 -->
<g id="edge27" class="edge">
<title>p26-&gt;p27</title>
<path fill="none" stroke="#000000" d="M2078.3016,-750.9551C2078.3016,-742.8828 2078.3016,-733.1764 2078.3016,-724.1817"/>
<polygon fill="#000000" stroke="#000000" points="2081.8017,-724.0903 2078.3016,-714.0904 2074.8017,-724.0904 2081.8017,-724.0903"/>
</g>
<!-- p30 -->
<g id="node29" class="node">
<title>p30</title>
<ellipse fill="none" stroke="#000000" cx="2863.3016" cy="-607.2" rx="462.9204" ry="18"/>
<text text-anchor="middle" x="2863.3016" y="-603" font-family="Times,serif" font-size="14.00" fill="#000000">bbknn:BBKNN:bbknn_base:DIM_REDUCTION:GENERATE_REPORT:SC__SCANPY__GENERATE_REPORT</text>
</g>
<!-- p27&#45;&gt;p30 -->
<g id="edge28" class="edge">
<title>p27-&gt;p30</title>
<path fill="none" stroke="#000000" d="M2225.9541,-679.2974C2361.8175,-663.9284 2562.8499,-641.1874 2702.677,-625.37"/>
<polygon fill="#000000" stroke="#000000" points="2703.0938,-628.8453 2712.637,-624.2433 2702.3069,-621.8896 2703.0938,-628.8453"/>
<text text-anchor="middle" x="2552.9615" y="-647.4" font-family="Times,serif" font-size="14.00" fill="#000000">data</text>
</g>
<!-- p33 -->
<g id="node34" class="node">
<title>p33</title>
<ellipse fill="none" stroke="#000000" cx="1997.3016" cy="-607.2" rx="380.19" ry="18"/>
<text text-anchor="middle" x="1997.3016" y="-603" font-family="Times,serif" font-size="14.00" fill="#000000">bbknn:BBKNN:bbknn_base:CLUSTER_IDENTIFICATION:SC__SCANPY__CLUSTERING</text>
</g>
<!-- p27&#45;&gt;p33 -->
<g id="edge33" class="edge">
<title>p27-&gt;p33</title>
<path fill="none" stroke="#000000" d="M2061.5183,-677.6006C2049.7106,-664.6559 2033.7503,-647.1586 2020.6952,-632.8464"/>
<polygon fill="#000000" stroke="#000000" points="2023.1112,-630.3014 2013.7862,-625.272 2017.9395,-635.0188 2023.1112,-630.3014"/>
<text text-anchor="middle" x="2056.9615" y="-647.4" font-family="Times,serif" font-size="14.00" fill="#000000">data</text>
</g>
<!-- p31 -->
<g id="node32" class="node">
<title>p31</title>
<ellipse fill="none" stroke="#000000" cx="2869.3016" cy="-518.4" rx="456.6235" ry="18"/>
<text text-anchor="middle" x="2869.3016" y="-514.2" font-family="Times,serif" font-size="14.00" fill="#000000">bbknn:BBKNN:bbknn_base:DIM_REDUCTION:GENERATE_REPORT:SC__SCANPY__REPORT_TO_HTML</text>
</g>
<!-- p30&#45;&gt;p31 -->
<g id="edge31" class="edge">
<title>p30-&gt;p31</title>
<path fill="none" stroke="#000000" d="M2864.5448,-588.8006C2865.3708,-576.575 2866.4712,-560.2887 2867.4056,-546.4599"/>
<polygon fill="#000000" stroke="#000000" points="2870.8983,-546.6852 2868.0805,-536.472 2863.9142,-546.2133 2870.8983,-546.6852"/>
</g>
<!-- p28 -->
<g id="node30" class="node">
<title>p28</title>
<ellipse fill="#000000" stroke="#000000" cx="2904.3016" cy="-696" rx="3.6" ry="3.6"/>
</g>
<!-- p28&#45;&gt;p30 -->
<g id="edge29" class="edge">
<title>p28-&gt;p30</title>
<path fill="none" stroke="#000000" d="M2903.0157,-692.618C2899.7788,-684.1739 2890.9342,-661.527 2882.3016,-643.2 2880.9596,-640.351 2879.5091,-637.403 2878.0285,-634.4768"/>
<polygon fill="#000000" stroke="#000000" points="2881.0057,-632.6153 2873.2926,-625.3518 2874.7927,-635.8399 2881.0057,-632.6153"/>
<text text-anchor="middle" x="2906.2469" y="-647.4" font-family="Times,serif" font-size="14.00" fill="#000000">ipynb</text>
</g>
<!-- p29 -->
<g id="node31" class="node">
<title>p29</title>
<ellipse fill="#000000" stroke="#000000" cx="2821.3016" cy="-696" rx="3.6" ry="3.6"/>
</g>
<!-- p29&#45;&gt;p30 -->
<g id="edge30" class="edge">
<title>p29-&gt;p30</title>
<path fill="none" stroke="#000000" d="M2819.9923,-692.4395C2816.965,-683.5881 2810.3359,-660.0851 2818.4362,-643.2 2820.2828,-639.3507 2822.7637,-635.7831 2825.6158,-632.5105"/>
<polygon fill="#000000" stroke="#000000" points="2828.1507,-634.9264 2832.8199,-625.4159 2823.239,-629.9388 2828.1507,-634.9264"/>
<text text-anchor="middle" x="2849.2343" y="-647.4" font-family="Times,serif" font-size="14.00" fill="#000000">reportTitle</text>
</g>
<!-- p32 -->
<g id="node33" class="node">
<title>p32</title>
<ellipse fill="#000000" stroke="#000000" cx="2869.3016" cy="-429.6" rx="1.8" ry="1.8"/>
</g>
<!-- p31&#45;&gt;p32 -->
<g id="edge32" class="edge">
<title>p31-&gt;p32</title>
<path fill="none" stroke="#000000" d="M2869.3016,-500.0006C2869.3016,-482.5759 2869.3016,-456.9021 2869.3016,-441.8518"/>
<polygon fill="#000000" stroke="#000000" points="2872.8017,-441.5582 2869.3016,-431.5582 2865.8017,-441.5582 2872.8017,-441.5582"/>
</g>
<!-- p36 -->
<g id="node35" class="node">
<title>p36</title>
<ellipse fill="none" stroke="#000000" cx="508.3016" cy="-518.4" rx="508.1032" ry="18"/>
<text text-anchor="middle" x="508.3016" y="-514.2" font-family="Times,serif" font-size="14.00" fill="#000000">bbknn:BBKNN:bbknn_base:CLUSTER_IDENTIFICATION:GENERATE_REPORT:SC__SCANPY__GENERATE_REPORT</text>
</g>
<!-- p33&#45;&gt;p36 -->
<g id="edge34" class="edge">
<title>p33-&gt;p36</title>
<path fill="none" stroke="#000000" d="M1655.7757,-599.2755C1501.168,-593.8354 1345.3855,-585.0273 1311.9818,-571.2 1301.6647,-566.9293 1303.6327,-558.6363 1293.3016,-554.4 1282.6776,-550.0436 1066.0138,-540.3089 863.017,-532.0596"/>
<polygon fill="#000000" stroke="#000000" points="862.8825,-528.5514 852.7489,-531.6431 862.5988,-535.5456 862.8825,-528.5514"/>
<text text-anchor="middle" x="1323.9615" y="-558.6" font-family="Times,serif" font-size="14.00" fill="#000000">data</text>
</g>
<!-- p39 -->
<g id="node40" class="node">
<title>p39</title>
<ellipse fill="none" stroke="#000000" cx="1997.3016" cy="-518.4" rx="397.0283" ry="18"/>
<text text-anchor="middle" x="1997.3016" y="-514.2" font-family="Times,serif" font-size="14.00" fill="#000000">bbknn:BBKNN:bbknn_base:CLUSTER_IDENTIFICATION:SC__SCANPY__MARKER_GENES</text>
</g>
<!-- p33&#45;&gt;p39 -->
<g id="edge39" class="edge">
<title>p33-&gt;p39</title>
<path fill="none" stroke="#000000" d="M1997.3016,-588.8006C1997.3016,-576.6949 1997.3016,-560.6076 1997.3016,-546.8674"/>
<polygon fill="#000000" stroke="#000000" points="2000.8017,-546.472 1997.3016,-536.472 1993.8017,-546.4721 2000.8017,-546.472"/>
<text text-anchor="middle" x="2008.9615" y="-558.6" font-family="Times,serif" font-size="14.00" fill="#000000">data</text>
</g>
<!-- p37 -->
<g id="node38" class="node">
<title>p37</title>
<ellipse fill="none" stroke="#000000" cx="508.3016" cy="-429.6" rx="502.3062" ry="18"/>
<text text-anchor="middle" x="508.3016" y="-425.4" font-family="Times,serif" font-size="14.00" fill="#000000">bbknn:BBKNN:bbknn_base:CLUSTER_IDENTIFICATION:GENERATE_REPORT:SC__SCANPY__REPORT_TO_HTML</text>
</g>
<!-- p36&#45;&gt;p37 -->
<g id="edge37" class="edge">
<title>p36-&gt;p37</title>
<path fill="none" stroke="#000000" d="M508.3016,-500.0006C508.3016,-487.8949 508.3016,-471.8076 508.3016,-458.0674"/>
<polygon fill="#000000" stroke="#000000" points="511.8017,-457.672 508.3016,-447.672 504.8017,-457.6721 511.8017,-457.672"/>
</g>
<!-- p34 -->
<g id="node36" class="node">
<title>p34</title>
<ellipse fill="#000000" stroke="#000000" cx="550.3016" cy="-607.2" rx="3.6" ry="3.6"/>
</g>
<!-- p34&#45;&gt;p36 -->
<g id="edge35" class="edge">
<title>p34-&gt;p36</title>
<path fill="none" stroke="#000000" d="M549.04,-603.8064C545.8585,-595.3358 537.1305,-572.6332 528.3016,-554.4 526.8682,-551.4399 525.3042,-548.3812 523.7028,-545.355"/>
<polygon fill="#000000" stroke="#000000" points="526.7382,-543.6104 518.8796,-536.5045 520.5916,-546.9601 526.7382,-543.6104"/>
<text text-anchor="middle" x="552.2469" y="-558.6" font-family="Times,serif" font-size="14.00" fill="#000000">ipynb</text>
</g>
<!-- p35 -->
<g id="node37" class="node">
<title>p35</title>
<ellipse fill="#000000" stroke="#000000" cx="467.3016" cy="-607.2" rx="3.6" ry="3.6"/>
</g>
<!-- p35&#45;&gt;p36 -->
<g id="edge36" class="edge">
<title>p35-&gt;p36</title>
<path fill="none" stroke="#000000" d="M466.4602,-603.655C464.5557,-594.8389 460.6577,-571.4102 468.4362,-554.4 470.1328,-550.6897 472.4139,-547.1961 475.0301,-543.9535"/>
<polygon fill="#000000" stroke="#000000" points="477.7968,-546.1198 482.0815,-536.43 472.6894,-541.3328 477.7968,-546.1198"/>
<text text-anchor="middle" x="499.2343" y="-558.6" font-family="Times,serif" font-size="14.00" fill="#000000">reportTitle</text>
</g>
<!-- p38 -->
<g id="node39" class="node">
<title>p38</title>
<ellipse fill="#000000" stroke="#000000" cx="926.3016" cy="-340.8" rx="1.8" ry="1.8"/>
</g>
<!-- p37&#45;&gt;p38 -->
<g id="edge38" class="edge">
<title>p37-&gt;p38</title>
<path fill="none" stroke="#000000" d="M695.0641,-412.8633C784.6648,-401.7534 880.2596,-384.4089 916.3016,-358.8 918.662,-357.1228 920.5299,-354.7049 921.9806,-352.183"/>
<polygon fill="#000000" stroke="#000000" points="925.2446,-353.448 925.7882,-342.8671 918.7649,-350.7996 925.2446,-353.448"/>
</g>
<!-- p40 -->
<g id="node41" class="node">
<title>p40</title>
<ellipse fill="none" stroke="#000000" cx="1997.3016" cy="-429.6" rx="391.2911" ry="18"/>
<text text-anchor="middle" x="1997.3016" y="-425.4" font-family="Times,serif" font-size="14.00" fill="#000000">bbknn:BBKNN:bbknn_base:BEC_BBKNN:SC__SCANPY__BATCH_EFFECT_CORRECTION</text>
</g>
<!-- p39&#45;&gt;p40 -->
<g id="edge40" class="edge">
<title>p39-&gt;p40</title>
<path fill="none" stroke="#000000" d="M1997.3016,-500.0006C1997.3016,-487.8949 1997.3016,-471.8076 1997.3016,-458.0674"/>
<polygon fill="#000000" stroke="#000000" points="2000.8017,-457.672 1997.3016,-447.672 1993.8017,-457.6721 2000.8017,-457.672"/>
<text text-anchor="middle" x="2012.4615" y="-469.8" font-family="Times,serif" font-size="14.00" fill="#000000">data1</text>
</g>
<!-- p54 -->
<g id="node55" class="node">
<title>p54</title>
<ellipse fill="none" stroke="#000000" cx="2835.3016" cy="-429.6" rx="3.5" ry="3.5"/>
<text text-anchor="middle" x="2820.911" y="-437.3" font-family="Times,serif" font-size="14.00" fill="#000000">join</text>
</g>
<!-- p39&#45;&gt;p54 -->
<g id="edge54" class="edge">
<title>p39-&gt;p54</title>
<path fill="none" stroke="#000000" d="M2153.9399,-501.8016C2371.1321,-478.7865 2745.7009,-439.0947 2821.6408,-431.0476"/>
<polygon fill="#000000" stroke="#000000" points="2822.1583,-434.5124 2831.7338,-429.9781 2821.4206,-427.5514 2822.1583,-434.5124"/>
<text text-anchor="middle" x="2507.4615" y="-469.8" font-family="Times,serif" font-size="14.00" fill="#000000">data1</text>
</g>
<!-- p41 -->
<g id="node42" class="node">
<title>p41</title>
<ellipse fill="none" stroke="#000000" cx="1930.3016" cy="-340.8" rx="440.363" ry="18"/>
<text text-anchor="middle" x="1930.3016" y="-336.6" font-family="Times,serif" font-size="14.00" fill="#000000">bbknn:BBKNN:bbknn_base:BEC_BBKNN:CLUSTER_IDENTIFICATION:SC__SCANPY__CLUSTERING</text>
</g>
<!-- p40&#45;&gt;p41 -->
<g id="edge41" class="edge">
<title>p40-&gt;p41</title>
<path fill="none" stroke="#000000" d="M1983.4191,-411.2006C1973.8331,-398.4956 1960.9383,-381.4051 1950.2542,-367.2448"/>
<polygon fill="#000000" stroke="#000000" points="1952.754,-364.7467 1943.937,-358.872 1947.166,-368.9628 1952.754,-364.7467"/>
<text text-anchor="middle" x="1981.9615" y="-381" font-family="Times,serif" font-size="14.00" fill="#000000">data</text>
</g>
<!-- p44 -->
<g id="node43" class="node">
<title>p44</title>
<ellipse fill="none" stroke="#000000" cx="938.3016" cy="-252" rx="568.2761" ry="18"/>
<text text-anchor="middle" x="938.3016" y="-247.8" font-family="Times,serif" font-size="14.00" fill="#000000">bbknn:BBKNN:bbknn_base:BEC_BBKNN:CLUSTER_IDENTIFICATION:GENERATE_REPORT:SC__SCANPY__GENERATE_REPORT</text>
</g>
<!-- p41&#45;&gt;p44 -->
<g id="edge42" class="edge">
<title>p41-&gt;p44</title>
<path fill="none" stroke="#000000" d="M1747.1974,-324.4092C1574.3979,-308.9409 1315.9607,-285.8066 1137.9433,-269.8712"/>
<polygon fill="#000000" stroke="#000000" points="1138.2064,-266.3808 1127.9341,-268.9752 1137.5822,-273.3529 1138.2064,-266.3808"/>
<text text-anchor="middle" x="1534.9615" y="-292.2" font-family="Times,serif" font-size="14.00" fill="#000000">data</text>
</g>
<!-- p47 -->
<g id="node48" class="node">
<title>p47</title>
<ellipse fill="none" stroke="#000000" cx="1982.3016" cy="-252" rx="457.2012" ry="18"/>
<text text-anchor="middle" x="1982.3016" y="-247.8" font-family="Times,serif" font-size="14.00" fill="#000000">bbknn:BBKNN:bbknn_base:BEC_BBKNN:CLUSTER_IDENTIFICATION:SC__SCANPY__MARKER_GENES</text>
</g>
<!-- p41&#45;&gt;p47 -->
<g id="edge47" class="edge">
<title>p41-&gt;p47</title>
<path fill="none" stroke="#000000" d="M1941.076,-322.4006C1948.4457,-309.8155 1958.3352,-292.9271 1966.5808,-278.8463"/>
<polygon fill="#000000" stroke="#000000" points="1969.6859,-280.47 1971.7188,-270.072 1963.6453,-276.9327 1969.6859,-280.47"/>
<text text-anchor="middle" x="1972.9615" y="-292.2" font-family="Times,serif" font-size="14.00" fill="#000000">data</text>
</g>
<!-- p45 -->
<g id="node46" class="node">
<title>p45</title>
<ellipse fill="none" stroke="#000000" cx="938.3016" cy="-163.2" rx="562.4791" ry="18"/>
<text text-anchor="middle" x="938.3016" y="-159" font-family="Times,serif" font-size="14.00" fill="#000000">bbknn:BBKNN:bbknn_base:BEC_BBKNN:CLUSTER_IDENTIFICATION:GENERATE_REPORT:SC__SCANPY__REPORT_TO_HTML</text>
</g>
<!-- p44&#45;&gt;p45 -->
<g id="edge45" class="edge">
<title>p44-&gt;p45</title>
<path fill="none" stroke="#000000" d="M938.3016,-233.6006C938.3016,-221.4949 938.3016,-205.4076 938.3016,-191.6674"/>
<polygon fill="#000000" stroke="#000000" points="941.8017,-191.272 938.3016,-181.272 934.8017,-191.2721 941.8017,-191.272"/>
<text text-anchor="middle" x="977.1726" y="-203.4" font-family="Times,serif" font-size="14.00" fill="#000000">cluster_report</text>
</g>
<!-- p42 -->
<g id="node44" class="node">
<title>p42</title>
<ellipse fill="#000000" stroke="#000000" cx="903.3016" cy="-340.8" rx="3.6" ry="3.6"/>
</g>
<!-- p42&#45;&gt;p44 -->
<g id="edge43" class="edge">
<title>p42-&gt;p44</title>
<path fill="none" stroke="#000000" d="M904.6309,-337.4274C908.339,-328.0193 919.0731,-300.7854 927.4352,-279.5694"/>
<polygon fill="#000000" stroke="#000000" points="930.7817,-280.6238 931.1924,-270.0369 924.2693,-278.0569 930.7817,-280.6238"/>
<text text-anchor="middle" x="940.2469" y="-292.2" font-family="Times,serif" font-size="14.00" fill="#000000">ipynb</text>
</g>
<!-- p43 -->
<g id="node45" class="node">
<title>p43</title>
<ellipse fill="#000000" stroke="#000000" cx="1158.3016" cy="-340.8" rx="3.6" ry="3.6"/>
</g>
<!-- p43&#45;&gt;p44 -->
<g id="edge44" class="edge">
<title>p43-&gt;p44</title>
<path fill="none" stroke="#000000" d="M1156.7958,-337.2447C1154.9086,-333.196 1151.3038,-326.6458 1146.3016,-322.8 1115.8259,-299.3696 1077.1115,-283.4148 1041.3675,-272.6807"/>
<polygon fill="#000000" stroke="#000000" points="1041.9527,-269.2066 1031.374,-269.7898 1040.0075,-275.9309 1041.9527,-269.2066"/>
<text text-anchor="middle" x="1147.2343" y="-292.2" font-family="Times,serif" font-size="14.00" fill="#000000">reportTitle</text>
</g>
<!-- p46 -->
<g id="node47" class="node">
<title>p46</title>
<ellipse fill="#000000" stroke="#000000" cx="938.3016" cy="-74.4" rx="1.8" ry="1.8"/>
</g>
<!-- p45&#45;&gt;p46 -->
<g id="edge46" class="edge">
<title>p45-&gt;p46</title>
<path fill="none" stroke="#000000" d="M938.3016,-144.8006C938.3016,-127.3759 938.3016,-101.7021 938.3016,-86.6518"/>
<polygon fill="#000000" stroke="#000000" points="941.8017,-86.3582 938.3016,-76.3582 934.8017,-86.3582 941.8017,-86.3582"/>
</g>
<!-- p48 -->
<g id="node49" class="node">
<title>p48</title>
<ellipse fill="none" stroke="#000000" cx="1982.3016" cy="-163.2" rx="369.2651" ry="18"/>
<text text-anchor="middle" x="1982.3016" y="-159" font-family="Times,serif" font-size="14.00" fill="#000000">bbknn:BBKNN:bbknn_base:BEC_BBKNN:SC__SCANPY__DIM_REDUCTION__UMAP</text>
</g>
<!-- p47&#45;&gt;p48 -->
<g id="edge48" class="edge">
<title>p47-&gt;p48</title>
<path fill="none" stroke="#000000" d="M1982.3016,-233.6006C1982.3016,-221.4949 1982.3016,-205.4076 1982.3016,-191.6674"/>
<polygon fill="#000000" stroke="#000000" points="1985.8017,-191.272 1982.3016,-181.272 1978.8017,-191.2721 1985.8017,-191.272"/>
</g>
<!-- p50 -->
<g id="node50" class="node">
<title>p50</title>
<ellipse fill="none" stroke="#000000" cx="1557.3016" cy="-74.4" rx="275.5186" ry="18"/>
<text text-anchor="middle" x="1557.3016" y="-70.2" font-family="Times,serif" font-size="14.00" fill="#000000">bbknn:BBKNN:bbknn_base:BEC_BBKNN:SC__PUBLISH_H5AD</text>
</g>
<!-- p48&#45;&gt;p50 -->
<g id="edge49" class="edge">
<title>p48-&gt;p50</title>
<path fill="none" stroke="#000000" d="M1898.3352,-145.656C1826.5654,-130.6603 1723.4627,-109.1179 1649.4368,-93.6509"/>
<polygon fill="#000000" stroke="#000000" points="1650.1518,-90.2247 1639.6473,-91.6054 1648.7201,-97.0768 1650.1518,-90.2247"/>
</g>
<!-- p52 -->
<g id="node53" class="node">
<title>p52</title>
<ellipse fill="none" stroke="#000000" cx="2132.3016" cy="-74.4" rx="281.3021" ry="18"/>
<text text-anchor="middle" x="2132.3016" y="-70.2" font-family="Times,serif" font-size="14.00" fill="#000000">bbknn:BBKNN:bbknn_base:BEC_BBKNN:SC__H5AD_TO_LOOM</text>
</g>
<!-- p48&#45;&gt;p52 -->
<g id="edge52" class="edge">
<title>p48-&gt;p52</title>
<path fill="none" stroke="#000000" d="M2012.6563,-145.23C2035.8342,-131.5087 2067.9562,-112.4925 2093.0814,-97.6183"/>
<polygon fill="#000000" stroke="#000000" points="2095.1698,-100.4494 2101.992,-92.3433 2091.6038,-94.4258 2095.1698,-100.4494"/>
</g>
<!-- p51 -->
<g id="node52" class="node">
<title>p51</title>
<ellipse fill="#000000" stroke="#000000" cx="1557.3016" cy="-1.8" rx="1.8" ry="1.8"/>
</g>
<!-- p50&#45;&gt;p51 -->
<g id="edge51" class="edge">
<title>p50-&gt;p51</title>
<path fill="none" stroke="#000000" d="M1557.3016,-56.08C1557.3016,-42.7955 1557.3016,-25.213 1557.3016,-13.7103"/>
<polygon fill="#000000" stroke="#000000" points="1560.8017,-13.6218 1557.3016,-3.6218 1553.8017,-13.6219 1560.8017,-13.6218"/>
<text text-anchor="middle" x="1572.4615" y="-25.8" font-family="Times,serif" font-size="14.00" fill="#000000">data2</text>
</g>
<!-- p49 -->
<g id="node51" class="node">
<title>p49</title>
<ellipse fill="#000000" stroke="#000000" cx="1557.3016" cy="-163.2" rx="3.6" ry="3.6"/>
</g>
<!-- p49&#45;&gt;p50 -->
<g id="edge50" class="edge">
<title>p49-&gt;p50</title>
<path fill="none" stroke="#000000" d="M1557.3016,-159.3844C1557.3016,-149.7163 1557.3016,-123.55 1557.3016,-102.7826"/>
<polygon fill="#000000" stroke="#000000" points="1560.8017,-102.5306 1557.3016,-92.5306 1553.8017,-102.5307 1560.8017,-102.5306"/>
<text text-anchor="middle" x="1587.6277" y="-114.6" font-family="Times,serif" font-size="14.00" fill="#000000">fOutSuffix</text>
</g>
<!-- p53 -->
<g id="node54" class="node">
<title>p53</title>
<ellipse fill="#000000" stroke="#000000" cx="2132.3016" cy="-1.8" rx="1.8" ry="1.8"/>
</g>
<!-- p52&#45;&gt;p53 -->
<g id="edge53" class="edge">
<title>p52-&gt;p53</title>
<path fill="none" stroke="#000000" d="M2132.3016,-56.08C2132.3016,-42.7955 2132.3016,-25.213 2132.3016,-13.7103"/>
<polygon fill="#000000" stroke="#000000" points="2135.8017,-13.6218 2132.3016,-3.6218 2128.8017,-13.6219 2135.8017,-13.6218"/>
<text text-anchor="middle" x="2148.2469" y="-25.8" font-family="Times,serif" font-size="14.00" fill="#000000">$out1</text>
</g>
<!-- p57 -->
<g id="node56" class="node">
<title>p57</title>
<ellipse fill="none" stroke="#000000" cx="2959.3016" cy="-340.8" rx="570.5522" ry="18"/>
<text text-anchor="middle" x="2959.3016" y="-336.6" font-family="Times,serif" font-size="14.00" fill="#000000">bbknn:BBKNN:bbknn_base:BEC_BBKNN:GENERATE_DUAL_INPUT_REPORT:SC__SCANPY__GENERATE_DUAL_INPUT_REPORT</text>
</g>
<!-- p54&#45;&gt;p57 -->
<g id="edge55" class="edge">
<title>p54-&gt;p57</title>
<path fill="none" stroke="#000000" d="M2838.2404,-427.2194C2842.5767,-423.7253 2850.9685,-417.0338 2858.3016,-411.6 2879.8832,-395.608 2904.5644,-378.2894 2924.1261,-364.7838"/>
<polygon fill="#000000" stroke="#000000" points="2926.1952,-367.6086 2932.4474,-359.0552 2922.2259,-361.8428 2926.1952,-367.6086"/>
</g>
<!-- p58 -->
<g id="node59" class="node">
<title>p58</title>
<ellipse fill="none" stroke="#000000" cx="2959.3016" cy="-252" rx="499.9641" ry="18"/>
<text text-anchor="middle" x="2959.3016" y="-247.8" font-family="Times,serif" font-size="14.00" fill="#000000">bbknn:BBKNN:bbknn_base:BEC_BBKNN:GENERATE_DUAL_INPUT_REPORT:SC__SCANPY__REPORT_TO_HTML</text>
</g>
<!-- p57&#45;&gt;p58 -->
<g id="edge58" class="edge">
<title>p57-&gt;p58</title>
<path fill="none" stroke="#000000" d="M2959.3016,-322.4006C2959.3016,-310.2949 2959.3016,-294.2076 2959.3016,-280.4674"/>
<polygon fill="#000000" stroke="#000000" points="2962.8017,-280.072 2959.3016,-270.072 2955.8017,-280.0721 2962.8017,-280.072"/>
</g>
<!-- p55 -->
<g id="node57" class="node">
<title>p55</title>
<ellipse fill="#000000" stroke="#000000" cx="2931.3016" cy="-429.6" rx="3.6" ry="3.6"/>
</g>
<!-- p55&#45;&gt;p57 -->
<g id="edge56" class="edge">
<title>p55-&gt;p57</title>
<path fill="none" stroke="#000000" d="M2930.9654,-425.8871C2930.3002,-417.0823 2929.3613,-394.3598 2935.411,-376.8 2936.486,-373.6795 2937.8973,-370.5683 2939.4974,-367.5552"/>
<polygon fill="#000000" stroke="#000000" points="2942.5501,-369.2705 2944.7171,-358.8996 2936.5557,-365.6556 2942.5501,-369.2705"/>
<text text-anchor="middle" x="2952.2469" y="-381" font-family="Times,serif" font-size="14.00" fill="#000000">ipynb</text>
</g>
<!-- p56 -->
<g id="node58" class="node">
<title>p56</title>
<ellipse fill="#000000" stroke="#000000" cx="2986.3016" cy="-429.6" rx="3.6" ry="3.6"/>
</g>
<!-- p56&#45;&gt;p57 -->
<g id="edge57" class="edge">
<title>p56-&gt;p57</title>
<path fill="none" stroke="#000000" d="M2985.1414,-425.7844C2982.1748,-416.0276 2974.0994,-389.4685 2967.758,-368.6124"/>
<polygon fill="#000000" stroke="#000000" points="2971.072,-367.48 2964.8142,-358.9306 2964.3747,-369.5164 2971.072,-367.48"/>
<text text-anchor="middle" x="3005.2343" y="-381" font-family="Times,serif" font-size="14.00" fill="#000000">reportTitle</text>
</g>
<!-- p59 -->
<g id="node60" class="node">
<title>p59</title>
<ellipse fill="#000000" stroke="#000000" cx="2959.3016" cy="-163.2" rx="1.8" ry="1.8"/>
</g>
<!-- p58&#45;&gt;p59 -->
<g id="edge59" class="edge">
<title>p58-&gt;p59</title>
<path fill="none" stroke="#000000" d="M2959.3016,-233.6006C2959.3016,-216.1759 2959.3016,-190.5021 2959.3016,-175.4518"/>
<polygon fill="#000000" stroke="#000000" points="2962.8017,-175.1582 2959.3016,-165.1582 2955.8017,-175.1582 2962.8017,-175.1582"/>
</g>
<!-- p61 -->
<g id="node62" class="node">
<title>p61</title>
<ellipse fill="#000000" stroke="#000000" cx="2526.3016" cy="-1092.6" rx="1.8" ry="1.8"/>
</g>
<!-- p60&#45;&gt;p61 -->
<g id="edge61" class="edge">
<title>p60-&gt;p61</title>
<path fill="none" stroke="#000000" d="M2526.3016,-1163.0006C2526.3016,-1145.5759 2526.3016,-1119.9021 2526.3016,-1104.8518"/>
<polygon fill="#000000" stroke="#000000" points="2529.8017,-1104.5582 2526.3016,-1094.5582 2522.8017,-1104.5582 2529.8017,-1104.5582"/>
<text text-anchor="middle" x="2542.2469" y="-1132.8" font-family="Times,serif" font-size="14.00" fill="#000000">$out0</text>
</g>
<!-- p63 -->
<g id="node64" class="node">
<title>p63</title>
<ellipse fill="none" stroke="#000000" cx="1255.3016" cy="-696" rx="3.5" ry="3.5"/>
<text text-anchor="middle" x="1240.911" y="-703.7" font-family="Times,serif" font-size="14.00" fill="#000000">join</text>
</g>
<!-- p62&#45;&gt;p63 -->
<g id="edge63" class="edge">
<title>p62-&gt;p63</title>
<path fill="none" stroke="#000000" d="M1255.3016,-765.4791C1255.3016,-755.5785 1255.3016,-727.0936 1255.3016,-709.8241"/>
<polygon fill="#000000" stroke="#000000" points="1258.8017,-709.6575 1255.3016,-699.6576 1251.8017,-709.6576 1258.8017,-709.6575"/>
</g>
<!-- p64 -->
<g id="node65" class="node">
<title>p64</title>
<ellipse fill="none" stroke="#000000" cx="1255.3016" cy="-607.2" rx="3.5" ry="3.5"/>
<text text-anchor="middle" x="1239.749" y="-614.9" font-family="Times,serif" font-size="14.00" fill="#000000">map</text>
</g>
<!-- p63&#45;&gt;p64 -->
<g id="edge64" class="edge">
<title>p63-&gt;p64</title>
<path fill="none" stroke="#000000" d="M1255.3016,-692.1844C1255.3016,-680.0312 1255.3016,-641.8083 1255.3016,-621.0103"/>
<polygon fill="#000000" stroke="#000000" points="1258.8017,-620.9025 1255.3016,-610.9026 1251.8017,-620.9026 1258.8017,-620.9025"/>
</g>
<!-- p66 -->
<g id="node66" class="node">
<title>p66</title>
<ellipse fill="none" stroke="#000000" cx="1308.3016" cy="-518.4" rx="273.2523" ry="18"/>
<text text-anchor="middle" x="1308.3016" y="-514.2" font-family="Times,serif" font-size="14.00" fill="#000000">bbknn:BBKNN:bbknn_base:SC__SCANPY__MERGE_REPORTS</text>
</g>
<!-- p64&#45;&gt;p66 -->
<g id="edge65" class="edge">
<title>p64-&gt;p66</title>
<path fill="none" stroke="#000000" d="M1254.2824,-603.5915C1251.9658,-594.6305 1247.158,-570.8972 1255.9664,-554.4 1258.1585,-550.2944 1261.0502,-546.5641 1264.3512,-543.1969"/>
<polygon fill="#000000" stroke="#000000" points="1266.8974,-545.6196 1272.1189,-536.4008 1262.2881,-540.3514 1266.8974,-545.6196"/>
<text text-anchor="middle" x="1274.9692" y="-558.6" font-family="Times,serif" font-size="14.00" fill="#000000">ipynbs</text>
</g>
<!-- p67 -->
<g id="node68" class="node">
<title>p67</title>
<ellipse fill="none" stroke="#000000" cx="1308.3016" cy="-429.6" rx="279.0339" ry="18"/>
<text text-anchor="middle" x="1308.3016" y="-425.4" font-family="Times,serif" font-size="14.00" fill="#000000">bbknn:BBKNN:bbknn_base:SC__SCANPY__REPORT_TO_HTML</text>
</g>
<!-- p66&#45;&gt;p67 -->
<g id="edge67" class="edge">
<title>p66-&gt;p67</title>
<path fill="none" stroke="#000000" d="M1308.3016,-500.0006C1308.3016,-487.8949 1308.3016,-471.8076 1308.3016,-458.0674"/>
<polygon fill="#000000" stroke="#000000" points="1311.8017,-457.672 1308.3016,-447.672 1304.8017,-457.6721 1311.8017,-457.672"/>
</g>
<!-- p65 -->
<g id="node67" class="node">
<title>p65</title>
<ellipse fill="#000000" stroke="#000000" cx="1361.3016" cy="-607.2" rx="3.6" ry="3.6"/>
</g>
<!-- p65&#45;&gt;p66 -->
<g id="edge66" class="edge">
<title>p65-&gt;p66</title>
<path fill="none" stroke="#000000" d="M1360.2639,-603.6835C1357.5934,-594.9325 1349.9395,-571.6405 1339.3016,-554.4 1337.2172,-551.022 1334.821,-547.6418 1332.3039,-544.3797"/>
<polygon fill="#000000" stroke="#000000" points="1334.9552,-542.0932 1325.9064,-536.5823 1329.5436,-546.5333 1334.9552,-542.0932"/>
<text text-anchor="middle" x="1378.2343" y="-558.6" font-family="Times,serif" font-size="14.00" fill="#000000">reportTitle</text>
</g>
<!-- p68 -->
<g id="node69" class="node">
<title>p68</title>
<ellipse fill="#000000" stroke="#000000" cx="1135.3016" cy="-340.8" rx="1.8" ry="1.8"/>
</g>
<!-- p67&#45;&gt;p68 -->
<g id="edge68" class="edge">
<title>p67-&gt;p68</title>
<path fill="none" stroke="#000000" d="M1242.79,-412.0859C1210.5658,-400.9288 1172.8378,-383.7786 1145.3016,-358.8 1143.2363,-356.9266 1141.5012,-354.5237 1140.0868,-352.088"/>
<polygon fill="#000000" stroke="#000000" points="1143.1877,-350.4484 1135.9109,-342.7478 1136.7973,-353.3055 1143.1877,-350.4484"/>
</g>
</g>
</svg>