<?xml version="1.0" encoding="UTF-8" standalone="no"?><!DOCTYPE svg PUBLIC "-//W3C//DTD SVG 1.1//EN" "http://www.w3.org/Graphics/SVG/1.1/DTD/svg11.dtd"><!-- Generated by graphviz version 2.40.1 (20161225.0304)
 --><!-- Title: pipeline_dag Pages: 1 --><svg xmlns="http://www.w3.org/2000/svg" xmlns:xlink="http://www.w3.org/1999/xlink" width="2286pt" height="1126pt" viewBox="0.00 0.00 2286.22 1126.20">
<g id="graph0" class="graph" transform="scale(1 1) rotate(0) translate(4 1122.2)">
<title>pipeline_dag</title>
<polygon fill="#ffffff" stroke="transparent" points="-4,4 -4,-1122.2 2282.2208,-1122.2 2282.2208,4 -4,4"/>
<!-- p0 -->
<g id="node1" class="node">
<title>p0</title>
<ellipse fill="#000000" stroke="#000000" cx="818.587" cy="-1097.8" rx="3.6" ry="3.6"/>
<text text-anchor="middle" x="776.3029" y="-1105.6" font-family="Times,serif" font-size="14.00" fill="#000000">Channel.from</text>
</g>
<!-- p1 -->
<g id="node2" class="node">
<title>p1</title>
<ellipse fill="none" stroke="#000000" cx="818.587" cy="-1037.9" rx="3.5" ry="3.5"/>
<text text-anchor="middle" x="801.4811" y="-1045.6" font-family="Times,serif" font-size="14.00" fill="#000000">view</text>
</g>
<!-- p0&#45;&gt;p1 -->
<g id="edge1" class="edge">
<title>p0-&gt;p1</title>
<path fill="none" stroke="#000000" d="M818.587,-1093.8698C818.587,-1085.5003 818.587,-1065.5665 818.587,-1051.8957"/>
<polygon fill="#000000" stroke="#000000" points="822.0871,-1051.6131 818.587,-1041.6131 815.0871,-1051.6131 822.0871,-1051.6131"/>
</g>
<!-- p2 -->
<g id="node3" class="node">
<title>p2</title>
<ellipse fill="#000000" stroke="#000000" cx="818.587" cy="-978" rx="1.8" ry="1.8"/>
</g>
<!-- p1&#45;&gt;p2 -->
<g id="edge2" class="edge">
<title>p1-&gt;p2</title>
<path fill="none" stroke="#000000" d="M818.587,-1034.3324C818.587,-1025.7816 818.587,-1003.8023 818.587,-989.9625"/>
<polygon fill="#000000" stroke="#000000" points="822.0871,-989.8916 818.587,-979.8916 815.0871,-989.8917 822.0871,-989.8916"/>
</g>
<!-- p3 -->
<g id="node4" class="node">
<title>p3</title>
<ellipse fill="#000000" stroke="#000000" cx="841.587" cy="-978" rx="3.6" ry="3.6"/>
<text text-anchor="middle" x="795.4109" y="-985.8" font-family="Times,serif" font-size="14.00" fill="#000000">Channel.empty</text>
</g>
<!-- p7 -->
<g id="node5" class="node">
<title>p7</title>
<ellipse fill="none" stroke="#000000" cx="860.587" cy="-918.1" rx="3.5" ry="3.5"/>
<text text-anchor="middle" x="838.8198" y="-925.8" font-family="Times,serif" font-size="14.00" fill="#000000">concat</text>
</g>
<!-- p3&#45;&gt;p7 -->
<g id="edge3" class="edge">
<title>p3-&gt;p7</title>
<path fill="none" stroke="#000000" d="M840.8438,-974.2451C839.6194,-967.1868 837.7369,-951.5736 842.2672,-939.6 844.0134,-934.9847 847.2173,-930.6759 850.4631,-927.1457"/>
<polygon fill="#000000" stroke="#000000" points="852.9197,-929.6401 857.8125,-920.2427 848.1273,-924.5378 852.9197,-929.6401"/>
<text text-anchor="middle" x="854.2469" y="-943.8" font-family="Times,serif" font-size="14.00" fill="#000000">data</text>
</g>
<!-- p8 -->
<g id="node9" class="node">
<title>p8</title>
<ellipse fill="none" stroke="#000000" cx="860.587" cy="-874.1" rx="3.5" ry="3.5"/>
<text text-anchor="middle" x="843.4811" y="-881.8" font-family="Times,serif" font-size="14.00" fill="#000000">view</text>
</g>
<!-- p7&#45;&gt;p8 -->
<g id="edge7" class="edge">
<title>p7-&gt;p8</title>
<path fill="none" stroke="#000000" d="M860.587,-914.3486C860.587,-908.5686 860.587,-897.1915 860.587,-888.0038"/>
<polygon fill="#000000" stroke="#000000" points="864.0871,-887.8419 860.587,-877.8419 857.0871,-887.842 864.0871,-887.8419"/>
</g>
<!-- p4 -->
<g id="node6" class="node">
<title>p4</title>
<ellipse fill="#000000" stroke="#000000" cx="879.587" cy="-1097.8" rx="3.6" ry="3.6"/>
<text text-anchor="middle" x="824.859" y="-1081.6" font-family="Times,serif" font-size="14.00" fill="#000000">Channel.fromPath</text>
</g>
<!-- p5 -->
<g id="node7" class="node">
<title>p5</title>
<ellipse fill="none" stroke="#000000" cx="879.587" cy="-1037.9" rx="3.5" ry="3.5"/>
<text text-anchor="middle" x="864.0344" y="-1045.6" font-family="Times,serif" font-size="14.00" fill="#000000">map</text>
</g>
<!-- p4&#45;&gt;p5 -->
<g id="edge4" class="edge">
<title>p4-&gt;p5</title>
<path fill="none" stroke="#000000" d="M879.587,-1093.8698C879.587,-1085.5003 879.587,-1065.5665 879.587,-1051.8957"/>
<polygon fill="#000000" stroke="#000000" points="883.0871,-1051.6131 879.587,-1041.6131 876.0871,-1051.6131 883.0871,-1051.6131"/>
</g>
<!-- p6 -->
<g id="node8" class="node">
<title>p6</title>
<ellipse fill="none" stroke="#000000" cx="879.587" cy="-978" rx="3.5" ry="3.5"/>
<text text-anchor="middle" x="864.0344" y="-985.7" font-family="Times,serif" font-size="14.00" fill="#000000">map</text>
</g>
<!-- p5&#45;&gt;p6 -->
<g id="edge5" class="edge">
<title>p5-&gt;p6</title>
<path fill="none" stroke="#000000" d="M879.587,-1034.3324C879.587,-1026.1508 879.587,-1005.6749 879.587,-991.7987"/>
<polygon fill="#000000" stroke="#000000" points="883.0871,-991.7782 879.587,-981.7782 876.0871,-991.7783 883.0871,-991.7782"/>
<text text-anchor="middle" x="901.3542" y="-1003.8" font-family="Times,serif" font-size="14.00" fill="#000000">channel</text>
</g>
<!-- p6&#45;&gt;p7 -->
<g id="edge6" class="edge">
<title>p6-&gt;p7</title>
<path fill="none" stroke="#000000" d="M878.4554,-974.4324C875.8355,-966.1729 869.2413,-945.3838 864.8387,-931.5041"/>
<polygon fill="#000000" stroke="#000000" points="868.0486,-930.0476 861.6889,-921.5739 861.3763,-932.1641 868.0486,-930.0476"/>
</g>
<!-- p9 -->
<g id="node10" class="node">
<title>p9</title>
<ellipse fill="none" stroke="#000000" cx="730.587" cy="-799.8" rx="3.5" ry="3.5"/>
<text text-anchor="middle" x="704.1445" y="-807.5" font-family="Times,serif" font-size="14.00" fill="#000000">ifEmpty</text>
</g>
<!-- p8&#45;&gt;p9 -->
<g id="edge8" class="edge">
<title>p8-&gt;p9</title>
<path fill="none" stroke="#000000" d="M857.3735,-872.2634C841.4954,-863.1884 771.0447,-822.9231 742.5788,-806.6538"/>
<polygon fill="#000000" stroke="#000000" points="744.107,-803.4959 733.6882,-801.5724 740.6334,-809.5733 744.107,-803.4959"/>
<text text-anchor="middle" x="834.2469" y="-840" font-family="Times,serif" font-size="14.00" fill="#000000">data</text>
</g>
<!-- p11 -->
<g id="node12" class="node">
<title>p11</title>
<ellipse fill="none" stroke="#000000" cx="1025.587" cy="-799.8" rx="239.5937" ry="18"/>
<text text-anchor="middle" x="1025.587" y="-795.6" font-family="Times,serif" font-size="14.00" fill="#000000">decontx:CELDA__DECONTX:SC__FILE_CONVERTER</text>
</g>
<!-- p8&#45;&gt;p11 -->
<g id="edge10" class="edge">
<title>p8-&gt;p11</title>
<path fill="none" stroke="#000000" d="M864.0332,-872.5481C878.3604,-866.0966 934.4277,-840.8493 976.5198,-821.8951"/>
<polygon fill="#000000" stroke="#000000" points="978.1251,-825.0108 985.8061,-817.7134 975.2509,-818.6281 978.1251,-825.0108"/>
<text text-anchor="middle" x="954.2469" y="-840" font-family="Times,serif" font-size="14.00" fill="#000000">data</text>
</g>
<!-- p10 -->
<g id="node11" class="node">
<title>p10</title>
<ellipse fill="#000000" stroke="#000000" cx="661.587" cy="-711" rx="1.8" ry="1.8"/>
</g>
<!-- p9&#45;&gt;p10 -->
<g id="edge9" class="edge">
<title>p9-&gt;p10</title>
<path fill="none" stroke="#000000" d="M728.147,-797.2425C719.6963,-788.3116 691.1274,-757.506 671.587,-729 670.0104,-726.7001 668.4662,-724.1307 667.0811,-721.6695"/>
<polygon fill="#000000" stroke="#000000" points="670.1545,-719.9937 662.4218,-712.751 663.9501,-723.235 670.1545,-719.9937"/>
</g>
<!-- p12 -->
<g id="node13" class="node">
<title>p12</title>
<ellipse fill="none" stroke="#000000" cx="1060.587" cy="-711" rx="379.5659" ry="18"/>
<text text-anchor="middle" x="1060.587" y="-706.8" font-family="Times,serif" font-size="14.00" fill="#000000">decontx:CELDA__DECONTX:DECONTX_FILTER:DECONTX:SC__CELDA__DECONTX</text>
</g>
<!-- p11&#45;&gt;p12 -->
<g id="edge11" class="edge">
<title>p11-&gt;p12</title>
<path fill="none" stroke="#000000" d="M1032.839,-781.4006C1037.7049,-769.0552 1044.2028,-752.5689 1049.6874,-738.6539"/>
<polygon fill="#000000" stroke="#000000" points="1053.0533,-739.6589 1053.464,-729.072 1046.5408,-737.092 1053.0533,-739.6589"/>
<text text-anchor="middle" x="1057.2469" y="-751.2" font-family="Times,serif" font-size="14.00" fill="#000000">data</text>
</g>
<!-- p20 -->
<g id="node14" class="node">
<title>p20</title>
<ellipse fill="none" stroke="#000000" cx="1897.587" cy="-622.2" rx="380.7678" ry="18"/>
<text text-anchor="middle" x="1897.587" y="-618" font-family="Times,serif" font-size="14.00" fill="#000000">decontx:CELDA__DECONTX:DECONTX_FILTER:SC__FILE_CONVERTER_FROM_SCE</text>
</g>
<!-- p12&#45;&gt;p20 -->
<g id="edge12" class="edge">
<title>p12-&gt;p20</title>
<path fill="none" stroke="#000000" d="M1215.5696,-694.5574C1362.3529,-678.9847 1582.0515,-655.6762 1732.1723,-639.7494"/>
<polygon fill="#000000" stroke="#000000" points="1732.8335,-643.199 1742.4084,-638.6634 1732.0949,-636.238 1732.8335,-643.199"/>
<text text-anchor="middle" x="1567.5849" y="-662.4" font-family="Times,serif" font-size="14.00" fill="#000000">main</text>
</g>
<!-- p14 -->
<g id="node15" class="node">
<title>p14</title>
<ellipse fill="none" stroke="#000000" cx="1055.587" cy="-622.2" rx="3.5" ry="3.5"/>
<text text-anchor="middle" x="1040.0344" y="-629.9" font-family="Times,serif" font-size="14.00" fill="#000000">map</text>
</g>
<!-- p12&#45;&gt;p14 -->
<g id="edge13" class="edge">
<title>p12-&gt;p14</title>
<path fill="none" stroke="#000000" d="M1059.551,-692.6006C1058.6035,-675.7728 1057.2228,-651.2514 1056.366,-636.0352"/>
<polygon fill="#000000" stroke="#000000" points="1059.8473,-635.6027 1055.7906,-625.8153 1052.8584,-635.9963 1059.8473,-635.6027"/>
<text text-anchor="middle" x="1092.9657" y="-662.4" font-family="Times,serif" font-size="14.00" fill="#000000">outlier_table</text>
</g>
<!-- p13 -->
<g id="node16" class="node">
<title>p13</title>
<ellipse fill="#000000" stroke="#000000" cx="1027.587" cy="-622.2" rx="1.8" ry="1.8"/>
</g>
<!-- p12&#45;&gt;p13 -->
<g id="edge14" class="edge">
<title>p12-&gt;p13</title>
<path fill="none" stroke="#000000" d="M1053.7494,-692.6006C1047.1418,-674.8203 1037.3423,-648.4508 1031.8026,-633.5438"/>
<polygon fill="#000000" stroke="#000000" points="1035.079,-632.3126 1028.3147,-624.1582 1028.5174,-634.7511 1035.079,-632.3126"/>
</g>
<!-- p25 -->
<g id="node22" class="node">
<title>p25</title>
<ellipse fill="none" stroke="#000000" cx="1511.587" cy="-547.8" rx="3.5" ry="3.5"/>
<text text-anchor="middle" x="1483.9818" y="-555.5" font-family="Times,serif" font-size="14.00" fill="#000000">combine</text>
</g>
<!-- p20&#45;&gt;p25 -->
<g id="edge20" class="edge">
<title>p20-&gt;p25</title>
<path fill="none" stroke="#000000" d="M1806.5992,-604.6625C1711.2537,-586.285 1569.2958,-558.9231 1525.1704,-550.4181"/>
<polygon fill="#000000" stroke="#000000" points="1525.5838,-546.9335 1515.102,-548.4775 1524.2589,-553.807 1525.5838,-546.9335"/>
<text text-anchor="middle" x="1716.2469" y="-573.6" font-family="Times,serif" font-size="14.00" fill="#000000">data</text>
</g>
<!-- p15 -->
<g id="node17" class="node">
<title>p15</title>
<ellipse fill="none" stroke="#000000" cx="725.587" cy="-547.8" rx="3.5" ry="3.5"/>
<text text-anchor="middle" x="687.4783" y="-555.5" font-family="Times,serif" font-size="14.00" fill="#000000">toSortedList</text>
</g>
<!-- p14&#45;&gt;p15 -->
<g id="edge15" class="edge">
<title>p14-&gt;p15</title>
<path fill="none" stroke="#000000" d="M1053.5933,-619.0802C1050.7803,-614.9585 1045.2401,-607.8012 1038.587,-604.2 985.204,-575.3051 792.6316,-554.4402 739.34,-549.1264"/>
<polygon fill="#000000" stroke="#000000" points="739.4471,-545.6203 729.1546,-548.1334 738.7678,-552.5873 739.4471,-545.6203"/>
</g>
<!-- p16 -->
<g id="node18" class="node">
<title>p16</title>
<ellipse fill="none" stroke="#000000" cx="505.587" cy="-473.4" rx="505.674" ry="18"/>
<text text-anchor="middle" x="505.587" y="-469.2" font-family="Times,serif" font-size="14.00" fill="#000000">decontx:CELDA__DECONTX:DECONTX_FILTER:DECONTX:SC__CELDA__DECONTX_MERGE_OUTLIER_TABLES</text>
</g>
<!-- p15&#45;&gt;p16 -->
<g id="edge16" class="edge">
<title>p15-&gt;p16</title>
<path fill="none" stroke="#000000" d="M722.1313,-546.6314C704.8199,-540.7769 626.0818,-514.1492 568.5264,-494.685"/>
<polygon fill="#000000" stroke="#000000" points="569.3604,-491.2723 558.7661,-491.3842 567.1178,-497.9034 569.3604,-491.2723"/>
</g>
<!-- p17 -->
<g id="node19" class="node">
<title>p17</title>
<ellipse fill="#000000" stroke="#000000" cx="505.587" cy="-414.8" rx="1.8" ry="1.8"/>
</g>
<!-- p16&#45;&gt;p17 -->
<g id="edge17" class="edge">
<title>p16-&gt;p17</title>
<path fill="none" stroke="#000000" d="M505.587,-455.1798C505.587,-445.9425 505.587,-434.9821 505.587,-426.8128"/>
<polygon fill="#000000" stroke="#000000" points="509.0871,-426.706 505.587,-416.7061 502.0871,-426.7061 509.0871,-426.706"/>
</g>
<!-- p18 -->
<g id="node20" class="node">
<title>p18</title>
<ellipse fill="#000000" stroke="#000000" cx="1939.587" cy="-711" rx="3.6" ry="3.6"/>
</g>
<!-- p18&#45;&gt;p20 -->
<g id="edge18" class="edge">
<title>p18-&gt;p20</title>
<path fill="none" stroke="#000000" d="M1938.3254,-707.6064C1935.1439,-699.1358 1926.4159,-676.4332 1917.587,-658.2 1916.1536,-655.2399 1914.5897,-652.1812 1912.9882,-649.155"/>
<polygon fill="#000000" stroke="#000000" points="1916.0236,-647.4104 1908.165,-640.3045 1909.8771,-650.7601 1916.0236,-647.4104"/>
<text text-anchor="middle" x="1970.0744" y="-662.4" font-family="Times,serif" font-size="14.00" fill="#000000">outputDataType</text>
</g>
<!-- p19 -->
<g id="node21" class="node">
<title>p19</title>
<ellipse fill="#000000" stroke="#000000" cx="1855.587" cy="-711" rx="3.6" ry="3.6"/>
</g>
<!-- p19&#45;&gt;p20 -->
<g id="edge19" class="edge">
<title>p19-&gt;p20</title>
<path fill="none" stroke="#000000" d="M1854.3048,-707.4403C1851.3426,-698.5906 1844.8713,-675.0913 1852.9488,-658.2 1854.7849,-654.3603 1857.2526,-650.7991 1860.0898,-647.5304"/>
<polygon fill="#000000" stroke="#000000" points="1862.6086,-649.9619 1867.2568,-640.4411 1857.6859,-644.9852 1862.6086,-649.9619"/>
<text text-anchor="middle" x="1882.9061" y="-662.4" font-family="Times,serif" font-size="14.00" fill="#000000">mainLayer</text>
</g>
<!-- p27 -->
<g id="node27" class="node">
<title>p27</title>
<ellipse fill="none" stroke="#000000" cx="1517.587" cy="-473.4" rx="487.8315" ry="18"/>
<text text-anchor="middle" x="1517.587" y="-469.2" font-family="Times,serif" font-size="14.00" fill="#000000">decontx:CELDA__DECONTX:DECONTX_FILTER:FILTER_BY_CELL_METADATA:SC__PREPARE_OBS_FILTER</text>
</g>
<!-- p25&#45;&gt;p27 -->
<g id="edge24" class="edge">
<title>p25-&gt;p27</title>
<path fill="none" stroke="#000000" d="M1511.8764,-544.2115C1512.4947,-536.5444 1513.9949,-517.9415 1515.3025,-501.7271"/>
<polygon fill="#000000" stroke="#000000" points="1518.8076,-501.8047 1516.1228,-491.5557 1511.8302,-501.2419 1518.8076,-501.8047"/>
</g>
<!-- p21 -->
<g id="node23" class="node">
<title>p21</title>
<ellipse fill="#000000" stroke="#000000" cx="912.587" cy="-1097.8" rx="3.6" ry="3.6"/>
<text text-anchor="middle" x="870.3029" y="-1105.6" font-family="Times,serif" font-size="14.00" fill="#000000">Channel.from</text>
</g>
<!-- p22 -->
<g id="node24" class="node">
<title>p22</title>
<ellipse fill="#000000" stroke="#000000" cx="912.587" cy="-1037.9" rx="1.8" ry="1.8"/>
</g>
<!-- p21&#45;&gt;p22 -->
<g id="edge21" class="edge">
<title>p21-&gt;p22</title>
<path fill="none" stroke="#000000" d="M912.587,-1093.8698C912.587,-1085.1245 912.587,-1063.7532 912.587,-1050.0939"/>
<polygon fill="#000000" stroke="#000000" points="916.0871,-1049.7583 912.587,-1039.7584 909.0871,-1049.7584 916.0871,-1049.7583"/>
<text text-anchor="middle" x="928.9131" y="-1063.6" font-family="Times,serif" font-size="14.00" fill="#000000">filters</text>
</g>
<!-- p23 -->
<g id="node25" class="node">
<title>p23</title>
<ellipse fill="#000000" stroke="#000000" cx="1470.587" cy="-622.2" rx="3.6" ry="3.6"/>
</g>
<!-- p23&#45;&gt;p25 -->
<g id="edge22" class="edge">
<title>p23-&gt;p25</title>
<path fill="none" stroke="#000000" d="M1472.4136,-618.8611C1476.9808,-610.5153 1489.271,-588.0751 1499.587,-569.4 1501.2983,-566.3021 1503.1528,-562.9576 1504.8806,-559.8472"/>
<polygon fill="#000000" stroke="#000000" points="1508.0698,-561.3138 1509.8733,-550.8736 1501.9529,-557.9104 1508.0698,-561.3138"/>
</g>
<!-- p24 -->
<g id="node26" class="node">
<title>p24</title>
<ellipse fill="#000000" stroke="#000000" cx="1495.587" cy="-622.2" rx="3.6" ry="3.6"/>
</g>
<!-- p24&#45;&gt;p25 -->
<g id="edge23" class="edge">
<title>p24-&gt;p25</title>
<path fill="none" stroke="#000000" d="M1496.3587,-618.6115C1498.5498,-608.4232 1504.8936,-578.9244 1508.6666,-561.3799"/>
<polygon fill="#000000" stroke="#000000" points="1512.1046,-562.0401 1510.7853,-551.5277 1505.261,-560.5683 1512.1046,-562.0401"/>
</g>
<!-- p28 -->
<g id="node29" class="node">
<title>p28</title>
<ellipse fill="none" stroke="#000000" cx="1517.587" cy="-414.8" rx="3.5" ry="3.5"/>
<text text-anchor="middle" x="1481.4278" y="-422.5" font-family="Times,serif" font-size="14.00" fill="#000000">groupTuple</text>
</g>
<!-- p27&#45;&gt;p28 -->
<g id="edge26" class="edge">
<title>p27-&gt;p28</title>
<path fill="none" stroke="#000000" d="M1517.587,-455.1798C1517.587,-446.7131 1517.587,-436.7989 1517.587,-428.9131"/>
<polygon fill="#000000" stroke="#000000" points="1521.0871,-428.6903 1517.587,-418.6903 1514.0871,-428.6903 1521.0871,-428.6903"/>
</g>
<!-- p26 -->
<g id="node28" class="node">
<title>p26</title>
<ellipse fill="#000000" stroke="#000000" cx="1480.587" cy="-547.8" rx="3.6" ry="3.6"/>
</g>
<!-- p26&#45;&gt;p27 -->
<g id="edge25" class="edge">
<title>p26-&gt;p27</title>
<path fill="none" stroke="#000000" d="M1480.5364,-544.0059C1480.5815,-536.8824 1481.3534,-521.1647 1486.8058,-509.4 1488.3855,-505.9913 1490.3818,-502.6527 1492.5956,-499.4677"/>
<polygon fill="#000000" stroke="#000000" points="1495.4521,-501.4959 1498.8271,-491.453 1489.9259,-497.1992 1495.4521,-501.4959"/>
<text text-anchor="middle" x="1497.4776" y="-513.6" font-family="Times,serif" font-size="14.00" fill="#000000">tool</text>
</g>
<!-- p30 -->
<g id="node30" class="node">
<title>p30</title>
<ellipse fill="none" stroke="#000000" cx="1533.587" cy="-340.4" rx="476.2145" ry="18"/>
<text text-anchor="middle" x="1533.587" y="-336.2" font-family="Times,serif" font-size="14.00" fill="#000000">decontx:CELDA__DECONTX:DECONTX_FILTER:FILTER_BY_CELL_METADATA:SC__APPLY_OBS_FILTER</text>
</g>
<!-- p28&#45;&gt;p30 -->
<g id="edge27" class="edge">
<title>p28-&gt;p30</title>
<path fill="none" stroke="#000000" d="M1518.3587,-411.2115C1520.0075,-403.5444 1524.0082,-384.9415 1527.4951,-368.7271"/>
<polygon fill="#000000" stroke="#000000" points="1531.0018,-369.068 1529.6825,-358.5557 1524.1582,-367.5963 1531.0018,-369.068"/>
</g>
<!-- p31 -->
<g id="node32" class="node">
<title>p31</title>
<ellipse fill="none" stroke="#000000" cx="1274.587" cy="-266" rx="3.5" ry="3.5"/>
<text text-anchor="middle" x="1259.0344" y="-273.7" font-family="Times,serif" font-size="14.00" fill="#000000">map</text>
</g>
<!-- p30&#45;&gt;p31 -->
<g id="edge29" class="edge">
<title>p30-&gt;p31</title>
<path fill="none" stroke="#000000" d="M1471.2204,-322.4847C1410.166,-304.9463 1321.5938,-279.5031 1288.0978,-269.8811"/>
<polygon fill="#000000" stroke="#000000" points="1288.7068,-266.4145 1278.1291,-267.0175 1286.7741,-273.1425 1288.7068,-266.4145"/>
<text text-anchor="middle" x="1456.8437" y="-291.8" font-family="Times,serif" font-size="14.00" fill="#000000">decontx_processed</text>
</g>
<!-- p35 -->
<g id="node37" class="node">
<title>p35</title>
<ellipse fill="none" stroke="#000000" cx="1719.587" cy="-266" rx="3.5" ry="3.5"/>
<text text-anchor="middle" x="1704.0344" y="-273.7" font-family="Times,serif" font-size="14.00" fill="#000000">map</text>
</g>
<!-- p30&#45;&gt;p35 -->
<g id="edge34" class="edge">
<title>p30-&gt;p35</title>
<path fill="none" stroke="#000000" d="M1578.6124,-322.3898C1620.7546,-305.533 1680.9952,-281.4367 1706.9242,-271.0651"/>
<polygon fill="#000000" stroke="#000000" points="1708.25,-274.3045 1716.2349,-267.3408 1705.6502,-267.8051 1708.25,-274.3045"/>
<text text-anchor="middle" x="1717.8437" y="-291.8" font-family="Times,serif" font-size="14.00" fill="#000000">decontx_processed</text>
</g>
<!-- p29 -->
<g id="node31" class="node">
<title>p29</title>
<ellipse fill="#000000" stroke="#000000" cx="1550.587" cy="-414.8" rx="3.6" ry="3.6"/>
</g>
<!-- p29&#45;&gt;p30 -->
<g id="edge28" class="edge">
<title>p29-&gt;p30</title>
<path fill="none" stroke="#000000" d="M1549.767,-411.2115C1548.0151,-403.5444 1543.7645,-384.9415 1540.0596,-368.7271"/>
<polygon fill="#000000" stroke="#000000" points="1543.3751,-367.5248 1537.7355,-358.5557 1536.551,-369.0841 1543.3751,-367.5248"/>
<text text-anchor="middle" x="1555.4776" y="-380.6" font-family="Times,serif" font-size="14.00" fill="#000000">tool</text>
</g>
<!-- p34 -->
<g id="node33" class="node">
<title>p34</title>
<ellipse fill="none" stroke="#000000" cx="1286.587" cy="-191.6" rx="257.0272" ry="18"/>
<text text-anchor="middle" x="1286.587" y="-187.4" font-family="Times,serif" font-size="14.00" fill="#000000">decontx:CELDA__DECONTX:PUBLISH:COMPRESS_HDF5</text>
</g>
<!-- p31&#45;&gt;p34 -->
<g id="edge30" class="edge">
<title>p31-&gt;p34</title>
<path fill="none" stroke="#000000" d="M1275.1658,-262.4115C1276.4024,-254.7444 1279.4029,-236.1415 1282.0181,-219.9271"/>
<polygon fill="#000000" stroke="#000000" points="1285.5216,-220.1854 1283.6587,-209.7557 1278.6109,-219.0707 1285.5216,-220.1854"/>
</g>
<!-- p41 -->
<g id="node36" class="node">
<title>p41</title>
<ellipse fill="none" stroke="#000000" cx="1682.587" cy="-133" rx="3.5" ry="3.5"/>
<text text-anchor="middle" x="1667.0344" y="-140.7" font-family="Times,serif" font-size="14.00" fill="#000000">map</text>
</g>
<!-- p34&#45;&gt;p41 -->
<g id="edge33" class="edge">
<title>p34-&gt;p41</title>
<path fill="none" stroke="#000000" d="M1396.632,-175.3156C1493.9127,-160.92 1626.7451,-141.2635 1669.0608,-135.0016"/>
<polygon fill="#000000" stroke="#000000" points="1669.6077,-138.4589 1678.9876,-133.5326 1668.5829,-131.5343 1669.6077,-138.4589"/>
</g>
<!-- p32 -->
<g id="node34" class="node">
<title>p32</title>
<ellipse fill="#000000" stroke="#000000" cx="1303.587" cy="-266" rx="3.6" ry="3.6"/>
</g>
<!-- p32&#45;&gt;p34 -->
<g id="edge31" class="edge">
<title>p32-&gt;p34</title>
<path fill="none" stroke="#000000" d="M1302.767,-262.4115C1301.0151,-254.7444 1296.7645,-236.1415 1293.0596,-219.9271"/>
<polygon fill="#000000" stroke="#000000" points="1296.3751,-218.7248 1290.7355,-209.7557 1289.551,-220.2841 1296.3751,-218.7248"/>
<text text-anchor="middle" x="1343.8563" y="-231.8" font-family="Times,serif" font-size="14.00" fill="#000000">fileOutputSuffix</text>
</g>
<!-- p33 -->
<g id="node35" class="node">
<title>p33</title>
<ellipse fill="#000000" stroke="#000000" cx="1419.587" cy="-266" rx="3.6" ry="3.6"/>
</g>
<!-- p33&#45;&gt;p34 -->
<g id="edge32" class="edge">
<title>p33-&gt;p34</title>
<path fill="none" stroke="#000000" d="M1418.1443,-262.2314C1415.0255,-254.5773 1406.9262,-237.1315 1394.587,-227.6 1387.1574,-221.861 1378.7667,-217.0123 1370.0274,-212.9211"/>
<polygon fill="#000000" stroke="#000000" points="1371.3864,-209.6955 1360.8195,-208.9263 1368.6003,-216.1172 1371.3864,-209.6955"/>
<text text-anchor="middle" x="1435.1908" y="-231.8" font-family="Times,serif" font-size="14.00" fill="#000000">toolName</text>
</g>
<!-- p45 -->
<g id="node43" class="node">
<title>p45</title>
<ellipse fill="none" stroke="#000000" cx="1787.587" cy="-58.6" rx="239.6092" ry="18"/>
<text text-anchor="middle" x="1787.587" y="-54.4" font-family="Times,serif" font-size="14.00" fill="#000000">decontx:CELDA__DECONTX:PUBLISH:SC__PUBLISH</text>
</g>
<!-- p41&#45;&gt;p45 -->
<g id="edge40" class="edge">
<title>p41-&gt;p45</title>
<path fill="none" stroke="#000000" d="M1684.9113,-130.3332C1690.7656,-123.7192 1706.7815,-106.2551 1722.587,-94.6 1728.8651,-89.9705 1735.8039,-85.5195 1742.741,-81.4209"/>
<polygon fill="#000000" stroke="#000000" points="1744.5298,-84.43 1751.4772,-76.431 1741.0579,-78.3516 1744.5298,-84.43"/>
</g>
<!-- p39 -->
<g id="node38" class="node">
<title>p39</title>
<ellipse fill="none" stroke="#000000" cx="1838.587" cy="-191.6" rx="277.2113" ry="18"/>
<text text-anchor="middle" x="1838.587" y="-187.4" font-family="Times,serif" font-size="14.00" fill="#000000">decontx:CELDA__DECONTX:PUBLISH:SC__PUBLISH_PROXY</text>
</g>
<!-- p35&#45;&gt;p39 -->
<g id="edge35" class="edge">
<title>p35-&gt;p39</title>
<path fill="none" stroke="#000000" d="M1723.1691,-265.623C1734.1901,-264.3248 1768.2563,-259.2705 1791.587,-244.4 1802.4727,-237.4616 1812.3478,-227.3109 1820.2049,-217.759"/>
<polygon fill="#000000" stroke="#000000" points="1823.1685,-219.6506 1826.5649,-209.6149 1817.6514,-215.3421 1823.1685,-219.6506"/>
</g>
<!-- p40 -->
<g id="node42" class="node">
<title>p40</title>
<ellipse fill="#000000" stroke="#000000" cx="1706.587" cy="-133" rx="1.8" ry="1.8"/>
</g>
<!-- p39&#45;&gt;p40 -->
<g id="edge39" class="edge">
<title>p39-&gt;p40</title>
<path fill="none" stroke="#000000" d="M1798.2654,-173.6997C1770.3099,-161.2891 1735.0725,-145.6459 1717.5397,-137.8624"/>
<polygon fill="#000000" stroke="#000000" points="1718.9565,-134.662 1708.3965,-133.8033 1716.1162,-141.0599 1718.9565,-134.662"/>
</g>
<!-- p36 -->
<g id="node39" class="node">
<title>p36</title>
<ellipse fill="#000000" stroke="#000000" cx="1838.587" cy="-266" rx="3.6" ry="3.6"/>
</g>
<!-- p36&#45;&gt;p39 -->
<g id="edge36" class="edge">
<title>p36-&gt;p39</title>
<path fill="none" stroke="#000000" d="M1838.587,-261.9999C1838.587,-254.0769 1838.587,-235.773 1838.587,-219.8153"/>
<polygon fill="#000000" stroke="#000000" points="1842.0871,-219.8003 1838.587,-209.8003 1835.0871,-219.8003 1842.0871,-219.8003"/>
<text text-anchor="middle" x="1884.8563" y="-231.8" font-family="Times,serif" font-size="14.00" fill="#000000">fileOutputSuffix</text>
</g>
<!-- p37 -->
<g id="node40" class="node">
<title>p37</title>
<ellipse fill="#000000" stroke="#000000" cx="1954.587" cy="-266" rx="3.6" ry="3.6"/>
</g>
<!-- p37&#45;&gt;p39 -->
<g id="edge37" class="edge">
<title>p37-&gt;p39</title>
<path fill="none" stroke="#000000" d="M1953.413,-262.2748C1950.8448,-254.7007 1944.0256,-237.3948 1932.587,-227.6 1926.4271,-222.3253 1919.4116,-217.78 1912.0531,-213.8729"/>
<polygon fill="#000000" stroke="#000000" points="1913.11,-210.4944 1902.5875,-209.2585 1910.0426,-216.7866 1913.11,-210.4944"/>
<text text-anchor="middle" x="1972.1908" y="-231.8" font-family="Times,serif" font-size="14.00" fill="#000000">toolName</text>
</g>
<!-- p38 -->
<g id="node41" class="node">
<title>p38</title>
<ellipse fill="#000000" stroke="#000000" cx="1608.587" cy="-266" rx="3.6" ry="3.6"/>
</g>
<!-- p38&#45;&gt;p39 -->
<g id="edge38" class="edge">
<title>p38-&gt;p39</title>
<path fill="none" stroke="#000000" d="M1606.9765,-262.7488C1603.632,-255.4791 1596.9392,-237.7522 1605.643,-227.6 1611.7249,-220.506 1643.1203,-213.8913 1680.9917,-208.3171"/>
<polygon fill="#000000" stroke="#000000" points="1681.881,-211.7257 1691.2862,-206.848 1680.892,-204.7959 1681.881,-211.7257"/>
<text text-anchor="middle" x="1696.559" y="-231.8" font-family="Times,serif" font-size="14.00" fill="#000000">isParameterExplorationModeOn</text>
</g>
<!-- p46 -->
<g id="node47" class="node">
<title>p46</title>
<ellipse fill="#000000" stroke="#000000" cx="1787.587" cy="-1.8" rx="1.8" ry="1.8"/>
</g>
<!-- p45&#45;&gt;p46 -->
<g id="edge44" class="edge">
<title>p45-&gt;p46</title>
<path fill="none" stroke="#000000" d="M1787.587,-40.3155C1787.587,-31.6139 1787.587,-21.4551 1787.587,-13.756"/>
<polygon fill="#000000" stroke="#000000" points="1791.0871,-13.6036 1787.587,-3.6036 1784.0871,-13.6037 1791.0871,-13.6036"/>
</g>
<!-- p42 -->
<g id="node44" class="node">
<title>p42</title>
<ellipse fill="#000000" stroke="#000000" cx="1729.587" cy="-133" rx="3.6" ry="3.6"/>
</g>
<!-- p42&#45;&gt;p45 -->
<g id="edge41" class="edge">
<title>p42-&gt;p45</title>
<path fill="none" stroke="#000000" d="M1728.62,-129.0832C1727.0389,-121.7551 1724.6735,-105.7103 1731.0484,-94.6 1733.5242,-90.2852 1736.7497,-86.4075 1740.4056,-82.9414"/>
<polygon fill="#000000" stroke="#000000" points="1742.8849,-85.4353 1748.4119,-76.3963 1738.4545,-80.0158 1742.8849,-85.4353"/>
<text text-anchor="middle" x="1776.8563" y="-98.8" font-family="Times,serif" font-size="14.00" fill="#000000">fileOutputSuffix</text>
</g>
<!-- p43 -->
<g id="node45" class="node">
<title>p43</title>
<ellipse fill="#000000" stroke="#000000" cx="1845.587" cy="-133" rx="3.6" ry="3.6"/>
</g>
<!-- p43&#45;&gt;p45 -->
<g id="edge42" class="edge">
<title>p43-&gt;p45</title>
<path fill="none" stroke="#000000" d="M1844.0355,-129.632C1840.7709,-122.7168 1832.7345,-106.5625 1823.587,-94.6 1820.8555,-91.0279 1817.7879,-87.4538 1814.6256,-84.0196"/>
<polygon fill="#000000" stroke="#000000" points="1817.106,-81.5496 1807.6455,-76.78 1812.0668,-86.4082 1817.106,-81.5496"/>
<text text-anchor="middle" x="1861.1908" y="-98.8" font-family="Times,serif" font-size="14.00" fill="#000000">toolName</text>
</g>
<!-- p44 -->
<g id="node46" class="node">
<title>p44</title>
<ellipse fill="#000000" stroke="#000000" cx="1923.587" cy="-133" rx="3.6" ry="3.6"/>
</g>
<!-- p44&#45;&gt;p45 -->
<g id="edge43" class="edge">
<title>p44-&gt;p45</title>
<path fill="none" stroke="#000000" d="M1921.8007,-129.7026C1917.6486,-122.3382 1906.623,-104.4301 1892.587,-94.6 1884.4184,-88.8791 1875.2617,-84.0001 1865.85,-79.8563"/>
<polygon fill="#000000" stroke="#000000" points="1866.9598,-76.5282 1856.3806,-75.9537 1864.2925,-83.0001 1866.9598,-76.5282"/>
<text text-anchor="middle" x="1999.559" y="-98.8" font-family="Times,serif" font-size="14.00" fill="#000000">isParameterExplorationModeOn</text>
</g>
</g>
</svg>