<?xml version="1.0" encoding="UTF-8" standalone="no"?><!DOCTYPE svg PUBLIC "-//W3C//DTD SVG 1.1//EN" "http://www.w3.org/Graphics/SVG/1.1/DTD/svg11.dtd"><!-- Generated by graphviz version 2.40.1 (20161225.0304)
 --><!-- Title: pipeline_dag Pages: 1 --><svg xmlns="http://www.w3.org/2000/svg" xmlns:xlink="http://www.w3.org/1999/xlink" width="1260pt" height="706pt" viewBox="0.00 0.00 1259.65 706.00">
<g id="graph0" class="graph" transform="scale(1 1) rotate(0) translate(4 702)">
<title>pipeline_dag</title>
<polygon fill="#ffffff" stroke="transparent" points="-4,4 -4,-702 1255.6515,-702 1255.6515,4 -4,4"/>
<!-- p0 -->
<g id="node1" class="node">
<title>p0</title>
<ellipse fill="#000000" stroke="#000000" cx="236.0128" cy="-677.6" rx="3.6" ry="3.6"/>
<text text-anchor="middle" x="193.7287" y="-685.4" font-family="Times,serif" font-size="14.00" fill="#000000">Channel.from</text>
</g>
<!-- p1 -->
<g id="node2" class="node">
<title>p1</title>
<ellipse fill="#000000" stroke="#000000" cx="236.0128" cy="-617.6" rx="1.8" ry="1.8"/>
</g>
<!-- p0&#45;&gt;p1 -->
<g id="edge1" class="edge">
<title>p0-&gt;p1</title>
<path fill="none" stroke="#000000" d="M236.0128,-673.6632C236.0128,-664.9034 236.0128,-643.4964 236.0128,-629.8142"/>
<polygon fill="#000000" stroke="#000000" points="239.5129,-629.4614 236.0128,-619.4615 232.5129,-629.4615 239.5129,-629.4614"/>
<text text-anchor="middle" x="248.0654" y="-643.4" font-family="Times,serif" font-size="14.00" fill="#000000">runs</text>
</g>
<!-- p2 -->
<g id="node3" class="node">
<title>p2</title>
<ellipse fill="#000000" stroke="#000000" cx="412.0128" cy="-677.6" rx="3.6" ry="3.6"/>
<text text-anchor="middle" x="377.5043" y="-685.4" font-family="Times,serif" font-size="14.00" fill="#000000">Channel.of</text>
</g>
<!-- p3 -->
<g id="node4" class="node">
<title>p3</title>
<ellipse fill="none" stroke="#000000" cx="303.0128" cy="-617.6" rx="3.5" ry="3.5"/>
<text text-anchor="middle" x="285.9069" y="-625.3" font-family="Times,serif" font-size="14.00" fill="#000000">view</text>
</g>
<!-- p2&#45;&gt;p3 -->
<g id="edge2" class="edge">
<title>p2-&gt;p3</title>
<path fill="none" stroke="#000000" d="M408.3862,-675.6037C393.907,-667.6335 339.8392,-637.8714 315.2841,-624.3548"/>
<polygon fill="#000000" stroke="#000000" points="316.7753,-621.1805 306.327,-619.4243 313.3997,-627.3128 316.7753,-621.1805"/>
<text text-anchor="middle" x="407.9455" y="-643.4" font-family="Times,serif" font-size="14.00" fill="#000000">filteredLoom</text>
</g>
<!-- p7 -->
<g id="node7" class="node">
<title>p7</title>
<ellipse fill="none" stroke="#000000" cx="590.0128" cy="-617.6" rx="3.5" ry="3.5"/>
<text text-anchor="middle" x="562.4076" y="-625.3" font-family="Times,serif" font-size="14.00" fill="#000000">combine</text>
</g>
<!-- p2&#45;&gt;p7 -->
<g id="edge5" class="edge">
<title>p2-&gt;p7</title>
<path fill="none" stroke="#000000" d="M415.6207,-675.9722C428.1886,-670.342 471.2858,-651.3745 508.1474,-639.2 531.9495,-631.3388 560.3675,-624.3661 576.6899,-620.5865"/>
<polygon fill="#000000" stroke="#000000" points="577.557,-623.9788 586.5372,-618.3568 576.0111,-617.1517 577.557,-623.9788"/>
<text text-anchor="middle" x="545.9455" y="-643.4" font-family="Times,serif" font-size="14.00" fill="#000000">filteredLoom</text>
</g>
<!-- p4 -->
<g id="node5" class="node">
<title>p4</title>
<ellipse fill="#000000" stroke="#000000" cx="288.0128" cy="-543.2" rx="1.8" ry="1.8"/>
</g>
<!-- p3&#45;&gt;p4 -->
<g id="edge3" class="edge">
<title>p3-&gt;p4</title>
<path fill="none" stroke="#000000" d="M302.2893,-614.0115C300.1628,-603.4639 293.8637,-572.2203 290.3858,-554.9701"/>
<polygon fill="#000000" stroke="#000000" points="293.7995,-554.192 288.3921,-545.081 286.9375,-555.5755 293.7995,-554.192"/>
</g>
<!-- p5 -->
<g id="node6" class="node">
<title>p5</title>
<ellipse fill="#000000" stroke="#000000" cx="582.0128" cy="-677.6" rx="3.6" ry="3.6"/>
</g>
<!-- p5&#45;&gt;p7 -->
<g id="edge4" class="edge">
<title>p5-&gt;p7</title>
<path fill="none" stroke="#000000" d="M582.4893,-674.0264C583.5924,-665.7531 586.3689,-644.9294 588.2226,-631.0264"/>
<polygon fill="#000000" stroke="#000000" points="591.6964,-631.4546 589.5489,-621.0797 584.7578,-630.5294 591.6964,-631.4546"/>
</g>
<!-- p9 -->
<g id="node9" class="node">
<title>p9</title>
<ellipse fill="none" stroke="#000000" cx="661.0128" cy="-543.2" rx="232.0443" ry="18"/>
<text text-anchor="middle" x="661.0128" y="-539" font-family="Times,serif" font-size="14.00" fill="#000000">scenic:SCENIC_WF:GRNBOOST2_WITHOUT_DASK</text>
</g>
<!-- p7&#45;&gt;p9 -->
<g id="edge7" class="edge">
<title>p7-&gt;p9</title>
<path fill="none" stroke="#000000" d="M592.7094,-614.7743C599.8703,-607.2705 619.9473,-586.232 636.4939,-568.893"/>
<polygon fill="#000000" stroke="#000000" points="639.4171,-570.8996 643.7889,-561.2487 634.353,-566.0668 639.4171,-570.8996"/>
</g>
<!-- p6 -->
<g id="node8" class="node">
<title>p6</title>
<ellipse fill="#000000" stroke="#000000" cx="607.0128" cy="-677.6" rx="3.6" ry="3.6"/>
</g>
<!-- p6&#45;&gt;p7 -->
<g id="edge6" class="edge">
<title>p6-&gt;p7</title>
<path fill="none" stroke="#000000" d="M606.0003,-674.0264C603.6562,-665.7531 597.7561,-644.9294 593.817,-631.0264"/>
<polygon fill="#000000" stroke="#000000" points="597.0923,-629.7468 590.9987,-621.0797 590.3574,-631.6551 597.0923,-629.7468"/>
</g>
<!-- p14 -->
<g id="node11" class="node">
<title>p14</title>
<ellipse fill="none" stroke="#000000" cx="395.0128" cy="-454.4" rx="186.9547" ry="18"/>
<text text-anchor="middle" x="395.0128" y="-450.2" font-family="Times,serif" font-size="14.00" fill="#000000">scenic:SCENIC_WF:CISTARGET__MOTIF</text>
</g>
<!-- p9&#45;&gt;p14 -->
<g id="edge9" class="edge">
<title>p9-&gt;p14</title>
<path fill="none" stroke="#000000" d="M608.4598,-525.656C564.7817,-511.0747 502.562,-490.3036 456.5609,-474.9469"/>
<polygon fill="#000000" stroke="#000000" points="457.5972,-471.603 447.0035,-471.7563 455.3806,-478.2428 457.5972,-471.603"/>
</g>
<!-- p19 -->
<g id="node19" class="node">
<title>p19</title>
<ellipse fill="none" stroke="#000000" cx="927.0128" cy="-454.4" rx="189.8241" ry="18"/>
<text text-anchor="middle" x="927.0128" y="-450.2" font-family="Times,serif" font-size="14.00" fill="#000000">scenic:SCENIC_WF:CISTARGET__TRACK</text>
</g>
<!-- p9&#45;&gt;p19 -->
<g id="edge17" class="edge">
<title>p9-&gt;p19</title>
<path fill="none" stroke="#000000" d="M713.5659,-525.656C757.2439,-511.0747 819.4637,-490.3036 865.4647,-474.9469"/>
<polygon fill="#000000" stroke="#000000" points="866.6451,-478.2428 875.0222,-471.7563 864.4285,-471.603 866.6451,-478.2428"/>
</g>
<!-- p8 -->
<g id="node10" class="node">
<title>p8</title>
<ellipse fill="#000000" stroke="#000000" cx="661.0128" cy="-617.6" rx="3.6" ry="3.6"/>
</g>
<!-- p8&#45;&gt;p9 -->
<g id="edge8" class="edge">
<title>p8-&gt;p9</title>
<path fill="none" stroke="#000000" d="M661.0128,-613.5999C661.0128,-605.6769 661.0128,-587.373 661.0128,-571.4153"/>
<polygon fill="#000000" stroke="#000000" points="664.5129,-571.4003 661.0128,-561.4003 657.5129,-571.4003 664.5129,-571.4003"/>
<text text-anchor="middle" x="668.0107" y="-583.4" font-family="Times,serif" font-size="14.00" fill="#000000">tfs</text>
</g>
<!-- p21 -->
<g id="node16" class="node">
<title>p21</title>
<ellipse fill="none" stroke="#000000" cx="239.0128" cy="-365.6" rx="171.9081" ry="18"/>
<text text-anchor="middle" x="239.0128" y="-361.4" font-family="Times,serif" font-size="14.00" fill="#000000">scenic:SCENIC_WF:AUCELL__MOTIF</text>
</g>
<!-- p14&#45;&gt;p21 -->
<g id="edge14" class="edge">
<title>p14-&gt;p21</title>
<path fill="none" stroke="#000000" d="M363.8188,-436.6434C339.4803,-422.7892 305.4934,-403.4428 279.1311,-388.4366"/>
<polygon fill="#000000" stroke="#000000" points="280.5749,-385.2311 270.1528,-383.3258 277.112,-391.3146 280.5749,-385.2311"/>
</g>
<!-- p10 -->
<g id="node12" class="node">
<title>p10</title>
<ellipse fill="#000000" stroke="#000000" cx="358.0128" cy="-617.6" rx="3.6" ry="3.6"/>
<text text-anchor="middle" x="303.2848" y="-601.4" font-family="Times,serif" font-size="14.00" fill="#000000">Channel.fromPath</text>
</g>
<!-- p11 -->
<g id="node13" class="node">
<title>p11</title>
<ellipse fill="none" stroke="#000000" cx="358.0128" cy="-543.2" rx="3.5" ry="3.5"/>
<text text-anchor="middle" x="335.855" y="-550.9" font-family="Times,serif" font-size="14.00" fill="#000000">collect</text>
</g>
<!-- p10&#45;&gt;p11 -->
<g id="edge10" class="edge">
<title>p10-&gt;p11</title>
<path fill="none" stroke="#000000" d="M358.0128,-613.5999C358.0128,-603.1076 358.0128,-574.41 358.0128,-557.0649"/>
<polygon fill="#000000" stroke="#000000" points="361.5129,-556.8641 358.0128,-546.8641 354.5129,-556.8642 361.5129,-556.8641"/>
</g>
<!-- p11&#45;&gt;p14 -->
<g id="edge11" class="edge">
<title>p11-&gt;p14</title>
<path fill="none" stroke="#000000" d="M356.7758,-539.6682C353.9145,-530.8822 347.6428,-507.5167 355.2372,-490.4 356.8898,-486.6753 359.1392,-483.1723 361.7333,-479.924"/>
<polygon fill="#000000" stroke="#000000" points="364.4932,-482.0961 368.7474,-472.3929 359.3707,-477.3252 364.4932,-482.0961"/>
<text text-anchor="middle" x="380.9006" y="-494.6" font-family="Times,serif" font-size="14.00" fill="#000000">motifDB</text>
</g>
<!-- p12 -->
<g id="node14" class="node">
<title>p12</title>
<ellipse fill="#000000" stroke="#000000" cx="407.0128" cy="-543.2" rx="3.6" ry="3.6"/>
</g>
<!-- p12&#45;&gt;p14 -->
<g id="edge12" class="edge">
<title>p12-&gt;p14</title>
<path fill="none" stroke="#000000" d="M407.6983,-539.5742C409.209,-530.9576 412.4295,-508.6122 409.0128,-490.4 408.5086,-487.7121 407.8097,-484.967 406.991,-482.2512"/>
<polygon fill="#000000" stroke="#000000" points="410.2515,-480.9722 403.6347,-472.6976 403.6472,-483.2924 410.2515,-480.9722"/>
<text text-anchor="middle" x="440.5633" y="-494.6" font-family="Times,serif" font-size="14.00" fill="#000000">annotation</text>
</g>
<!-- p13 -->
<g id="node15" class="node">
<title>p13</title>
<ellipse fill="#000000" stroke="#000000" cx="311.0128" cy="-543.2" rx="3.6" ry="3.6"/>
</g>
<!-- p13&#45;&gt;p14 -->
<g id="edge13" class="edge">
<title>p13-&gt;p14</title>
<path fill="none" stroke="#000000" d="M310.9116,-539.4159C310.858,-530.0541 311.9414,-505.4783 323.9076,-490.4 327.8024,-485.4923 332.544,-481.1944 337.711,-477.4441"/>
<polygon fill="#000000" stroke="#000000" points="339.633,-480.3693 346.1202,-471.9928 335.8252,-474.4956 339.633,-480.3693"/>
<text text-anchor="middle" x="336.0654" y="-494.6" font-family="Times,serif" font-size="14.00" fill="#000000">type</text>
</g>
<!-- p24 -->
<g id="node24" class="node">
<title>p24</title>
<ellipse fill="none" stroke="#000000" cx="239.0128" cy="-307.1" rx="3.5" ry="3.5"/>
<text text-anchor="middle" x="223.4602" y="-314.8" font-family="Times,serif" font-size="14.00" fill="#000000">map</text>
</g>
<!-- p21&#45;&gt;p24 -->
<g id="edge22" class="edge">
<title>p21-&gt;p24</title>
<path fill="none" stroke="#000000" d="M239.0128,-347.4109C239.0128,-338.9587 239.0128,-329.0613 239.0128,-321.189"/>
<polygon fill="#000000" stroke="#000000" points="242.5129,-320.9836 239.0128,-310.9837 235.5129,-320.9837 242.5129,-320.9836"/>
</g>
<!-- p15 -->
<g id="node17" class="node">
<title>p15</title>
<ellipse fill="#000000" stroke="#000000" cx="915.0128" cy="-617.6" rx="3.6" ry="3.6"/>
<text text-anchor="middle" x="860.2848" y="-625.4" font-family="Times,serif" font-size="14.00" fill="#000000">Channel.fromPath</text>
</g>
<!-- p16 -->
<g id="node18" class="node">
<title>p16</title>
<ellipse fill="none" stroke="#000000" cx="915.0128" cy="-543.2" rx="3.5" ry="3.5"/>
<text text-anchor="middle" x="930.1706" y="-550.9" font-family="Times,serif" font-size="14.00" fill="#000000">collect</text>
</g>
<!-- p15&#45;&gt;p16 -->
<g id="edge15" class="edge">
<title>p15-&gt;p16</title>
<path fill="none" stroke="#000000" d="M915.0128,-613.5999C915.0128,-603.1076 915.0128,-574.41 915.0128,-557.0649"/>
<polygon fill="#000000" stroke="#000000" points="918.5129,-556.8641 915.0128,-546.8641 911.5129,-556.8642 918.5129,-556.8641"/>
</g>
<!-- p16&#45;&gt;p19 -->
<g id="edge16" class="edge">
<title>p16-&gt;p19</title>
<path fill="none" stroke="#000000" d="M912.8687,-540.2412C907.6673,-532.9939 894.6542,-514.4211 892.5892,-507.2 890.5363,-500.0211 889.8092,-497.3298 892.5892,-490.4 893.9918,-486.9038 895.9138,-483.555 898.1378,-480.4047"/>
<polygon fill="#000000" stroke="#000000" points="900.9359,-482.5125 904.5812,-472.5645 895.5279,-478.068 900.9359,-482.5125"/>
<text text-anchor="middle" x="915.7246" y="-494.6" font-family="Times,serif" font-size="14.00" fill="#000000">trackDB</text>
</g>
<!-- p23 -->
<g id="node22" class="node">
<title>p23</title>
<ellipse fill="none" stroke="#000000" cx="1077.0128" cy="-365.6" rx="174.7774" ry="18"/>
<text text-anchor="middle" x="1077.0128" y="-361.4" font-family="Times,serif" font-size="14.00" fill="#000000">scenic:SCENIC_WF:AUCELL__TRACK</text>
</g>
<!-- p19&#45;&gt;p23 -->
<g id="edge20" class="edge">
<title>p19-&gt;p23</title>
<path fill="none" stroke="#000000" d="M957.3676,-436.43C980.6217,-422.6635 1012.8789,-403.5673 1038.0404,-388.6717"/>
<polygon fill="#000000" stroke="#000000" points="1040.1374,-391.4976 1046.9596,-383.3915 1036.5714,-385.474 1040.1374,-391.4976"/>
</g>
<!-- p17 -->
<g id="node20" class="node">
<title>p17</title>
<ellipse fill="#000000" stroke="#000000" cx="962.0128" cy="-543.2" rx="3.6" ry="3.6"/>
</g>
<!-- p17&#45;&gt;p19 -->
<g id="edge18" class="edge">
<title>p17-&gt;p19</title>
<path fill="none" stroke="#000000" d="M960.6835,-539.8274C956.9754,-530.4193 946.2413,-503.1854 937.8791,-481.9694"/>
<polygon fill="#000000" stroke="#000000" points="941.0451,-480.4569 934.122,-472.4369 934.5327,-483.0238 941.0451,-480.4569"/>
<text text-anchor="middle" x="976.5633" y="-494.6" font-family="Times,serif" font-size="14.00" fill="#000000">annotation</text>
</g>
<!-- p18 -->
<g id="node21" class="node">
<title>p18</title>
<ellipse fill="#000000" stroke="#000000" cx="1044.0128" cy="-543.2" rx="3.6" ry="3.6"/>
</g>
<!-- p18&#45;&gt;p19 -->
<g id="edge19" class="edge">
<title>p18-&gt;p19</title>
<path fill="none" stroke="#000000" d="M1042.5878,-539.6079C1038.7163,-530.2677 1027.1334,-504.937 1010.0128,-490.4 1003.6447,-484.9929 996.34,-480.2786 988.7627,-476.2026"/>
<polygon fill="#000000" stroke="#000000" points="990.2912,-473.0538 979.7822,-471.7078 987.1581,-479.3135 990.2912,-473.0538"/>
<text text-anchor="middle" x="1036.0654" y="-494.6" font-family="Times,serif" font-size="14.00" fill="#000000">type</text>
</g>
<!-- p25 -->
<g id="node26" class="node">
<title>p25</title>
<ellipse fill="none" stroke="#000000" cx="1077.0128" cy="-307.1" rx="3.5" ry="3.5"/>
<text text-anchor="middle" x="1061.4602" y="-314.8" font-family="Times,serif" font-size="14.00" fill="#000000">map</text>
</g>
<!-- p23&#45;&gt;p25 -->
<g id="edge24" class="edge">
<title>p23-&gt;p25</title>
<path fill="none" stroke="#000000" d="M1077.0128,-347.4109C1077.0128,-338.9587 1077.0128,-329.0613 1077.0128,-321.189"/>
<polygon fill="#000000" stroke="#000000" points="1080.5129,-320.9836 1077.0128,-310.9837 1073.5129,-320.9837 1080.5129,-320.9836"/>
</g>
<!-- p20 -->
<g id="node23" class="node">
<title>p20</title>
<ellipse fill="#000000" stroke="#000000" cx="186.0128" cy="-454.4" rx="3.6" ry="3.6"/>
</g>
<!-- p20&#45;&gt;p21 -->
<g id="edge21" class="edge">
<title>p20-&gt;p21</title>
<path fill="none" stroke="#000000" d="M188.0258,-451.0274C193.7172,-441.4916 210.3387,-413.6428 223.0718,-392.3088"/>
<polygon fill="#000000" stroke="#000000" points="226.1279,-394.0175 228.2476,-383.6369 220.1171,-390.43 226.1279,-394.0175"/>
<text text-anchor="middle" x="230.0654" y="-405.8" font-family="Times,serif" font-size="14.00" fill="#000000">type</text>
</g>
<!-- p27 -->
<g id="node27" class="node">
<title>p27</title>
<ellipse fill="none" stroke="#000000" cx="239.0128" cy="-263.1" rx="3.5" ry="3.5"/>
<text text-anchor="middle" x="224.6222" y="-270.8" font-family="Times,serif" font-size="14.00" fill="#000000">join</text>
</g>
<!-- p24&#45;&gt;p27 -->
<g id="edge25" class="edge">
<title>p24-&gt;p27</title>
<path fill="none" stroke="#000000" d="M239.0128,-303.3486C239.0128,-297.5686 239.0128,-286.1915 239.0128,-277.0038"/>
<polygon fill="#000000" stroke="#000000" points="242.5129,-276.8419 239.0128,-266.8419 235.5129,-276.842 242.5129,-276.8419"/>
</g>
<!-- p22 -->
<g id="node25" class="node">
<title>p22</title>
<ellipse fill="#000000" stroke="#000000" cx="1138.0128" cy="-454.4" rx="3.6" ry="3.6"/>
</g>
<!-- p22&#45;&gt;p23 -->
<g id="edge23" class="edge">
<title>p22-&gt;p23</title>
<path fill="none" stroke="#000000" d="M1135.9906,-451.3316C1133.6183,-447.7403 1129.5584,-441.6194 1126.0128,-436.4 1115.9529,-421.5908 1104.5811,-405.1421 1095.3268,-391.8293"/>
<polygon fill="#000000" stroke="#000000" points="1098.1719,-389.7903 1089.5862,-383.5825 1092.4268,-393.7895 1098.1719,-389.7903"/>
<text text-anchor="middle" x="1124.0654" y="-405.8" font-family="Times,serif" font-size="14.00" fill="#000000">type</text>
</g>
<!-- p26 -->
<g id="node28" class="node">
<title>p26</title>
<ellipse fill="#000000" stroke="#000000" cx="1077.0128" cy="-263.1" rx="1.8" ry="1.8"/>
</g>
<!-- p25&#45;&gt;p26 -->
<g id="edge26" class="edge">
<title>p25-&gt;p26</title>
<path fill="none" stroke="#000000" d="M1077.0128,-303.3486C1077.0128,-297.1763 1077.0128,-284.6216 1077.0128,-275.1659"/>
<polygon fill="#000000" stroke="#000000" points="1080.5129,-275.0832 1077.0128,-265.0833 1073.5129,-275.0833 1080.5129,-275.0832"/>
</g>
<!-- p28 -->
<g id="node29" class="node">
<title>p28</title>
<ellipse fill="none" stroke="#000000" cx="239.0128" cy="-204.6" rx="239.0257" ry="18"/>
<text text-anchor="middle" x="239.0128" y="-200.4" font-family="Times,serif" font-size="14.00" fill="#000000">scenic:SCENIC_WF:MERGE_MOTIF_TRACK_LOOMS</text>
</g>
<!-- p27&#45;&gt;p28 -->
<g id="edge27" class="edge">
<title>p27-&gt;p28</title>
<path fill="none" stroke="#000000" d="M239.0128,-259.2617C239.0128,-253.7711 239.0128,-243.1846 239.0128,-232.779"/>
<polygon fill="#000000" stroke="#000000" points="242.5129,-232.6292 239.0128,-222.6293 235.5129,-232.6293 242.5129,-232.6292"/>
</g>
<!-- p29 -->
<g id="node30" class="node">
<title>p29</title>
<ellipse fill="none" stroke="#000000" cx="239.0128" cy="-131.6" rx="144.6764" ry="18"/>
<text text-anchor="middle" x="239.0128" y="-127.4" font-family="Times,serif" font-size="14.00" fill="#000000">scenic:SCENIC_WF:VISUALIZE</text>
</g>
<!-- p28&#45;&gt;p29 -->
<g id="edge28" class="edge">
<title>p28-&gt;p29</title>
<path fill="none" stroke="#000000" d="M239.0128,-186.5551C239.0128,-178.4828 239.0128,-168.7764 239.0128,-159.7817"/>
<polygon fill="#000000" stroke="#000000" points="242.5129,-159.6903 239.0128,-149.6904 235.5129,-159.6904 242.5129,-159.6903"/>
</g>
<!-- p30 -->
<g id="node31" class="node">
<title>p30</title>
<ellipse fill="none" stroke="#000000" cx="239.0128" cy="-58.6" rx="167.8329" ry="18"/>
<text text-anchor="middle" x="239.0128" y="-54.4" font-family="Times,serif" font-size="14.00" fill="#000000">scenic:SCENIC_WF:PUBLISH_LOOM</text>
</g>
<!-- p29&#45;&gt;p30 -->
<g id="edge29" class="edge">
<title>p29-&gt;p30</title>
<path fill="none" stroke="#000000" d="M239.0128,-113.5551C239.0128,-105.4828 239.0128,-95.7764 239.0128,-86.7817"/>
<polygon fill="#000000" stroke="#000000" points="242.5129,-86.6903 239.0128,-76.6904 235.5129,-86.6904 242.5129,-86.6903"/>
</g>
<!-- p31 -->
<g id="node32" class="node">
<title>p31</title>
<ellipse fill="#000000" stroke="#000000" cx="239.0128" cy="-1.8" rx="1.8" ry="1.8"/>
</g>
<!-- p30&#45;&gt;p31 -->
<g id="edge30" class="edge">
<title>p30-&gt;p31</title>
<path fill="none" stroke="#000000" d="M239.0128,-40.3155C239.0128,-31.6139 239.0128,-21.4551 239.0128,-13.756"/>
<polygon fill="#000000" stroke="#000000" points="242.5129,-13.6036 239.0128,-3.6036 235.5129,-13.6037 242.5129,-13.6036"/>
</g>
</g>
</svg>