<?xml version="1.0" encoding="UTF-8" standalone="no"?><!DOCTYPE svg PUBLIC "-//W3C//DTD SVG 1.1//EN" "http://www.w3.org/Graphics/SVG/1.1/DTD/svg11.dtd"><!-- Generated by graphviz version 2.40.1 (20161225.0304)
 --><!-- Title: pipeline_dag Pages: 1 --><svg xmlns="http://www.w3.org/2000/svg" xmlns:xlink="http://www.w3.org/1999/xlink" width="4170pt" height="754pt" viewBox="0.00 0.00 4169.76 754.20">
<g id="graph0" class="graph" transform="scale(1 1) rotate(0) translate(4 750.2)">
<title>pipeline_dag</title>
<polygon fill="#ffffff" stroke="transparent" points="-4,4 -4,-750.2 4165.7596,-750.2 4165.7596,4 -4,4"/>
<!-- p0 -->
<g id="node1" class="node">
<title>p0</title>
<ellipse fill="#000000" stroke="#000000" cx="691.3346" cy="-725.8" rx="3.6" ry="3.6"/>
<text text-anchor="middle" x="649.0505" y="-733.6" font-family="Times,serif" font-size="14.00" fill="#000000">Channel.from</text>
</g>
<!-- p1 -->
<g id="node2" class="node">
<title>p1</title>
<ellipse fill="#000000" stroke="#000000" cx="691.3346" cy="-665.8" rx="1.8" ry="1.8"/>
</g>
<!-- p0&#45;&gt;p1 -->
<g id="edge1" class="edge">
<title>p0-&gt;p1</title>
<path fill="none" stroke="#000000" d="M691.3346,-721.8632C691.3346,-713.1034 691.3346,-691.6964 691.3346,-678.0142"/>
<polygon fill="#000000" stroke="#000000" points="694.8347,-677.6614 691.3346,-667.6615 687.8347,-677.6615 694.8347,-677.6614"/>
<text text-anchor="middle" x="703.3872" y="-691.6" font-family="Times,serif" font-size="14.00" fill="#000000">runs</text>
</g>
<!-- p2 -->
<g id="node3" class="node">
<title>p2</title>
<ellipse fill="#000000" stroke="#000000" cx="3124.3346" cy="-725.8" rx="3.6" ry="3.6"/>
<text text-anchor="middle" x="3089.8261" y="-733.6" font-family="Times,serif" font-size="14.00" fill="#000000">Channel.of</text>
</g>
<!-- p3 -->
<g id="node4" class="node">
<title>p3</title>
<ellipse fill="none" stroke="#000000" cx="3509.3346" cy="-665.8" rx="3.5" ry="3.5"/>
<text text-anchor="middle" x="3492.2287" y="-673.5" font-family="Times,serif" font-size="14.00" fill="#000000">view</text>
</g>
<!-- p2&#45;&gt;p3 -->
<g id="edge2" class="edge">
<title>p2-&gt;p3</title>
<path fill="none" stroke="#000000" d="M3128.1748,-725.3037C3145.623,-723.0405 3219.1756,-713.412 3279.3346,-704.2 3361.663,-691.5933 3460.2112,-674.4486 3495.7371,-668.2019"/>
<polygon fill="#000000" stroke="#000000" points="3496.5874,-671.606 3505.8274,-666.4221 3495.3714,-664.7124 3496.5874,-671.606"/>
<text text-anchor="middle" x="3417.2673" y="-691.6" font-family="Times,serif" font-size="14.00" fill="#000000">filteredLoom</text>
</g>
<!-- p7 -->
<g id="node7" class="node">
<title>p7</title>
<ellipse fill="none" stroke="#000000" cx="1522.3346" cy="-665.8" rx="3.5" ry="3.5"/>
<text text-anchor="middle" x="1494.7294" y="-673.5" font-family="Times,serif" font-size="14.00" fill="#000000">combine</text>
</g>
<!-- p2&#45;&gt;p7 -->
<g id="edge5" class="edge">
<title>p2-&gt;p7</title>
<path fill="none" stroke="#000000" d="M3120.5595,-725.6601C3059.1381,-723.3842 2260.3655,-693.776 1616.3346,-669.4 1587.8312,-668.3212 1554.4669,-667.0387 1536.1418,-666.3327"/>
<polygon fill="#000000" stroke="#000000" points="1536.0479,-662.8265 1525.9204,-665.9385 1535.7781,-669.8213 1536.0479,-662.8265"/>
<text text-anchor="middle" x="2550.2673" y="-691.6" font-family="Times,serif" font-size="14.00" fill="#000000">filteredLoom</text>
</g>
<!-- p33 -->
<g id="node36" class="node">
<title>p33</title>
<ellipse fill="none" stroke="#000000" cx="3249.3346" cy="-665.8" rx="3.5" ry="3.5"/>
<text text-anchor="middle" x="3234.944" y="-673.5" font-family="Times,serif" font-size="14.00" fill="#000000">join</text>
</g>
<!-- p2&#45;&gt;p33 -->
<g id="edge34" class="edge">
<title>p2-&gt;p33</title>
<path fill="none" stroke="#000000" d="M3127.6781,-724.1951C3143.2385,-716.7261 3208.9819,-685.1693 3236.8097,-671.8119"/>
<polygon fill="#000000" stroke="#000000" points="3238.4216,-674.9206 3245.9223,-667.4379 3235.3925,-668.61 3238.4216,-674.9206"/>
<text text-anchor="middle" x="3238.2673" y="-691.6" font-family="Times,serif" font-size="14.00" fill="#000000">filteredLoom</text>
</g>
<!-- p41 -->
<g id="node43" class="node">
<title>p41</title>
<ellipse fill="none" stroke="#000000" cx="2531.3346" cy="-665.8" rx="3.5" ry="3.5"/>
<text text-anchor="middle" x="2516.944" y="-673.5" font-family="Times,serif" font-size="14.00" fill="#000000">join</text>
</g>
<!-- p2&#45;&gt;p41 -->
<g id="edge41" class="edge">
<title>p2-&gt;p41</title>
<path fill="none" stroke="#000000" d="M3120.5479,-725.4169C3074.8555,-720.7937 2629.5512,-675.7376 2545.1158,-667.1944"/>
<polygon fill="#000000" stroke="#000000" points="2545.3698,-663.7023 2535.0682,-666.1778 2544.6651,-670.6667 2545.3698,-663.7023"/>
<text text-anchor="middle" x="2936.2673" y="-691.6" font-family="Times,serif" font-size="14.00" fill="#000000">filteredLoom</text>
</g>
<!-- p54 -->
<g id="node57" class="node">
<title>p54</title>
<ellipse fill="none" stroke="#000000" cx="3865.3346" cy="-665.8" rx="3.5" ry="3.5"/>
<text text-anchor="middle" x="3850.944" y="-673.5" font-family="Times,serif" font-size="14.00" fill="#000000">join</text>
</g>
<!-- p2&#45;&gt;p54 -->
<g id="edge55" class="edge">
<title>p2-&gt;p54</title>
<path fill="none" stroke="#000000" d="M3127.96,-725.5999C3154.5473,-724.1253 3322.1874,-714.7063 3458.3346,-704.2 3630.9581,-690.8789 3674.8524,-693.2776 3846.3346,-669.4 3848.124,-669.1508 3850.0007,-668.8474 3851.8488,-668.5234"/>
<polygon fill="#000000" stroke="#000000" points="3852.708,-671.9218 3861.8497,-666.5664 3851.3637,-665.052 3852.708,-671.9218"/>
<text text-anchor="middle" x="3728.2673" y="-691.6" font-family="Times,serif" font-size="14.00" fill="#000000">filteredLoom</text>
</g>
<!-- p62 -->
<g id="node64" class="node">
<title>p62</title>
<ellipse fill="none" stroke="#000000" cx="2960.3346" cy="-665.8" rx="3.5" ry="3.5"/>
<text text-anchor="middle" x="2945.944" y="-673.5" font-family="Times,serif" font-size="14.00" fill="#000000">join</text>
</g>
<!-- p2&#45;&gt;p62 -->
<g id="edge62" class="edge">
<title>p2-&gt;p62</title>
<path fill="none" stroke="#000000" d="M3120.9093,-724.5468C3101.8173,-717.5619 3008.1527,-683.2944 2973.3699,-670.569"/>
<polygon fill="#000000" stroke="#000000" points="2974.335,-667.1952 2963.7412,-667.0463 2971.9298,-673.7691 2974.335,-667.1952"/>
<text text-anchor="middle" x="3098.2673" y="-691.6" font-family="Times,serif" font-size="14.00" fill="#000000">filteredLoom</text>
</g>
<!-- p4 -->
<g id="node5" class="node">
<title>p4</title>
<ellipse fill="#000000" stroke="#000000" cx="3563.3346" cy="-591.4" rx="1.8" ry="1.8"/>
</g>
<!-- p3&#45;&gt;p4 -->
<g id="edge3" class="edge">
<title>p3-&gt;p4</title>
<path fill="none" stroke="#000000" d="M3511.7778,-662.8245C3518.5253,-654.5595 3537.8743,-630.5379 3552.3346,-609.4 3553.9475,-607.0423 3555.5988,-604.4503 3557.1152,-601.9856"/>
<polygon fill="#000000" stroke="#000000" points="3560.2785,-603.5126 3562.3603,-593.1243 3554.2547,-599.947 3560.2785,-603.5126"/>
</g>
<!-- p5 -->
<g id="node6" class="node">
<title>p5</title>
<ellipse fill="#000000" stroke="#000000" cx="1510.3346" cy="-725.8" rx="3.6" ry="3.6"/>
</g>
<!-- p5&#45;&gt;p7 -->
<g id="edge4" class="edge">
<title>p5-&gt;p7</title>
<path fill="none" stroke="#000000" d="M1511.0494,-722.2264C1512.704,-713.9531 1516.8688,-693.1294 1519.6494,-679.2264"/>
<polygon fill="#000000" stroke="#000000" points="1523.1095,-679.7719 1521.6387,-669.2797 1516.2454,-678.3991 1523.1095,-679.7719"/>
</g>
<!-- p9 -->
<g id="node9" class="node">
<title>p9</title>
<ellipse fill="none" stroke="#000000" cx="1246.3346" cy="-591.4" rx="232.0443" ry="18"/>
<text text-anchor="middle" x="1246.3346" y="-587.2" font-family="Times,serif" font-size="14.00" fill="#000000">scenic:SCENIC_WF:GRNBOOST2_WITHOUT_DASK</text>
</g>
<!-- p7&#45;&gt;p9 -->
<g id="edge7" class="edge">
<title>p7-&gt;p9</title>
<path fill="none" stroke="#000000" d="M1518.845,-664.8593C1498.5402,-659.3858 1393.9779,-631.1995 1320.4553,-611.3804"/>
<polygon fill="#000000" stroke="#000000" points="1321.3168,-607.9877 1310.7504,-608.7643 1319.4948,-614.7465 1321.3168,-607.9877"/>
</g>
<!-- p6 -->
<g id="node8" class="node">
<title>p6</title>
<ellipse fill="#000000" stroke="#000000" cx="1535.3346" cy="-725.8" rx="3.6" ry="3.6"/>
</g>
<!-- p6&#45;&gt;p7 -->
<g id="edge6" class="edge">
<title>p6-&gt;p7</title>
<path fill="none" stroke="#000000" d="M1534.5604,-722.2264C1532.7678,-713.9531 1528.256,-693.1294 1525.2437,-679.2264"/>
<polygon fill="#000000" stroke="#000000" points="1528.6268,-678.3118 1523.0886,-669.2797 1521.7856,-679.7941 1528.6268,-678.3118"/>
</g>
<!-- p14 -->
<g id="node11" class="node">
<title>p14</title>
<ellipse fill="none" stroke="#000000" cx="714.3346" cy="-502.6" rx="186.9547" ry="18"/>
<text text-anchor="middle" x="714.3346" y="-498.4" font-family="Times,serif" font-size="14.00" fill="#000000">scenic:SCENIC_WF:CISTARGET__MOTIF</text>
</g>
<!-- p9&#45;&gt;p14 -->
<g id="edge9" class="edge">
<title>p9-&gt;p14</title>
<path fill="none" stroke="#000000" d="M1148.4478,-575.061C1054.6836,-559.4101 913.6961,-535.8769 818.0375,-519.9098"/>
<polygon fill="#000000" stroke="#000000" points="818.4958,-516.438 808.056,-518.2437 817.3433,-523.3424 818.4958,-516.438"/>
</g>
<!-- p19 -->
<g id="node19" class="node">
<title>p19</title>
<ellipse fill="none" stroke="#000000" cx="1541.3346" cy="-502.6" rx="189.8241" ry="18"/>
<text text-anchor="middle" x="1541.3346" y="-498.4" font-family="Times,serif" font-size="14.00" fill="#000000">scenic:SCENIC_WF:CISTARGET__TRACK</text>
</g>
<!-- p9&#45;&gt;p19 -->
<g id="edge17" class="edge">
<title>p9-&gt;p19</title>
<path fill="none" stroke="#000000" d="M1304.2652,-573.9619C1353.2115,-559.2283 1423.3358,-538.1196 1474.6194,-522.6824"/>
<polygon fill="#000000" stroke="#000000" points="1475.7227,-526.0055 1484.2894,-519.7716 1473.705,-519.3026 1475.7227,-526.0055"/>
</g>
<!-- p8 -->
<g id="node10" class="node">
<title>p8</title>
<ellipse fill="#000000" stroke="#000000" cx="1246.3346" cy="-665.8" rx="3.6" ry="3.6"/>
</g>
<!-- p8&#45;&gt;p9 -->
<g id="edge8" class="edge">
<title>p8-&gt;p9</title>
<path fill="none" stroke="#000000" d="M1246.3346,-661.7999C1246.3346,-653.8769 1246.3346,-635.573 1246.3346,-619.6153"/>
<polygon fill="#000000" stroke="#000000" points="1249.8347,-619.6003 1246.3346,-609.6003 1242.8347,-619.6003 1249.8347,-619.6003"/>
<text text-anchor="middle" x="1253.3325" y="-631.6" font-family="Times,serif" font-size="14.00" fill="#000000">tfs</text>
</g>
<!-- p21 -->
<g id="node16" class="node">
<title>p21</title>
<ellipse fill="none" stroke="#000000" cx="500.3346" cy="-413.8" rx="171.9081" ry="18"/>
<text text-anchor="middle" x="500.3346" y="-409.6" font-family="Times,serif" font-size="14.00" fill="#000000">scenic:SCENIC_WF:AUCELL__MOTIF</text>
</g>
<!-- p14&#45;&gt;p21 -->
<g id="edge14" class="edge">
<title>p14-&gt;p21</title>
<path fill="none" stroke="#000000" d="M672.0551,-485.056C637.6156,-470.7652 588.8473,-450.5286 552.0775,-435.2709"/>
<polygon fill="#000000" stroke="#000000" points="553.1042,-431.9076 542.5263,-431.3076 550.4213,-438.373 553.1042,-431.9076"/>
<text text-anchor="middle" x="635.8872" y="-454" font-family="Times,serif" font-size="14.00" fill="#000000">ctx</text>
</g>
<!-- p24 -->
<g id="node27" class="node">
<title>p24</title>
<ellipse fill="none" stroke="#000000" cx="714.3346" cy="-413.8" rx="3.5" ry="3.5"/>
<text text-anchor="middle" x="698.782" y="-421.5" font-family="Times,serif" font-size="14.00" fill="#000000">map</text>
</g>
<!-- p14&#45;&gt;p24 -->
<g id="edge25" class="edge">
<title>p14-&gt;p24</title>
<path fill="none" stroke="#000000" d="M714.3346,-484.2006C714.3346,-467.3728 714.3346,-442.8514 714.3346,-427.6352"/>
<polygon fill="#000000" stroke="#000000" points="717.8347,-427.4153 714.3346,-417.4153 710.8347,-427.4153 717.8347,-427.4153"/>
<text text-anchor="middle" x="722.8872" y="-454" font-family="Times,serif" font-size="14.00" fill="#000000">ctx</text>
</g>
<!-- p10 -->
<g id="node12" class="node">
<title>p10</title>
<ellipse fill="#000000" stroke="#000000" cx="714.3346" cy="-665.8" rx="3.6" ry="3.6"/>
<text text-anchor="middle" x="659.6066" y="-673.6" font-family="Times,serif" font-size="14.00" fill="#000000">Channel.fromPath</text>
</g>
<!-- p11 -->
<g id="node13" class="node">
<title>p11</title>
<ellipse fill="none" stroke="#000000" cx="714.3346" cy="-591.4" rx="3.5" ry="3.5"/>
<text text-anchor="middle" x="692.1768" y="-599.1" font-family="Times,serif" font-size="14.00" fill="#000000">collect</text>
</g>
<!-- p10&#45;&gt;p11 -->
<g id="edge10" class="edge">
<title>p10-&gt;p11</title>
<path fill="none" stroke="#000000" d="M714.3346,-661.7999C714.3346,-651.3076 714.3346,-622.61 714.3346,-605.2649"/>
<polygon fill="#000000" stroke="#000000" points="717.8347,-605.0641 714.3346,-595.0641 710.8347,-605.0642 717.8347,-605.0641"/>
</g>
<!-- p11&#45;&gt;p14 -->
<g id="edge11" class="edge">
<title>p11-&gt;p14</title>
<path fill="none" stroke="#000000" d="M714.3346,-587.5844C714.3346,-577.9163 714.3346,-551.75 714.3346,-530.9826"/>
<polygon fill="#000000" stroke="#000000" points="717.8347,-530.7306 714.3346,-520.7306 710.8347,-530.7307 717.8347,-530.7306"/>
<text text-anchor="middle" x="739.2224" y="-542.8" font-family="Times,serif" font-size="14.00" fill="#000000">motifDB</text>
</g>
<!-- p12 -->
<g id="node14" class="node">
<title>p12</title>
<ellipse fill="#000000" stroke="#000000" cx="787.3346" cy="-591.4" rx="3.6" ry="3.6"/>
</g>
<!-- p12&#45;&gt;p14 -->
<g id="edge12" class="edge">
<title>p12-&gt;p14</title>
<path fill="none" stroke="#000000" d="M786.5481,-587.7064C784.4507,-578.5513 778.0013,-554.41 765.3346,-538.6 761.9041,-534.3181 757.8359,-530.3219 753.5164,-526.6658"/>
<polygon fill="#000000" stroke="#000000" points="755.5936,-523.8473 745.5534,-520.4641 751.2923,-529.37 755.5936,-523.8473"/>
<text text-anchor="middle" x="804.8851" y="-542.8" font-family="Times,serif" font-size="14.00" fill="#000000">annotation</text>
</g>
<!-- p13 -->
<g id="node15" class="node">
<title>p13</title>
<ellipse fill="#000000" stroke="#000000" cx="667.3346" cy="-591.4" rx="3.6" ry="3.6"/>
</g>
<!-- p13&#45;&gt;p14 -->
<g id="edge13" class="edge">
<title>p13-&gt;p14</title>
<path fill="none" stroke="#000000" d="M668.236,-587.6429C670.4637,-578.7425 676.7446,-555.8282 686.2294,-538.6 688.0172,-535.3527 690.0893,-532.0909 692.2822,-528.9282"/>
<polygon fill="#000000" stroke="#000000" points="695.1152,-530.9838 698.2571,-520.8655 689.4911,-526.816 695.1152,-530.9838"/>
<text text-anchor="middle" x="698.3872" y="-542.8" font-family="Times,serif" font-size="14.00" fill="#000000">type</text>
</g>
<!-- p28 -->
<g id="node24" class="node">
<title>p28</title>
<ellipse fill="none" stroke="#000000" cx="369.3346" cy="-325" rx="3.5" ry="3.5"/>
<text text-anchor="middle" x="353.782" y="-332.7" font-family="Times,serif" font-size="14.00" fill="#000000">map</text>
</g>
<!-- p21&#45;&gt;p28 -->
<g id="edge22" class="edge">
<title>p21-&gt;p28</title>
<path fill="none" stroke="#000000" d="M473.8248,-395.83C445.3028,-376.496 401.2724,-346.6494 380.6801,-332.6907"/>
<polygon fill="#000000" stroke="#000000" points="382.4958,-329.6931 372.2544,-326.9792 378.5681,-335.4874 382.4958,-329.6931"/>
<text text-anchor="middle" x="457.0492" y="-365.2" font-family="Times,serif" font-size="14.00" fill="#000000">auc</text>
</g>
<!-- p15 -->
<g id="node17" class="node">
<title>p15</title>
<ellipse fill="#000000" stroke="#000000" cx="1629.3346" cy="-665.8" rx="3.6" ry="3.6"/>
<text text-anchor="middle" x="1574.6066" y="-673.6" font-family="Times,serif" font-size="14.00" fill="#000000">Channel.fromPath</text>
</g>
<!-- p16 -->
<g id="node18" class="node">
<title>p16</title>
<ellipse fill="none" stroke="#000000" cx="1629.3346" cy="-591.4" rx="3.5" ry="3.5"/>
<text text-anchor="middle" x="1607.1768" y="-599.1" font-family="Times,serif" font-size="14.00" fill="#000000">collect</text>
</g>
<!-- p15&#45;&gt;p16 -->
<g id="edge15" class="edge">
<title>p15-&gt;p16</title>
<path fill="none" stroke="#000000" d="M1629.3346,-661.7999C1629.3346,-651.3076 1629.3346,-622.61 1629.3346,-605.2649"/>
<polygon fill="#000000" stroke="#000000" points="1632.8347,-605.0641 1629.3346,-595.0641 1625.8347,-605.0642 1632.8347,-605.0641"/>
</g>
<!-- p16&#45;&gt;p19 -->
<g id="edge16" class="edge">
<title>p16-&gt;p19</title>
<path fill="none" stroke="#000000" d="M1627.8328,-587.9651C1623.7888,-579.0041 1611.9147,-554.5101 1596.3346,-538.6 1592.0891,-534.2645 1587.2344,-530.1769 1582.2068,-526.4213"/>
<polygon fill="#000000" stroke="#000000" points="1583.857,-523.3037 1573.6596,-520.4292 1579.8387,-529.0355 1583.857,-523.3037"/>
<text text-anchor="middle" x="1633.0464" y="-542.8" font-family="Times,serif" font-size="14.00" fill="#000000">trackDB</text>
</g>
<!-- p23 -->
<g id="node22" class="node">
<title>p23</title>
<ellipse fill="none" stroke="#000000" cx="1804.3346" cy="-413.8" rx="174.7774" ry="18"/>
<text text-anchor="middle" x="1804.3346" y="-409.6" font-family="Times,serif" font-size="14.00" fill="#000000">scenic:SCENIC_WF:AUCELL__TRACK</text>
</g>
<!-- p19&#45;&gt;p23 -->
<g id="edge20" class="edge">
<title>p19-&gt;p23</title>
<path fill="none" stroke="#000000" d="M1592.668,-485.2677C1635.9319,-470.6599 1697.9169,-449.7312 1743.6346,-434.2949"/>
<polygon fill="#000000" stroke="#000000" points="1744.7759,-437.6038 1753.1307,-431.0886 1742.5365,-430.9716 1744.7759,-437.6038"/>
<text text-anchor="middle" x="1705.8872" y="-454" font-family="Times,serif" font-size="14.00" fill="#000000">ctx</text>
</g>
<!-- p45 -->
<g id="node48" class="node">
<title>p45</title>
<ellipse fill="none" stroke="#000000" cx="1538.3346" cy="-413.8" rx="3.5" ry="3.5"/>
<text text-anchor="middle" x="1522.782" y="-421.5" font-family="Times,serif" font-size="14.00" fill="#000000">map</text>
</g>
<!-- p19&#45;&gt;p45 -->
<g id="edge46" class="edge">
<title>p19-&gt;p45</title>
<path fill="none" stroke="#000000" d="M1540.713,-484.2006C1540.1445,-467.3728 1539.3161,-442.8514 1538.802,-427.6352"/>
<polygon fill="#000000" stroke="#000000" points="1542.2925,-427.2914 1538.4568,-417.4153 1535.2965,-427.5278 1542.2925,-427.2914"/>
<text text-anchor="middle" x="1548.8872" y="-454" font-family="Times,serif" font-size="14.00" fill="#000000">ctx</text>
</g>
<!-- p17 -->
<g id="node20" class="node">
<title>p17</title>
<ellipse fill="#000000" stroke="#000000" cx="1500.3346" cy="-591.4" rx="3.6" ry="3.6"/>
</g>
<!-- p17&#45;&gt;p19 -->
<g id="edge18" class="edge">
<title>p17-&gt;p19</title>
<path fill="none" stroke="#000000" d="M1499.4697,-587.8555C1497.5083,-579.0407 1493.4688,-555.6147 1501.2336,-538.6 1502.933,-534.8763 1505.2227,-531.3739 1507.8514,-528.1259"/>
<polygon fill="#000000" stroke="#000000" points="1510.6346,-530.2756 1514.9406,-520.5953 1505.5377,-525.4775 1510.6346,-530.2756"/>
<text text-anchor="middle" x="1530.8851" y="-542.8" font-family="Times,serif" font-size="14.00" fill="#000000">annotation</text>
</g>
<!-- p18 -->
<g id="node21" class="node">
<title>p18</title>
<ellipse fill="#000000" stroke="#000000" cx="1582.3346" cy="-591.4" rx="3.6" ry="3.6"/>
</g>
<!-- p18&#45;&gt;p19 -->
<g id="edge19" class="edge">
<title>p18-&gt;p19</title>
<path fill="none" stroke="#000000" d="M1581.0488,-588.018C1577.8119,-579.5739 1568.9673,-556.927 1560.3346,-538.6 1558.9927,-535.751 1557.5422,-532.803 1556.0616,-529.8768"/>
<polygon fill="#000000" stroke="#000000" points="1559.0388,-528.0153 1551.3257,-520.7518 1552.8258,-531.2399 1559.0388,-528.0153"/>
<text text-anchor="middle" x="1580.3872" y="-542.8" font-family="Times,serif" font-size="14.00" fill="#000000">type</text>
</g>
<!-- p49 -->
<g id="node26" class="node">
<title>p49</title>
<ellipse fill="none" stroke="#000000" cx="1818.3346" cy="-325" rx="3.5" ry="3.5"/>
<text text-anchor="middle" x="1802.782" y="-332.7" font-family="Times,serif" font-size="14.00" fill="#000000">map</text>
</g>
<!-- p23&#45;&gt;p49 -->
<g id="edge24" class="edge">
<title>p23-&gt;p49</title>
<path fill="none" stroke="#000000" d="M1807.2355,-395.4006C1809.8885,-378.5728 1813.7545,-354.0514 1816.1534,-338.8352"/>
<polygon fill="#000000" stroke="#000000" points="1819.6645,-339.0384 1817.7647,-328.6153 1812.7499,-337.9482 1819.6645,-339.0384"/>
<text text-anchor="middle" x="1823.0492" y="-365.2" font-family="Times,serif" font-size="14.00" fill="#000000">auc</text>
</g>
<!-- p20 -->
<g id="node23" class="node">
<title>p20</title>
<ellipse fill="#000000" stroke="#000000" cx="500.3346" cy="-502.6" rx="3.6" ry="3.6"/>
</g>
<!-- p20&#45;&gt;p21 -->
<g id="edge21" class="edge">
<title>p20-&gt;p21</title>
<path fill="none" stroke="#000000" d="M500.3346,-498.7844C500.3346,-489.1163 500.3346,-462.95 500.3346,-442.1826"/>
<polygon fill="#000000" stroke="#000000" points="503.8347,-441.9306 500.3346,-431.9306 496.8347,-441.9307 503.8347,-441.9306"/>
<text text-anchor="middle" x="512.3872" y="-454" font-family="Times,serif" font-size="14.00" fill="#000000">type</text>
</g>
<!-- p29 -->
<g id="node32" class="node">
<title>p29</title>
<ellipse fill="none" stroke="#000000" cx="336.3346" cy="-236.2" rx="3.5" ry="3.5"/>
<text text-anchor="middle" x="300.1754" y="-243.9" font-family="Times,serif" font-size="14.00" fill="#000000">groupTuple</text>
</g>
<!-- p28&#45;&gt;p29 -->
<g id="edge30" class="edge">
<title>p28-&gt;p29</title>
<path fill="none" stroke="#000000" d="M368.0813,-321.6274C363.6912,-309.814 348.8566,-269.8953 341.1195,-249.0757"/>
<polygon fill="#000000" stroke="#000000" points="344.3535,-247.7304 337.5892,-239.576 337.792,-250.1689 344.3535,-247.7304"/>
</g>
<!-- p22 -->
<g id="node25" class="node">
<title>p22</title>
<ellipse fill="#000000" stroke="#000000" cx="1804.3346" cy="-502.6" rx="3.6" ry="3.6"/>
</g>
<!-- p22&#45;&gt;p23 -->
<g id="edge23" class="edge">
<title>p22-&gt;p23</title>
<path fill="none" stroke="#000000" d="M1804.3346,-498.7844C1804.3346,-489.1163 1804.3346,-462.95 1804.3346,-442.1826"/>
<polygon fill="#000000" stroke="#000000" points="1807.8347,-441.9306 1804.3346,-431.9306 1800.8347,-441.9307 1807.8347,-441.9306"/>
<text text-anchor="middle" x="1816.3872" y="-454" font-family="Times,serif" font-size="14.00" fill="#000000">type</text>
</g>
<!-- p50 -->
<g id="node53" class="node">
<title>p50</title>
<ellipse fill="none" stroke="#000000" cx="1845.3346" cy="-236.2" rx="3.5" ry="3.5"/>
<text text-anchor="middle" x="1874.4938" y="-243.9" font-family="Times,serif" font-size="14.00" fill="#000000">groupTuple</text>
</g>
<!-- p49&#45;&gt;p50 -->
<g id="edge51" class="edge">
<title>p49-&gt;p50</title>
<path fill="none" stroke="#000000" d="M1819.3601,-321.6274C1822.9353,-309.869 1834.9767,-270.2661 1841.331,-249.3675"/>
<polygon fill="#000000" stroke="#000000" points="1844.7477,-250.1617 1844.3082,-239.576 1838.0504,-248.1253 1844.7477,-250.1617"/>
</g>
<!-- p25 -->
<g id="node28" class="node">
<title>p25</title>
<ellipse fill="none" stroke="#000000" cx="714.3346" cy="-325" rx="3.5" ry="3.5"/>
<text text-anchor="middle" x="678.1754" y="-332.7" font-family="Times,serif" font-size="14.00" fill="#000000">groupTuple</text>
</g>
<!-- p24&#45;&gt;p25 -->
<g id="edge26" class="edge">
<title>p24-&gt;p25</title>
<path fill="none" stroke="#000000" d="M714.3346,-409.9844C714.3346,-397.8312 714.3346,-359.6083 714.3346,-338.8103"/>
<polygon fill="#000000" stroke="#000000" points="717.8347,-338.7025 714.3346,-328.7026 710.8347,-338.7026 717.8347,-338.7025"/>
</g>
<!-- p27 -->
<g id="node29" class="node">
<title>p27</title>
<ellipse fill="none" stroke="#000000" cx="719.3346" cy="-236.2" rx="329.8194" ry="18"/>
<text text-anchor="middle" x="719.3346" y="-232" font-family="Times,serif" font-size="14.00" fill="#000000">scenic:SCENIC_WF:MULTI_RUNS_TO_LOOM__MOTIF:AGGR_FEATURES</text>
</g>
<!-- p25&#45;&gt;p27 -->
<g id="edge27" class="edge">
<title>p25-&gt;p27</title>
<path fill="none" stroke="#000000" d="M714.5495,-321.1844C715.0939,-311.5163 716.5672,-285.35 717.7365,-264.5826"/>
<polygon fill="#000000" stroke="#000000" points="721.246,-264.5116 718.3138,-254.3306 714.257,-264.118 721.246,-264.5116"/>
</g>
<!-- p37 -->
<g id="node31" class="node">
<title>p37</title>
<ellipse fill="none" stroke="#000000" cx="719.3346" cy="-147.4" rx="3.5" ry="3.5"/>
<text text-anchor="middle" x="704.944" y="-155.1" font-family="Times,serif" font-size="14.00" fill="#000000">join</text>
</g>
<!-- p27&#45;&gt;p37 -->
<g id="edge29" class="edge">
<title>p27-&gt;p37</title>
<path fill="none" stroke="#000000" d="M719.3346,-217.8006C719.3346,-200.9728 719.3346,-176.4514 719.3346,-161.2352"/>
<polygon fill="#000000" stroke="#000000" points="722.8347,-161.0153 719.3346,-151.0153 715.8347,-161.0153 722.8347,-161.0153"/>
</g>
<!-- p26 -->
<g id="node30" class="node">
<title>p26</title>
<ellipse fill="#000000" stroke="#000000" cx="747.3346" cy="-325" rx="3.6" ry="3.6"/>
</g>
<!-- p26&#45;&gt;p27 -->
<g id="edge28" class="edge">
<title>p26-&gt;p27</title>
<path fill="none" stroke="#000000" d="M746.1315,-321.1844C743.055,-311.4276 734.6806,-284.8685 728.1043,-264.0124"/>
<polygon fill="#000000" stroke="#000000" points="731.3968,-262.8152 725.0515,-254.3306 724.7208,-264.9203 731.3968,-262.8152"/>
<text text-anchor="middle" x="748.3872" y="-276.4" font-family="Times,serif" font-size="14.00" fill="#000000">type</text>
</g>
<!-- p39 -->
<g id="node40" class="node">
<title>p39</title>
<ellipse fill="none" stroke="#000000" cx="721.3346" cy="-58.6" rx="371.4948" ry="18"/>
<text text-anchor="middle" x="721.3346" y="-54.4" font-family="Times,serif" font-size="14.00" fill="#000000">scenic:SCENIC_WF:MULTI_RUNS_TO_LOOM__MOTIF:FEATURES_TO_REGULONS</text>
</g>
<!-- p37&#45;&gt;p39 -->
<g id="edge38" class="edge">
<title>p37-&gt;p39</title>
<path fill="none" stroke="#000000" d="M719.4206,-143.5844C719.6383,-133.9163 720.2277,-107.75 720.6954,-86.9826"/>
<polygon fill="#000000" stroke="#000000" points="724.2001,-86.8069 720.9263,-76.7306 717.2019,-86.6493 724.2001,-86.8069"/>
</g>
<!-- p31 -->
<g id="node33" class="node">
<title>p31</title>
<ellipse fill="none" stroke="#000000" cx="332.3346" cy="-147.4" rx="332.1694" ry="18"/>
<text text-anchor="middle" x="332.3346" y="-143.2" font-family="Times,serif" font-size="14.00" fill="#000000">scenic:SCENIC_WF:MULTI_RUNS_TO_LOOM__MOTIF:AGGR_REGULONS</text>
</g>
<!-- p29&#45;&gt;p31 -->
<g id="edge31" class="edge">
<title>p29-&gt;p31</title>
<path fill="none" stroke="#000000" d="M336.1628,-232.3844C335.7273,-222.7163 334.5486,-196.55 333.6131,-175.7826"/>
<polygon fill="#000000" stroke="#000000" points="337.0979,-175.363 333.1513,-165.5306 330.105,-175.678 337.0979,-175.363"/>
</g>
<!-- p32 -->
<g id="node35" class="node">
<title>p32</title>
<ellipse fill="#000000" stroke="#000000" cx="330.3346" cy="-58.6" rx="1.8" ry="1.8"/>
</g>
<!-- p31&#45;&gt;p32 -->
<g id="edge33" class="edge">
<title>p31-&gt;p32</title>
<path fill="none" stroke="#000000" d="M331.9202,-129.0006C331.5278,-111.5759 330.9496,-85.9021 330.6106,-70.8518"/>
<polygon fill="#000000" stroke="#000000" points="334.1031,-70.4768 330.3787,-60.5582 327.1049,-70.6345 334.1031,-70.4768"/>
</g>
<!-- p30 -->
<g id="node34" class="node">
<title>p30</title>
<ellipse fill="#000000" stroke="#000000" cx="365.3346" cy="-236.2" rx="3.6" ry="3.6"/>
</g>
<!-- p30&#45;&gt;p31 -->
<g id="edge32" class="edge">
<title>p30-&gt;p31</title>
<path fill="none" stroke="#000000" d="M363.9167,-232.3844C360.2744,-222.5832 350.331,-195.8267 342.5648,-174.9283"/>
<polygon fill="#000000" stroke="#000000" points="345.8367,-173.6851 339.0724,-165.5306 339.2751,-176.1235 345.8367,-173.6851"/>
<text text-anchor="middle" x="364.3872" y="-187.6" font-family="Times,serif" font-size="14.00" fill="#000000">type</text>
</g>
<!-- p35 -->
<g id="node37" class="node">
<title>p35</title>
<ellipse fill="none" stroke="#000000" cx="3256.3346" cy="-591.4" rx="286.9809" ry="18"/>
<text text-anchor="middle" x="3256.3346" y="-587.2" font-family="Times,serif" font-size="14.00" fill="#000000">scenic:SCENIC_WF:MULTI_RUNS_TO_LOOM__MOTIF:AUCELL</text>
</g>
<!-- p33&#45;&gt;p35 -->
<g id="edge35" class="edge">
<title>p33-&gt;p35</title>
<path fill="none" stroke="#000000" d="M3249.6723,-662.2115C3250.3936,-654.5444 3252.1439,-635.9415 3253.6695,-619.7271"/>
<polygon fill="#000000" stroke="#000000" points="3257.1742,-619.8396 3254.6264,-609.5557 3250.205,-619.1838 3257.1742,-619.8396"/>
</g>
<!-- p36 -->
<g id="node39" class="node">
<title>p36</title>
<ellipse fill="#000000" stroke="#000000" cx="3297.3346" cy="-502.6" rx="1.8" ry="1.8"/>
</g>
<!-- p35&#45;&gt;p36 -->
<g id="edge37" class="edge">
<title>p35-&gt;p36</title>
<path fill="none" stroke="#000000" d="M3264.8299,-573.0006C3273.0393,-555.2203 3285.2144,-528.8508 3292.0971,-513.9438"/>
<polygon fill="#000000" stroke="#000000" points="3295.4162,-515.1044 3296.4305,-504.5582 3289.0609,-512.17 3295.4162,-515.1044"/>
</g>
<!-- p34 -->
<g id="node38" class="node">
<title>p34</title>
<ellipse fill="#000000" stroke="#000000" cx="3217.3346" cy="-665.8" rx="3.6" ry="3.6"/>
</g>
<!-- p34&#45;&gt;p35 -->
<g id="edge36" class="edge">
<title>p34-&gt;p35</title>
<path fill="none" stroke="#000000" d="M3217.2041,-661.9886C3217.1093,-654.8362 3217.6208,-639.0724 3223.2294,-627.4 3224.8705,-623.9847 3226.9453,-620.6662 3229.2529,-617.5146"/>
<polygon fill="#000000" stroke="#000000" points="3232.1085,-619.5529 3235.7666,-609.6096 3226.7062,-615.1014 3232.1085,-619.5529"/>
<text text-anchor="middle" x="3234.3872" y="-631.6" font-family="Times,serif" font-size="14.00" fill="#000000">type</text>
</g>
<!-- p40 -->
<g id="node42" class="node">
<title>p40</title>
<ellipse fill="#000000" stroke="#000000" cx="721.3346" cy="-1.8" rx="1.8" ry="1.8"/>
</g>
<!-- p39&#45;&gt;p40 -->
<g id="edge40" class="edge">
<title>p39-&gt;p40</title>
<path fill="none" stroke="#000000" d="M721.3346,-40.3155C721.3346,-31.6139 721.3346,-21.4551 721.3346,-13.756"/>
<polygon fill="#000000" stroke="#000000" points="724.8347,-13.6036 721.3346,-3.6036 717.8347,-13.6037 724.8347,-13.6036"/>
</g>
<!-- p38 -->
<g id="node41" class="node">
<title>p38</title>
<ellipse fill="#000000" stroke="#000000" cx="752.3346" cy="-147.4" rx="3.6" ry="3.6"/>
</g>
<!-- p38&#45;&gt;p39 -->
<g id="edge39" class="edge">
<title>p38-&gt;p39</title>
<path fill="none" stroke="#000000" d="M751.0026,-143.5844C747.5965,-133.8276 738.3248,-107.2685 731.0439,-86.4124"/>
<polygon fill="#000000" stroke="#000000" points="734.2645,-85.0183 727.664,-76.7306 727.6556,-87.3255 734.2645,-85.0183"/>
<text text-anchor="middle" x="752.3872" y="-98.8" font-family="Times,serif" font-size="14.00" fill="#000000">type</text>
</g>
<!-- p42 -->
<g id="node44" class="node">
<title>p42</title>
<ellipse fill="none" stroke="#000000" cx="2284.3346" cy="-591.4" rx="3.5" ry="3.5"/>
<text text-anchor="middle" x="2269.944" y="-599.1" font-family="Times,serif" font-size="14.00" fill="#000000">join</text>
</g>
<!-- p41&#45;&gt;p42 -->
<g id="edge42" class="edge">
<title>p41-&gt;p42</title>
<path fill="none" stroke="#000000" d="M2527.7881,-665.7081C2505.4382,-664.9813 2382.3921,-658.79 2300.3346,-609.4 2297.3793,-607.6212 2294.667,-605.1195 2292.3482,-602.5455"/>
<polygon fill="#000000" stroke="#000000" points="2295.0391,-600.302 2286.1985,-594.463 2289.4683,-604.5407 2295.0391,-600.302"/>
</g>
<!-- p44 -->
<g id="node45" class="node">
<title>p44</title>
<ellipse fill="none" stroke="#000000" cx="2280.3346" cy="-502.6" rx="324.647" ry="18"/>
<text text-anchor="middle" x="2280.3346" y="-498.4" font-family="Times,serif" font-size="14.00" fill="#000000">scenic:SCENIC_WF:MULTI_RUNS_TO_LOOM__MOTIF:SAVE_TO_LOOM</text>
</g>
<!-- p42&#45;&gt;p44 -->
<g id="edge43" class="edge">
<title>p42-&gt;p44</title>
<path fill="none" stroke="#000000" d="M2284.1628,-587.5844C2283.7273,-577.9163 2282.5486,-551.75 2281.6131,-530.9826"/>
<polygon fill="#000000" stroke="#000000" points="2285.0979,-530.563 2281.1513,-520.7306 2278.105,-530.878 2285.0979,-530.563"/>
</g>
<!-- p67 -->
<g id="node47" class="node">
<title>p67</title>
<ellipse fill="none" stroke="#000000" cx="2296.3346" cy="-413.8" rx="3.5" ry="3.5"/>
<text text-anchor="middle" x="2281.944" y="-421.5" font-family="Times,serif" font-size="14.00" fill="#000000">join</text>
</g>
<!-- p44&#45;&gt;p67 -->
<g id="edge45" class="edge">
<title>p44-&gt;p67</title>
<path fill="none" stroke="#000000" d="M2283.6499,-484.2006C2286.6819,-467.3728 2291.1002,-442.8514 2293.8418,-427.6352"/>
<polygon fill="#000000" stroke="#000000" points="2297.3544,-427.8775 2295.6832,-417.4153 2290.4654,-426.6362 2297.3544,-427.8775"/>
</g>
<!-- p43 -->
<g id="node46" class="node">
<title>p43</title>
<ellipse fill="#000000" stroke="#000000" cx="2313.3346" cy="-591.4" rx="3.6" ry="3.6"/>
</g>
<!-- p43&#45;&gt;p44 -->
<g id="edge44" class="edge">
<title>p43-&gt;p44</title>
<path fill="none" stroke="#000000" d="M2311.9167,-587.5844C2308.2744,-577.7832 2298.331,-551.0267 2290.5648,-530.1283"/>
<polygon fill="#000000" stroke="#000000" points="2293.8367,-528.8851 2287.0724,-520.7306 2287.2751,-531.3235 2293.8367,-528.8851"/>
<text text-anchor="middle" x="2312.3872" y="-542.8" font-family="Times,serif" font-size="14.00" fill="#000000">type</text>
</g>
<!-- p68 -->
<g id="node69" class="node">
<title>p68</title>
<ellipse fill="none" stroke="#000000" cx="2327.3346" cy="-325" rx="239.0257" ry="18"/>
<text text-anchor="middle" x="2327.3346" y="-320.8" font-family="Times,serif" font-size="14.00" fill="#000000">scenic:SCENIC_WF:MERGE_MOTIF_TRACK_LOOMS</text>
</g>
<!-- p67&#45;&gt;p68 -->
<g id="edge67" class="edge">
<title>p67-&gt;p68</title>
<path fill="none" stroke="#000000" d="M2297.512,-410.4274C2300.7964,-401.0193 2310.3037,-373.7854 2317.7102,-352.5694"/>
<polygon fill="#000000" stroke="#000000" points="2321.0464,-353.6317 2321.038,-343.0369 2314.4376,-351.3245 2321.0464,-353.6317"/>
</g>
<!-- p46 -->
<g id="node49" class="node">
<title>p46</title>
<ellipse fill="none" stroke="#000000" cx="1532.3346" cy="-325" rx="3.5" ry="3.5"/>
<text text-anchor="middle" x="1496.1754" y="-332.7" font-family="Times,serif" font-size="14.00" fill="#000000">groupTuple</text>
</g>
<!-- p45&#45;&gt;p46 -->
<g id="edge47" class="edge">
<title>p45-&gt;p46</title>
<path fill="none" stroke="#000000" d="M1538.0768,-409.9844C1537.2557,-397.8312 1534.673,-359.6083 1533.2678,-338.8103"/>
<polygon fill="#000000" stroke="#000000" points="1536.7511,-338.4438 1532.5848,-328.7026 1529.767,-338.9158 1536.7511,-338.4438"/>
</g>
<!-- p48 -->
<g id="node50" class="node">
<title>p48</title>
<ellipse fill="none" stroke="#000000" cx="1491.3346" cy="-236.2" rx="332.1887" ry="18"/>
<text text-anchor="middle" x="1491.3346" y="-232" font-family="Times,serif" font-size="14.00" fill="#000000">scenic:SCENIC_WF:MULTI_RUNS_TO_LOOM__TRACK:AGGR_FEATURES</text>
</g>
<!-- p46&#45;&gt;p48 -->
<g id="edge48" class="edge">
<title>p46-&gt;p48</title>
<path fill="none" stroke="#000000" d="M1531.8809,-321.5043C1530.6529,-312.8009 1526.773,-289.6089 1518.3346,-272.2 1516.7884,-269.0101 1514.9421,-265.8199 1512.9506,-262.7299"/>
<polygon fill="#000000" stroke="#000000" points="1515.6924,-260.544 1507.0825,-254.3699 1509.963,-264.5656 1515.6924,-260.544"/>
</g>
<!-- p58 -->
<g id="node52" class="node">
<title>p58</title>
<ellipse fill="none" stroke="#000000" cx="1491.3346" cy="-147.4" rx="3.5" ry="3.5"/>
<text text-anchor="middle" x="1476.944" y="-155.1" font-family="Times,serif" font-size="14.00" fill="#000000">join</text>
</g>
<!-- p48&#45;&gt;p58 -->
<g id="edge50" class="edge">
<title>p48-&gt;p58</title>
<path fill="none" stroke="#000000" d="M1491.3346,-217.8006C1491.3346,-200.9728 1491.3346,-176.4514 1491.3346,-161.2352"/>
<polygon fill="#000000" stroke="#000000" points="1494.8347,-161.0153 1491.3346,-151.0153 1487.8347,-161.0153 1494.8347,-161.0153"/>
</g>
<!-- p47 -->
<g id="node51" class="node">
<title>p47</title>
<ellipse fill="#000000" stroke="#000000" cx="1491.3346" cy="-325" rx="3.6" ry="3.6"/>
</g>
<!-- p47&#45;&gt;p48 -->
<g id="edge49" class="edge">
<title>p47-&gt;p48</title>
<path fill="none" stroke="#000000" d="M1491.3346,-321.1844C1491.3346,-311.5163 1491.3346,-285.35 1491.3346,-264.5826"/>
<polygon fill="#000000" stroke="#000000" points="1494.8347,-264.3306 1491.3346,-254.3306 1487.8347,-264.3307 1494.8347,-264.3306"/>
<text text-anchor="middle" x="1503.3872" y="-276.4" font-family="Times,serif" font-size="14.00" fill="#000000">type</text>
</g>
<!-- p60 -->
<g id="node61" class="node">
<title>p60</title>
<ellipse fill="none" stroke="#000000" cx="1485.3346" cy="-58.6" rx="374.3642" ry="18"/>
<text text-anchor="middle" x="1485.3346" y="-54.4" font-family="Times,serif" font-size="14.00" fill="#000000">scenic:SCENIC_WF:MULTI_RUNS_TO_LOOM__TRACK:FEATURES_TO_REGULONS</text>
</g>
<!-- p58&#45;&gt;p60 -->
<g id="edge59" class="edge">
<title>p58-&gt;p60</title>
<path fill="none" stroke="#000000" d="M1491.0768,-143.5844C1490.4236,-133.9163 1488.6556,-107.75 1487.2524,-86.9826"/>
<polygon fill="#000000" stroke="#000000" points="1490.726,-86.4719 1486.5597,-76.7306 1483.7419,-86.9439 1490.726,-86.4719"/>
</g>
<!-- p52 -->
<g id="node54" class="node">
<title>p52</title>
<ellipse fill="none" stroke="#000000" cx="1873.3346" cy="-147.4" rx="335.0385" ry="18"/>
<text text-anchor="middle" x="1873.3346" y="-143.2" font-family="Times,serif" font-size="14.00" fill="#000000">scenic:SCENIC_WF:MULTI_RUNS_TO_LOOM__TRACK:AGGR_REGULONS</text>
</g>
<!-- p50&#45;&gt;p52 -->
<g id="edge52" class="edge">
<title>p50-&gt;p52</title>
<path fill="none" stroke="#000000" d="M1846.3981,-232.8274C1849.3512,-223.4618 1857.8743,-196.4315 1864.5507,-175.2577"/>
<polygon fill="#000000" stroke="#000000" points="1867.9781,-176.0265 1867.6473,-165.4369 1861.3021,-173.9215 1867.9781,-176.0265"/>
</g>
<!-- p53 -->
<g id="node56" class="node">
<title>p53</title>
<ellipse fill="#000000" stroke="#000000" cx="1879.3346" cy="-58.6" rx="1.8" ry="1.8"/>
</g>
<!-- p52&#45;&gt;p53 -->
<g id="edge54" class="edge">
<title>p52-&gt;p53</title>
<path fill="none" stroke="#000000" d="M1874.5778,-129.0006C1875.7552,-111.5759 1877.4899,-85.9021 1878.5068,-70.8518"/>
<polygon fill="#000000" stroke="#000000" points="1882.0201,-70.7714 1879.2023,-60.5582 1875.0361,-70.2995 1882.0201,-70.7714"/>
</g>
<!-- p51 -->
<g id="node55" class="node">
<title>p51</title>
<ellipse fill="#000000" stroke="#000000" cx="1878.3346" cy="-236.2" rx="3.6" ry="3.6"/>
</g>
<!-- p51&#45;&gt;p52 -->
<g id="edge53" class="edge">
<title>p51-&gt;p52</title>
<path fill="none" stroke="#000000" d="M1878.1198,-232.3844C1877.5754,-222.7163 1876.1021,-196.55 1874.9328,-175.7826"/>
<polygon fill="#000000" stroke="#000000" points="1878.4122,-175.318 1874.3555,-165.5306 1871.4233,-175.7116 1878.4122,-175.318"/>
<text text-anchor="middle" x="1888.3872" y="-187.6" font-family="Times,serif" font-size="14.00" fill="#000000">type</text>
</g>
<!-- p56 -->
<g id="node58" class="node">
<title>p56</title>
<ellipse fill="none" stroke="#000000" cx="3872.3346" cy="-591.4" rx="289.35" ry="18"/>
<text text-anchor="middle" x="3872.3346" y="-587.2" font-family="Times,serif" font-size="14.00" fill="#000000">scenic:SCENIC_WF:MULTI_RUNS_TO_LOOM__TRACK:AUCELL</text>
</g>
<!-- p54&#45;&gt;p56 -->
<g id="edge56" class="edge">
<title>p54-&gt;p56</title>
<path fill="none" stroke="#000000" d="M3865.6723,-662.2115C3866.3936,-654.5444 3868.1439,-635.9415 3869.6695,-619.7271"/>
<polygon fill="#000000" stroke="#000000" points="3873.1742,-619.8396 3870.6264,-609.5557 3866.205,-619.1838 3873.1742,-619.8396"/>
</g>
<!-- p57 -->
<g id="node60" class="node">
<title>p57</title>
<ellipse fill="#000000" stroke="#000000" cx="3872.3346" cy="-502.6" rx="1.8" ry="1.8"/>
</g>
<!-- p56&#45;&gt;p57 -->
<g id="edge58" class="edge">
<title>p56-&gt;p57</title>
<path fill="none" stroke="#000000" d="M3872.3346,-573.0006C3872.3346,-555.5759 3872.3346,-529.9021 3872.3346,-514.8518"/>
<polygon fill="#000000" stroke="#000000" points="3875.8347,-514.5582 3872.3346,-504.5582 3868.8347,-514.5582 3875.8347,-514.5582"/>
</g>
<!-- p55 -->
<g id="node59" class="node">
<title>p55</title>
<ellipse fill="#000000" stroke="#000000" cx="3833.3346" cy="-665.8" rx="3.6" ry="3.6"/>
</g>
<!-- p55&#45;&gt;p56 -->
<g id="edge57" class="edge">
<title>p55-&gt;p56</title>
<path fill="none" stroke="#000000" d="M3833.2041,-661.9886C3833.1093,-654.8362 3833.6208,-639.0724 3839.2294,-627.4 3840.8705,-623.9847 3842.9453,-620.6662 3845.2529,-617.5146"/>
<polygon fill="#000000" stroke="#000000" points="3848.1085,-619.5529 3851.7666,-609.6096 3842.7062,-615.1014 3848.1085,-619.5529"/>
<text text-anchor="middle" x="3850.3872" y="-631.6" font-family="Times,serif" font-size="14.00" fill="#000000">type</text>
</g>
<!-- p61 -->
<g id="node63" class="node">
<title>p61</title>
<ellipse fill="#000000" stroke="#000000" cx="1485.3346" cy="-1.8" rx="1.8" ry="1.8"/>
</g>
<!-- p60&#45;&gt;p61 -->
<g id="edge61" class="edge">
<title>p60-&gt;p61</title>
<path fill="none" stroke="#000000" d="M1485.3346,-40.3155C1485.3346,-31.6139 1485.3346,-21.4551 1485.3346,-13.756"/>
<polygon fill="#000000" stroke="#000000" points="1488.8347,-13.6036 1485.3346,-3.6036 1481.8347,-13.6037 1488.8347,-13.6036"/>
</g>
<!-- p59 -->
<g id="node62" class="node">
<title>p59</title>
<ellipse fill="#000000" stroke="#000000" cx="1452.3346" cy="-147.4" rx="3.6" ry="3.6"/>
</g>
<!-- p59&#45;&gt;p60 -->
<g id="edge60" class="edge">
<title>p59-&gt;p60</title>
<path fill="none" stroke="#000000" d="M1452.3163,-143.6653C1452.3939,-134.8133 1453.3077,-111.996 1460.2294,-94.6 1461.4689,-91.4849 1463.024,-88.3771 1464.7495,-85.3662"/>
<polygon fill="#000000" stroke="#000000" points="1467.8454,-87.0218 1470.2924,-76.7134 1461.9511,-83.246 1467.8454,-87.0218"/>
<text text-anchor="middle" x="1472.3872" y="-98.8" font-family="Times,serif" font-size="14.00" fill="#000000">type</text>
</g>
<!-- p63 -->
<g id="node65" class="node">
<title>p63</title>
<ellipse fill="none" stroke="#000000" cx="2919.3346" cy="-591.4" rx="3.5" ry="3.5"/>
<text text-anchor="middle" x="2904.944" y="-599.1" font-family="Times,serif" font-size="14.00" fill="#000000">join</text>
</g>
<!-- p62&#45;&gt;p63 -->
<g id="edge63" class="edge">
<title>p62-&gt;p63</title>
<path fill="none" stroke="#000000" d="M2958.5729,-662.6031C2953.0407,-652.5641 2935.8084,-621.2939 2926.1215,-603.7156"/>
<polygon fill="#000000" stroke="#000000" points="2928.936,-601.5711 2921.0442,-594.5022 2922.8053,-604.9496 2928.936,-601.5711"/>
</g>
<!-- p65 -->
<g id="node66" class="node">
<title>p65</title>
<ellipse fill="none" stroke="#000000" cx="2950.3346" cy="-502.6" rx="327.5162" ry="18"/>
<text text-anchor="middle" x="2950.3346" y="-498.4" font-family="Times,serif" font-size="14.00" fill="#000000">scenic:SCENIC_WF:MULTI_RUNS_TO_LOOM__TRACK:SAVE_TO_LOOM</text>
</g>
<!-- p63&#45;&gt;p65 -->
<g id="edge64" class="edge">
<title>p63-&gt;p65</title>
<path fill="none" stroke="#000000" d="M2920.512,-588.0274C2923.7964,-578.6193 2933.3037,-551.3854 2940.7102,-530.1694"/>
<polygon fill="#000000" stroke="#000000" points="2944.0464,-531.2317 2944.038,-520.6369 2937.4376,-528.9245 2944.0464,-531.2317"/>
</g>
<!-- p66 -->
<g id="node68" class="node">
<title>p66</title>
<ellipse fill="#000000" stroke="#000000" cx="2950.3346" cy="-413.8" rx="1.8" ry="1.8"/>
</g>
<!-- p65&#45;&gt;p66 -->
<g id="edge66" class="edge">
<title>p65-&gt;p66</title>
<path fill="none" stroke="#000000" d="M2950.3346,-484.2006C2950.3346,-466.7759 2950.3346,-441.1021 2950.3346,-426.0518"/>
<polygon fill="#000000" stroke="#000000" points="2953.8347,-425.7582 2950.3346,-415.7582 2946.8347,-425.7582 2953.8347,-425.7582"/>
</g>
<!-- p64 -->
<g id="node67" class="node">
<title>p64</title>
<ellipse fill="#000000" stroke="#000000" cx="2948.3346" cy="-591.4" rx="3.6" ry="3.6"/>
</g>
<!-- p64&#45;&gt;p65 -->
<g id="edge65" class="edge">
<title>p64-&gt;p65</title>
<path fill="none" stroke="#000000" d="M2948.4206,-587.5844C2948.6383,-577.9163 2949.2277,-551.75 2949.6954,-530.9826"/>
<polygon fill="#000000" stroke="#000000" points="2953.2001,-530.8069 2949.9263,-520.7306 2946.2019,-530.6493 2953.2001,-530.8069"/>
<text text-anchor="middle" x="2961.3872" y="-542.8" font-family="Times,serif" font-size="14.00" fill="#000000">type</text>
</g>
<!-- p69 -->
<g id="node70" class="node">
<title>p69</title>
<ellipse fill="none" stroke="#000000" cx="2393.3346" cy="-236.2" rx="144.6764" ry="18"/>
<text text-anchor="middle" x="2393.3346" y="-232" font-family="Times,serif" font-size="14.00" fill="#000000">scenic:SCENIC_WF:VISUALIZE</text>
</g>
<!-- p68&#45;&gt;p69 -->
<g id="edge68" class="edge">
<title>p68-&gt;p69</title>
<path fill="none" stroke="#000000" d="M2341.0099,-306.6006C2350.4528,-293.8956 2363.1552,-276.8051 2373.6798,-262.6448"/>
<polygon fill="#000000" stroke="#000000" points="2376.7466,-264.3858 2379.9027,-254.272 2371.1284,-260.2101 2376.7466,-264.3858"/>
</g>
<!-- p70 -->
<g id="node71" class="node">
<title>p70</title>
<ellipse fill="none" stroke="#000000" cx="2394.3346" cy="-147.4" rx="167.8329" ry="18"/>
<text text-anchor="middle" x="2394.3346" y="-143.2" font-family="Times,serif" font-size="14.00" fill="#000000">scenic:SCENIC_WF:PUBLISH_LOOM</text>
</g>
<!-- p69&#45;&gt;p70 -->
<g id="edge69" class="edge">
<title>p69-&gt;p70</title>
<path fill="none" stroke="#000000" d="M2393.5418,-217.8006C2393.6782,-205.6949 2393.8593,-189.6076 2394.0141,-175.8674"/>
<polygon fill="#000000" stroke="#000000" points="2397.5182,-175.5108 2394.1311,-165.472 2390.5187,-175.4319 2397.5182,-175.5108"/>
</g>
<!-- p71 -->
<g id="node72" class="node">
<title>p71</title>
<ellipse fill="#000000" stroke="#000000" cx="2394.3346" cy="-58.6" rx="1.8" ry="1.8"/>
</g>
<!-- p70&#45;&gt;p71 -->
<g id="edge70" class="edge">
<title>p70-&gt;p71</title>
<path fill="none" stroke="#000000" d="M2394.3346,-129.0006C2394.3346,-111.5759 2394.3346,-85.9021 2394.3346,-70.8518"/>
<polygon fill="#000000" stroke="#000000" points="2397.8347,-70.5582 2394.3346,-60.5582 2390.8347,-70.5582 2397.8347,-70.5582"/>
</g>
</g>
</svg>