<?xml version="1.0" encoding="UTF-8" standalone="no"?><!DOCTYPE svg PUBLIC "-//W3C//DTD SVG 1.1//EN" "http://www.w3.org/Graphics/SVG/1.1/DTD/svg11.dtd"><!-- Generated by graphviz version 2.40.1 (20161225.0304)
 --><!-- Title: pipeline_dag Pages: 1 --><svg xmlns="http://www.w3.org/2000/svg" xmlns:xlink="http://www.w3.org/1999/xlink" width="1247pt" height="706pt" viewBox="0.00 0.00 1246.65 706.20">
<g id="graph0" class="graph" transform="scale(1 1) rotate(0) translate(4 702.2)">
<title>pipeline_dag</title>
<polygon fill="#ffffff" stroke="transparent" points="-4,4 -4,-702.2 1242.6515,-702.2 1242.6515,4 -4,4"/>
<!-- p0 -->
<g id="node1" class="node">
<title>p0</title>
<ellipse fill="#000000" stroke="#000000" cx="249.0128" cy="-677.8" rx="3.6" ry="3.6"/>
<text text-anchor="middle" x="206.7287" y="-685.6" font-family="Times,serif" font-size="14.00" fill="#000000">Channel.from</text>
</g>
<!-- p1 -->
<g id="node2" class="node">
<title>p1</title>
<ellipse fill="none" stroke="#000000" cx="249.0128" cy="-617.8" rx="3.5" ry="3.5"/>
<text text-anchor="middle" x="231.9069" y="-625.5" font-family="Times,serif" font-size="14.00" fill="#000000">view</text>
</g>
<!-- p0&#45;&gt;p1 -->
<g id="edge1" class="edge">
<title>p0-&gt;p1</title>
<path fill="none" stroke="#000000" d="M249.0128,-673.8632C249.0128,-665.4798 249.0128,-645.5127 249.0128,-631.8191"/>
<polygon fill="#000000" stroke="#000000" points="252.5129,-631.5193 249.0128,-621.5193 245.5129,-631.5193 252.5129,-631.5193"/>
</g>
<!-- p2 -->
<g id="node3" class="node">
<title>p2</title>
<ellipse fill="#000000" stroke="#000000" cx="249.0128" cy="-543.4" rx="1.8" ry="1.8"/>
</g>
<!-- p1&#45;&gt;p2 -->
<g id="edge2" class="edge">
<title>p1-&gt;p2</title>
<path fill="none" stroke="#000000" d="M249.0128,-614.2115C249.0128,-603.7157 249.0128,-572.7262 249.0128,-555.4248"/>
<polygon fill="#000000" stroke="#000000" points="252.5129,-555.281 249.0128,-545.281 245.5129,-555.281 252.5129,-555.281"/>
</g>
<!-- p3 -->
<g id="node4" class="node">
<title>p3</title>
<ellipse fill="#000000" stroke="#000000" cx="286.0128" cy="-677.8" rx="3.6" ry="3.6"/>
<text text-anchor="middle" x="243.7287" y="-661.6" font-family="Times,serif" font-size="14.00" fill="#000000">Channel.from</text>
</g>
<!-- p4 -->
<g id="node5" class="node">
<title>p4</title>
<ellipse fill="#000000" stroke="#000000" cx="286.0128" cy="-617.8" rx="1.8" ry="1.8"/>
</g>
<!-- p3&#45;&gt;p4 -->
<g id="edge3" class="edge">
<title>p3-&gt;p4</title>
<path fill="none" stroke="#000000" d="M286.0128,-673.8632C286.0128,-665.1034 286.0128,-643.6964 286.0128,-630.0142"/>
<polygon fill="#000000" stroke="#000000" points="289.5129,-629.6614 286.0128,-619.6615 282.5129,-629.6615 289.5129,-629.6614"/>
<text text-anchor="middle" x="298.0654" y="-643.6" font-family="Times,serif" font-size="14.00" fill="#000000">runs</text>
</g>
<!-- p5 -->
<g id="node6" class="node">
<title>p5</title>
<ellipse fill="#000000" stroke="#000000" cx="406.0128" cy="-677.8" rx="3.6" ry="3.6"/>
<text text-anchor="middle" x="371.5043" y="-685.6" font-family="Times,serif" font-size="14.00" fill="#000000">Channel.of</text>
</g>
<!-- p6 -->
<g id="node7" class="node">
<title>p6</title>
<ellipse fill="none" stroke="#000000" cx="316.0128" cy="-617.8" rx="3.5" ry="3.5"/>
<text text-anchor="middle" x="298.9069" y="-625.5" font-family="Times,serif" font-size="14.00" fill="#000000">view</text>
</g>
<!-- p5&#45;&gt;p6 -->
<g id="edge4" class="edge">
<title>p5-&gt;p6</title>
<path fill="none" stroke="#000000" d="M402.5946,-675.5212C390.3452,-667.3549 348.2801,-639.3115 327.6326,-625.5465"/>
<polygon fill="#000000" stroke="#000000" points="329.3208,-622.4656 319.0589,-619.8307 325.4379,-628.2899 329.3208,-622.4656"/>
<text text-anchor="middle" x="408.9455" y="-643.6" font-family="Times,serif" font-size="14.00" fill="#000000">filteredLoom</text>
</g>
<!-- p10 -->
<g id="node10" class="node">
<title>p10</title>
<ellipse fill="none" stroke="#000000" cx="583.0128" cy="-617.8" rx="3.5" ry="3.5"/>
<text text-anchor="middle" x="555.4076" y="-625.5" font-family="Times,serif" font-size="14.00" fill="#000000">combine</text>
</g>
<!-- p5&#45;&gt;p10 -->
<g id="edge7" class="edge">
<title>p5-&gt;p10</title>
<path fill="none" stroke="#000000" d="M409.5397,-676.1619C421.8269,-670.4983 463.9721,-651.4345 500.1474,-639.4 524.2042,-631.397 552.9813,-624.4714 569.5151,-620.7391"/>
<polygon fill="#000000" stroke="#000000" points="570.4777,-624.1111 579.4911,-618.5425 568.9724,-617.2748 570.4777,-624.1111"/>
<text text-anchor="middle" x="537.9455" y="-643.6" font-family="Times,serif" font-size="14.00" fill="#000000">filteredLoom</text>
</g>
<!-- p7 -->
<g id="node8" class="node">
<title>p7</title>
<ellipse fill="#000000" stroke="#000000" cx="274.0128" cy="-543.4" rx="1.8" ry="1.8"/>
</g>
<!-- p6&#45;&gt;p7 -->
<g id="edge5" class="edge">
<title>p6-&gt;p7</title>
<path fill="none" stroke="#000000" d="M314.2688,-614.7486C309.4368,-606.2897 295.4767,-581.8184 284.0128,-561.4 282.6477,-558.9686 281.1861,-556.3478 279.8136,-553.8788"/>
<polygon fill="#000000" stroke="#000000" points="282.8526,-552.1419 274.9453,-545.0903 276.7293,-555.5339 282.8526,-552.1419"/>
</g>
<!-- p8 -->
<g id="node9" class="node">
<title>p8</title>
<ellipse fill="#000000" stroke="#000000" cx="574.0128" cy="-677.8" rx="3.6" ry="3.6"/>
</g>
<!-- p8&#45;&gt;p10 -->
<g id="edge6" class="edge">
<title>p8-&gt;p10</title>
<path fill="none" stroke="#000000" d="M574.5489,-674.2264C575.7899,-665.9531 578.9134,-645.1294 580.9989,-631.2264"/>
<polygon fill="#000000" stroke="#000000" points="584.4687,-631.6883 582.4909,-621.2797 577.5461,-630.6498 584.4687,-631.6883"/>
</g>
<!-- p12 -->
<g id="node12" class="node">
<title>p12</title>
<ellipse fill="none" stroke="#000000" cx="648.0128" cy="-543.4" rx="232.0443" ry="18"/>
<text text-anchor="middle" x="648.0128" y="-539.2" font-family="Times,serif" font-size="14.00" fill="#000000">scenic:SCENIC_WF:GRNBOOST2_WITHOUT_DASK</text>
</g>
<!-- p10&#45;&gt;p12 -->
<g id="edge9" class="edge">
<title>p10-&gt;p12</title>
<path fill="none" stroke="#000000" d="M585.4815,-614.9743C592.0373,-607.4705 610.4177,-586.432 625.5659,-569.093"/>
<polygon fill="#000000" stroke="#000000" points="628.3009,-571.2823 632.2444,-561.4487 623.0293,-566.6768 628.3009,-571.2823"/>
</g>
<!-- p9 -->
<g id="node11" class="node">
<title>p9</title>
<ellipse fill="#000000" stroke="#000000" cx="599.0128" cy="-677.8" rx="3.6" ry="3.6"/>
</g>
<!-- p9&#45;&gt;p10 -->
<g id="edge8" class="edge">
<title>p9-&gt;p10</title>
<path fill="none" stroke="#000000" d="M598.0599,-674.2264C595.8537,-665.9531 590.3007,-645.1294 586.5932,-631.2264"/>
<polygon fill="#000000" stroke="#000000" points="589.8993,-630.0402 583.9407,-621.2797 583.1356,-631.8439 589.8993,-630.0402"/>
</g>
<!-- p17 -->
<g id="node14" class="node">
<title>p17</title>
<ellipse fill="none" stroke="#000000" cx="382.0128" cy="-454.6" rx="186.9547" ry="18"/>
<text text-anchor="middle" x="382.0128" y="-450.4" font-family="Times,serif" font-size="14.00" fill="#000000">scenic:SCENIC_WF:CISTARGET__MOTIF</text>
</g>
<!-- p12&#45;&gt;p17 -->
<g id="edge11" class="edge">
<title>p12-&gt;p17</title>
<path fill="none" stroke="#000000" d="M595.4598,-525.856C551.7817,-511.2747 489.562,-490.5036 443.5609,-475.1469"/>
<polygon fill="#000000" stroke="#000000" points="444.5972,-471.803 434.0035,-471.9563 442.3806,-478.4428 444.5972,-471.803"/>
</g>
<!-- p22 -->
<g id="node22" class="node">
<title>p22</title>
<ellipse fill="none" stroke="#000000" cx="914.0128" cy="-454.6" rx="189.8241" ry="18"/>
<text text-anchor="middle" x="914.0128" y="-450.4" font-family="Times,serif" font-size="14.00" fill="#000000">scenic:SCENIC_WF:CISTARGET__TRACK</text>
</g>
<!-- p12&#45;&gt;p22 -->
<g id="edge19" class="edge">
<title>p12-&gt;p22</title>
<path fill="none" stroke="#000000" d="M700.5659,-525.856C744.2439,-511.2747 806.4637,-490.5036 852.4647,-475.1469"/>
<polygon fill="#000000" stroke="#000000" points="853.6451,-478.4428 862.0222,-471.9563 851.4285,-471.803 853.6451,-478.4428"/>
</g>
<!-- p11 -->
<g id="node13" class="node">
<title>p11</title>
<ellipse fill="#000000" stroke="#000000" cx="648.0128" cy="-617.8" rx="3.6" ry="3.6"/>
</g>
<!-- p11&#45;&gt;p12 -->
<g id="edge10" class="edge">
<title>p11-&gt;p12</title>
<path fill="none" stroke="#000000" d="M648.0128,-613.7999C648.0128,-605.8769 648.0128,-587.573 648.0128,-571.6153"/>
<polygon fill="#000000" stroke="#000000" points="651.5129,-571.6003 648.0128,-561.6003 644.5129,-571.6003 651.5129,-571.6003"/>
<text text-anchor="middle" x="655.0107" y="-583.6" font-family="Times,serif" font-size="14.00" fill="#000000">tfs</text>
</g>
<!-- p24 -->
<g id="node19" class="node">
<title>p24</title>
<ellipse fill="none" stroke="#000000" cx="226.0128" cy="-365.8" rx="171.9081" ry="18"/>
<text text-anchor="middle" x="226.0128" y="-361.6" font-family="Times,serif" font-size="14.00" fill="#000000">scenic:SCENIC_WF:AUCELL__MOTIF</text>
</g>
<!-- p17&#45;&gt;p24 -->
<g id="edge16" class="edge">
<title>p17-&gt;p24</title>
<path fill="none" stroke="#000000" d="M350.8188,-436.8434C326.4803,-422.9892 292.4934,-403.6428 266.1311,-388.6366"/>
<polygon fill="#000000" stroke="#000000" points="267.5749,-385.4311 257.1528,-383.5258 264.112,-391.5146 267.5749,-385.4311"/>
</g>
<!-- p13 -->
<g id="node15" class="node">
<title>p13</title>
<ellipse fill="#000000" stroke="#000000" cx="344.0128" cy="-617.8" rx="3.6" ry="3.6"/>
<text text-anchor="middle" x="289.2848" y="-601.6" font-family="Times,serif" font-size="14.00" fill="#000000">Channel.fromPath</text>
</g>
<!-- p14 -->
<g id="node16" class="node">
<title>p14</title>
<ellipse fill="none" stroke="#000000" cx="344.0128" cy="-543.4" rx="3.5" ry="3.5"/>
<text text-anchor="middle" x="321.855" y="-551.1" font-family="Times,serif" font-size="14.00" fill="#000000">collect</text>
</g>
<!-- p13&#45;&gt;p14 -->
<g id="edge12" class="edge">
<title>p13-&gt;p14</title>
<path fill="none" stroke="#000000" d="M344.0128,-613.7999C344.0128,-603.3076 344.0128,-574.61 344.0128,-557.2649"/>
<polygon fill="#000000" stroke="#000000" points="347.5129,-557.0641 344.0128,-547.0641 340.5129,-557.0642 347.5129,-557.0641"/>
</g>
<!-- p14&#45;&gt;p17 -->
<g id="edge13" class="edge">
<title>p14-&gt;p17</title>
<path fill="none" stroke="#000000" d="M342.7497,-539.8619C339.8274,-531.0617 333.4173,-507.6663 341.1292,-490.6 342.8817,-486.7218 345.2814,-483.0946 348.0465,-479.7501"/>
<polygon fill="#000000" stroke="#000000" points="350.6304,-482.1125 355.0293,-472.474 345.5798,-477.2656 350.6304,-482.1125"/>
<text text-anchor="middle" x="368.4546" y="-494.8" font-family="Times,serif" font-size="14.00" fill="#000000">motifsDb</text>
</g>
<!-- p15 -->
<g id="node17" class="node">
<title>p15</title>
<ellipse fill="#000000" stroke="#000000" cx="394.0128" cy="-543.4" rx="3.6" ry="3.6"/>
</g>
<!-- p15&#45;&gt;p17 -->
<g id="edge14" class="edge">
<title>p15-&gt;p17</title>
<path fill="none" stroke="#000000" d="M394.9862,-539.7679C397.1486,-531.1378 401.8677,-508.7652 398.0128,-490.6 397.4138,-487.7774 396.5778,-484.9075 395.599,-482.0825"/>
<polygon fill="#000000" stroke="#000000" points="398.838,-480.7559 391.8588,-472.7846 392.3437,-483.3683 398.838,-480.7559"/>
<text text-anchor="middle" x="429.5633" y="-494.8" font-family="Times,serif" font-size="14.00" fill="#000000">annotation</text>
</g>
<!-- p16 -->
<g id="node18" class="node">
<title>p16</title>
<ellipse fill="#000000" stroke="#000000" cx="297.0128" cy="-543.4" rx="3.6" ry="3.6"/>
</g>
<!-- p16&#45;&gt;p17 -->
<g id="edge15" class="edge">
<title>p16-&gt;p17</title>
<path fill="none" stroke="#000000" d="M296.9064,-539.6117C296.8409,-530.2404 297.8992,-505.6447 309.9076,-490.6 313.86,-485.6483 318.6701,-481.322 323.9108,-477.5548"/>
<polygon fill="#000000" stroke="#000000" points="325.9109,-480.43 332.4394,-472.0855 322.1322,-474.5376 325.9109,-480.43"/>
<text text-anchor="middle" x="322.0654" y="-494.8" font-family="Times,serif" font-size="14.00" fill="#000000">type</text>
</g>
<!-- p27 -->
<g id="node27" class="node">
<title>p27</title>
<ellipse fill="none" stroke="#000000" cx="226.0128" cy="-307.2" rx="3.5" ry="3.5"/>
<text text-anchor="middle" x="210.4602" y="-314.9" font-family="Times,serif" font-size="14.00" fill="#000000">map</text>
</g>
<!-- p24&#45;&gt;p27 -->
<g id="edge24" class="edge">
<title>p24-&gt;p27</title>
<path fill="none" stroke="#000000" d="M226.0128,-347.5798C226.0128,-339.1131 226.0128,-329.1989 226.0128,-321.3131"/>
<polygon fill="#000000" stroke="#000000" points="229.5129,-321.0903 226.0128,-311.0903 222.5129,-321.0903 229.5129,-321.0903"/>
</g>
<!-- p18 -->
<g id="node20" class="node">
<title>p18</title>
<ellipse fill="#000000" stroke="#000000" cx="902.0128" cy="-617.8" rx="3.6" ry="3.6"/>
<text text-anchor="middle" x="847.2848" y="-625.6" font-family="Times,serif" font-size="14.00" fill="#000000">Channel.fromPath</text>
</g>
<!-- p19 -->
<g id="node21" class="node">
<title>p19</title>
<ellipse fill="none" stroke="#000000" cx="902.0128" cy="-543.4" rx="3.5" ry="3.5"/>
<text text-anchor="middle" x="917.1706" y="-551.1" font-family="Times,serif" font-size="14.00" fill="#000000">collect</text>
</g>
<!-- p18&#45;&gt;p19 -->
<g id="edge17" class="edge">
<title>p18-&gt;p19</title>
<path fill="none" stroke="#000000" d="M902.0128,-613.7999C902.0128,-603.3076 902.0128,-574.61 902.0128,-557.2649"/>
<polygon fill="#000000" stroke="#000000" points="905.5129,-557.0641 902.0128,-547.0641 898.5129,-557.0642 905.5129,-557.0641"/>
</g>
<!-- p19&#45;&gt;p22 -->
<g id="edge18" class="edge">
<title>p19-&gt;p22</title>
<path fill="none" stroke="#000000" d="M899.9581,-540.4702C894.4314,-532.5611 879.5895,-511.1212 878.4812,-507.4 876.3499,-500.244 875.6465,-497.5076 878.4812,-490.6 879.9336,-487.061 881.9205,-483.684 884.2181,-480.5163"/>
<polygon fill="#000000" stroke="#000000" points="887.0841,-482.5476 890.8713,-472.6528 881.7402,-478.0262 887.0841,-482.5476"/>
<text text-anchor="middle" x="903.2786" y="-494.8" font-family="Times,serif" font-size="14.00" fill="#000000">tracksDb</text>
</g>
<!-- p26 -->
<g id="node25" class="node">
<title>p26</title>
<ellipse fill="none" stroke="#000000" cx="1064.0128" cy="-365.8" rx="174.7774" ry="18"/>
<text text-anchor="middle" x="1064.0128" y="-361.6" font-family="Times,serif" font-size="14.00" fill="#000000">scenic:SCENIC_WF:AUCELL__TRACK</text>
</g>
<!-- p22&#45;&gt;p26 -->
<g id="edge22" class="edge">
<title>p22-&gt;p26</title>
<path fill="none" stroke="#000000" d="M944.3676,-436.63C967.6217,-422.8635 999.8789,-403.7673 1025.0404,-388.8717"/>
<polygon fill="#000000" stroke="#000000" points="1027.1374,-391.6976 1033.9596,-383.5915 1023.5714,-385.674 1027.1374,-391.6976"/>
</g>
<!-- p20 -->
<g id="node23" class="node">
<title>p20</title>
<ellipse fill="#000000" stroke="#000000" cx="951.0128" cy="-543.4" rx="3.6" ry="3.6"/>
</g>
<!-- p20&#45;&gt;p22 -->
<g id="edge20" class="edge">
<title>p20-&gt;p22</title>
<path fill="none" stroke="#000000" d="M949.6076,-540.0274C945.6698,-530.5767 934.2372,-503.1386 925.3802,-481.8818"/>
<polygon fill="#000000" stroke="#000000" points="928.6052,-480.5215 921.5282,-472.6369 922.1436,-483.2138 928.6052,-480.5215"/>
<text text-anchor="middle" x="964.5633" y="-494.8" font-family="Times,serif" font-size="14.00" fill="#000000">annotation</text>
</g>
<!-- p21 -->
<g id="node24" class="node">
<title>p21</title>
<ellipse fill="#000000" stroke="#000000" cx="1033.0128" cy="-543.4" rx="3.6" ry="3.6"/>
</g>
<!-- p21&#45;&gt;p22 -->
<g id="edge21" class="edge">
<title>p21-&gt;p22</title>
<path fill="none" stroke="#000000" d="M1031.6356,-540.0726C1027.706,-530.9507 1015.58,-505.2518 998.0128,-490.6 991.5322,-485.1949 984.1185,-480.4818 976.4393,-476.4064"/>
<polygon fill="#000000" stroke="#000000" points="977.8583,-473.2037 967.3424,-471.9121 974.7576,-479.4795 977.8583,-473.2037"/>
<text text-anchor="middle" x="1025.0654" y="-494.8" font-family="Times,serif" font-size="14.00" fill="#000000">type</text>
</g>
<!-- p28 -->
<g id="node29" class="node">
<title>p28</title>
<ellipse fill="none" stroke="#000000" cx="1064.0128" cy="-307.2" rx="3.5" ry="3.5"/>
<text text-anchor="middle" x="1048.4602" y="-314.9" font-family="Times,serif" font-size="14.00" fill="#000000">map</text>
</g>
<!-- p26&#45;&gt;p28 -->
<g id="edge26" class="edge">
<title>p26-&gt;p28</title>
<path fill="none" stroke="#000000" d="M1064.0128,-347.5798C1064.0128,-339.1131 1064.0128,-329.1989 1064.0128,-321.3131"/>
<polygon fill="#000000" stroke="#000000" points="1067.5129,-321.0903 1064.0128,-311.0903 1060.5129,-321.0903 1067.5129,-321.0903"/>
</g>
<!-- p23 -->
<g id="node26" class="node">
<title>p23</title>
<ellipse fill="#000000" stroke="#000000" cx="173.0128" cy="-454.6" rx="3.6" ry="3.6"/>
</g>
<!-- p23&#45;&gt;p24 -->
<g id="edge23" class="edge">
<title>p23-&gt;p24</title>
<path fill="none" stroke="#000000" d="M175.0258,-451.2274C180.7172,-441.6916 197.3387,-413.8428 210.0718,-392.5088"/>
<polygon fill="#000000" stroke="#000000" points="213.1279,-394.2175 215.2476,-383.8369 207.1171,-390.63 213.1279,-394.2175"/>
<text text-anchor="middle" x="217.0654" y="-406" font-family="Times,serif" font-size="14.00" fill="#000000">type</text>
</g>
<!-- p31 -->
<g id="node30" class="node">
<title>p31</title>
<ellipse fill="none" stroke="#000000" cx="239.0128" cy="-263.1" rx="3.5" ry="3.5"/>
<text text-anchor="middle" x="224.6222" y="-270.8" font-family="Times,serif" font-size="14.00" fill="#000000">join</text>
</g>
<!-- p27&#45;&gt;p31 -->
<g id="edge27" class="edge">
<title>p27-&gt;p31</title>
<path fill="none" stroke="#000000" d="M227.0329,-303.7395C228.7351,-297.9653 232.2421,-286.0684 235.024,-276.6314"/>
<polygon fill="#000000" stroke="#000000" points="238.4171,-277.4988 237.8876,-266.9173 231.7028,-275.5195 238.4171,-277.4988"/>
</g>
<!-- p25 -->
<g id="node28" class="node">
<title>p25</title>
<ellipse fill="#000000" stroke="#000000" cx="1125.0128" cy="-454.6" rx="3.6" ry="3.6"/>
</g>
<!-- p25&#45;&gt;p26 -->
<g id="edge25" class="edge">
<title>p25-&gt;p26</title>
<path fill="none" stroke="#000000" d="M1122.9906,-451.5316C1120.6183,-447.9403 1116.5584,-441.8194 1113.0128,-436.6 1102.9529,-421.7908 1091.5811,-405.3421 1082.3268,-392.0293"/>
<polygon fill="#000000" stroke="#000000" points="1085.1719,-389.9903 1076.5862,-383.7825 1079.4268,-393.9895 1085.1719,-389.9903"/>
<text text-anchor="middle" x="1111.0654" y="-406" font-family="Times,serif" font-size="14.00" fill="#000000">type</text>
</g>
<!-- p29 -->
<g id="node31" class="node">
<title>p29</title>
<ellipse fill="#000000" stroke="#000000" cx="1064.0128" cy="-263.1" rx="1.8" ry="1.8"/>
</g>
<!-- p28&#45;&gt;p29 -->
<g id="edge28" class="edge">
<title>p28-&gt;p29</title>
<path fill="none" stroke="#000000" d="M1064.0128,-303.4401C1064.0128,-297.2537 1064.0128,-284.6705 1064.0128,-275.1933"/>
<polygon fill="#000000" stroke="#000000" points="1067.5129,-275.0877 1064.0128,-265.0878 1060.5129,-275.0878 1067.5129,-275.0877"/>
</g>
<!-- p32 -->
<g id="node33" class="node">
<title>p32</title>
<ellipse fill="none" stroke="#000000" cx="239.0128" cy="-204.6" rx="239.0257" ry="18"/>
<text text-anchor="middle" x="239.0128" y="-200.4" font-family="Times,serif" font-size="14.00" fill="#000000">scenic:SCENIC_WF:MERGE_MOTIF_TRACK_LOOMS</text>
</g>
<!-- p31&#45;&gt;p32 -->
<g id="edge30" class="edge">
<title>p31-&gt;p32</title>
<path fill="none" stroke="#000000" d="M239.0128,-259.2617C239.0128,-253.7711 239.0128,-243.1846 239.0128,-232.779"/>
<polygon fill="#000000" stroke="#000000" points="242.5129,-232.6292 239.0128,-222.6293 235.5129,-232.6293 242.5129,-232.6292"/>
</g>
<!-- p30 -->
<g id="node32" class="node">
<title>p30</title>
<ellipse fill="#000000" stroke="#000000" cx="251.0128" cy="-307.2" rx="3.6" ry="3.6"/>
</g>
<!-- p30&#45;&gt;p31 -->
<g id="edge29" class="edge">
<title>p30-&gt;p31</title>
<path fill="none" stroke="#000000" d="M249.9897,-303.4401C248.3956,-297.5818 245.2406,-285.9871 242.7205,-276.7259"/>
<polygon fill="#000000" stroke="#000000" points="246.0362,-275.5806 240.0334,-266.8504 239.2818,-277.4186 246.0362,-275.5806"/>
</g>
<!-- p33 -->
<g id="node34" class="node">
<title>p33</title>
<ellipse fill="none" stroke="#000000" cx="239.0128" cy="-131.6" rx="144.6764" ry="18"/>
<text text-anchor="middle" x="239.0128" y="-127.4" font-family="Times,serif" font-size="14.00" fill="#000000">scenic:SCENIC_WF:VISUALIZE</text>
</g>
<!-- p32&#45;&gt;p33 -->
<g id="edge31" class="edge">
<title>p32-&gt;p33</title>
<path fill="none" stroke="#000000" d="M239.0128,-186.5551C239.0128,-178.4828 239.0128,-168.7764 239.0128,-159.7817"/>
<polygon fill="#000000" stroke="#000000" points="242.5129,-159.6903 239.0128,-149.6904 235.5129,-159.6904 242.5129,-159.6903"/>
</g>
<!-- p34 -->
<g id="node35" class="node">
<title>p34</title>
<ellipse fill="none" stroke="#000000" cx="239.0128" cy="-58.6" rx="167.8329" ry="18"/>
<text text-anchor="middle" x="239.0128" y="-54.4" font-family="Times,serif" font-size="14.00" fill="#000000">scenic:SCENIC_WF:PUBLISH_LOOM</text>
</g>
<!-- p33&#45;&gt;p34 -->
<g id="edge32" class="edge">
<title>p33-&gt;p34</title>
<path fill="none" stroke="#000000" d="M239.0128,-113.5551C239.0128,-105.4828 239.0128,-95.7764 239.0128,-86.7817"/>
<polygon fill="#000000" stroke="#000000" points="242.5129,-86.6903 239.0128,-76.6904 235.5129,-86.6904 242.5129,-86.6903"/>
</g>
<!-- p35 -->
<g id="node36" class="node">
<title>p35</title>
<ellipse fill="#000000" stroke="#000000" cx="239.0128" cy="-1.8" rx="1.8" ry="1.8"/>
</g>
<!-- p34&#45;&gt;p35 -->
<g id="edge33" class="edge">
<title>p34-&gt;p35</title>
<path fill="none" stroke="#000000" d="M239.0128,-40.3155C239.0128,-31.6139 239.0128,-21.4551 239.0128,-13.756"/>
<polygon fill="#000000" stroke="#000000" points="242.5129,-13.6036 239.0128,-3.6036 235.5129,-13.6037 242.5129,-13.6036"/>
</g>
</g>
</svg>