<?xml version="1.0" encoding="UTF-8" standalone="no"?>
<!DOCTYPE svg PUBLIC "-//W3C//DTD SVG 1.1//EN"
 "http://www.w3.org/Graphics/SVG/1.1/DTD/svg11.dtd">
<!-- Generated by graphviz version 2.44.0 (0)
 -->
<!-- Title: pipeline_dag Pages: 1 -->
<svg width="3124pt" height="1493pt"
 viewBox="0.00 0.00 3123.86 1493.20" xmlns="http://www.w3.org/2000/svg" xmlns:xlink="http://www.w3.org/1999/xlink">
<g id="graph0" class="graph" transform="scale(1 1) rotate(0) translate(4 1489.2)">
<title>pipeline_dag</title>
<polygon fill="white" stroke="transparent" points="-4,4 -4,-1489.2 3119.86,-1489.2 3119.86,4 -4,4"/>
<!-- p0 -->
<g id="node1" class="node">
<title>p0</title>
<ellipse fill="black" stroke="black" cx="1963.46" cy="-1466.6" rx="3.6" ry="3.6"/>
<text text-anchor="middle" x="1912.86" y="-1474" font-family="Times-Roman" font-size="14.00">Channel.from</text>
</g>
<!-- p1 -->
<g id="node2" class="node">
<title>p1</title>
<ellipse fill="none" stroke="black" cx="1963.46" cy="-1394" rx="3.5" ry="3.5"/>
<text text-anchor="middle" x="1943.96" y="-1401.3" font-family="Times-Roman" font-size="14.00">view</text>
</g>
<!-- p0&#45;&gt;p1 -->
<g id="edge1" class="edge">
<title>p0&#45;&gt;p1</title>
<path fill="none" stroke="black" d="M1963.46,-1462.92C1963.46,-1454.01 1963.46,-1424.98 1963.46,-1407.89"/>
<polygon fill="black" stroke="black" points="1966.96,-1407.68 1963.46,-1397.68 1959.96,-1407.68 1966.96,-1407.68"/>
</g>
<!-- p2 -->
<g id="node3" class="node">
<title>p2</title>
<ellipse fill="black" stroke="black" cx="1963.46" cy="-1321.4" rx="1.8" ry="1.8"/>
</g>
<!-- p1&#45;&gt;p2 -->
<g id="edge2" class="edge">
<title>p1&#45;&gt;p2</title>
<path fill="none" stroke="black" d="M1963.46,-1390.32C1963.46,-1381.08 1963.46,-1350.2 1963.46,-1333.45"/>
<polygon fill="black" stroke="black" points="1966.96,-1333.36 1963.46,-1323.36 1959.96,-1333.36 1966.96,-1333.36"/>
</g>
<!-- p3 -->
<g id="node4" class="node">
<title>p3</title>
<ellipse fill="black" stroke="black" cx="1986.46" cy="-1321.4" rx="3.6" ry="3.6"/>
<text text-anchor="middle" x="1929.86" y="-1328.8" font-family="Times-Roman" font-size="14.00">Channel.empty</text>
</g>
<!-- p7 -->
<g id="node5" class="node">
<title>p7</title>
<ellipse fill="none" stroke="black" cx="2009.46" cy="-1263.3" rx="3.5" ry="3.5"/>
<text text-anchor="middle" x="1982.96" y="-1270.6" font-family="Times-Roman" font-size="14.00">concat</text>
</g>
<!-- p3&#45;&gt;p7 -->
<g id="edge3" class="edge">
<title>p3&#45;&gt;p7</title>
<path fill="none" stroke="black" d="M1985.85,-1317.65C1984.62,-1311.46 1982.36,-1296.07 1987.46,-1284.8 1989.84,-1279.52 1994.3,-1274.96 1998.57,-1271.5"/>
<polygon fill="black" stroke="black" points="2000.58,-1274.37 2006.79,-1265.79 1996.58,-1268.62 2000.58,-1274.37"/>
<text text-anchor="middle" x="2002.96" y="-1288.6" font-family="Times-Roman" font-size="14.00">data</text>
</g>
<!-- p8 -->
<g id="node9" class="node">
<title>p8</title>
<ellipse fill="none" stroke="black" cx="1955.46" cy="-1190.8" rx="3.5" ry="3.5"/>
<text text-anchor="middle" x="1924.46" y="-1198.1" font-family="Times-Roman" font-size="14.00">ifEmpty</text>
</g>
<!-- p7&#45;&gt;p8 -->
<g id="edge7" class="edge">
<title>p7&#45;&gt;p8</title>
<path fill="none" stroke="black" d="M2006.07,-1261.48C1998.52,-1259.48 1980.18,-1253.61 1970.46,-1241.8 1961.68,-1231.14 1958.03,-1215.46 1956.52,-1204.51"/>
<polygon fill="black" stroke="black" points="1959.99,-1204.03 1955.55,-1194.41 1953.03,-1204.7 1959.99,-1204.03"/>
<text text-anchor="middle" x="1985.96" y="-1230.6" font-family="Times-Roman" font-size="14.00">data</text>
</g>
<!-- p10 -->
<g id="node11" class="node">
<title>p10</title>
<ellipse fill="none" stroke="black" cx="2001.46" cy="-1190.8" rx="3.5" ry="3.5"/>
<text text-anchor="middle" x="1981.96" y="-1198.1" font-family="Times-Roman" font-size="14.00">view</text>
</g>
<!-- p7&#45;&gt;p10 -->
<g id="edge9" class="edge">
<title>p7&#45;&gt;p10</title>
<path fill="none" stroke="black" d="M2009.15,-1259.62C2008.14,-1250.72 2004.85,-1221.74 2002.92,-1204.67"/>
<polygon fill="black" stroke="black" points="2006.37,-1204.02 2001.76,-1194.48 1999.41,-1204.81 2006.37,-1204.02"/>
<text text-anchor="middle" x="2022.96" y="-1230.6" font-family="Times-Roman" font-size="14.00">data</text>
</g>
<!-- p12 -->
<g id="node13" class="node">
<title>p12</title>
<ellipse fill="none" stroke="black" cx="2298.46" cy="-1190.8" rx="211.46" ry="18"/>
<text text-anchor="middle" x="2298.46" y="-1187.1" font-family="Times-Roman" font-size="14.00">single_sample_seurat:SC__FILE_CONVERTER</text>
</g>
<!-- p7&#45;&gt;p12 -->
<g id="edge11" class="edge">
<title>p7&#45;&gt;p12</title>
<path fill="none" stroke="black" d="M2012.7,-1261.51C2033.07,-1256.54 2144.9,-1229.26 2222.47,-1210.34"/>
<polygon fill="black" stroke="black" points="2223.34,-1213.73 2232.22,-1207.96 2221.68,-1206.93 2223.34,-1213.73"/>
<text text-anchor="middle" x="2169.96" y="-1230.6" font-family="Times-Roman" font-size="14.00">data</text>
</g>
<!-- p4 -->
<g id="node6" class="node">
<title>p4</title>
<ellipse fill="black" stroke="black" cx="2032.46" cy="-1466.6" rx="3.6" ry="3.6"/>
<text text-anchor="middle" x="1966.36" y="-1451.8" font-family="Times-Roman" font-size="14.00">Channel.fromPath</text>
</g>
<!-- p5 -->
<g id="node7" class="node">
<title>p5</title>
<ellipse fill="none" stroke="black" cx="2032.46" cy="-1394" rx="3.5" ry="3.5"/>
<text text-anchor="middle" x="2013.46" y="-1401.3" font-family="Times-Roman" font-size="14.00">map</text>
</g>
<!-- p4&#45;&gt;p5 -->
<g id="edge4" class="edge">
<title>p4&#45;&gt;p5</title>
<path fill="none" stroke="black" d="M2032.46,-1462.92C2032.46,-1454.01 2032.46,-1424.98 2032.46,-1407.89"/>
<polygon fill="black" stroke="black" points="2035.96,-1407.68 2032.46,-1397.68 2028.96,-1407.68 2035.96,-1407.68"/>
</g>
<!-- p6 -->
<g id="node8" class="node">
<title>p6</title>
<ellipse fill="none" stroke="black" cx="2032.46" cy="-1321.4" rx="3.5" ry="3.5"/>
<text text-anchor="middle" x="2013.46" y="-1328.7" font-family="Times-Roman" font-size="14.00">map</text>
</g>
<!-- p5&#45;&gt;p6 -->
<g id="edge5" class="edge">
<title>p5&#45;&gt;p6</title>
<path fill="none" stroke="black" d="M2032.46,-1390.32C2032.46,-1381.41 2032.46,-1352.38 2032.46,-1335.29"/>
<polygon fill="black" stroke="black" points="2035.96,-1335.08 2032.46,-1325.08 2028.96,-1335.08 2035.96,-1335.08"/>
<text text-anchor="middle" x="2078.96" y="-1346.8" font-family="Times-Roman" font-size="14.00">data_channel</text>
</g>
<!-- p6&#45;&gt;p7 -->
<g id="edge6" class="edge">
<title>p6&#45;&gt;p7</title>
<path fill="none" stroke="black" d="M2031.47,-1317.8C2029.23,-1311.89 2023.56,-1297.06 2018.46,-1284.8 2017.26,-1281.91 2015.92,-1278.81 2014.65,-1275.92"/>
<polygon fill="black" stroke="black" points="2017.81,-1274.4 2010.54,-1266.69 2011.41,-1277.24 2017.81,-1274.4"/>
</g>
<!-- p9 -->
<g id="node10" class="node">
<title>p9</title>
<ellipse fill="black" stroke="black" cx="1955.46" cy="-1103.8" rx="1.8" ry="1.8"/>
</g>
<!-- p8&#45;&gt;p9 -->
<g id="edge8" class="edge">
<title>p8&#45;&gt;p9</title>
<path fill="none" stroke="black" d="M1955.46,-1186.97C1955.46,-1175.99 1955.46,-1135.82 1955.46,-1116"/>
<polygon fill="black" stroke="black" points="1958.96,-1115.76 1955.46,-1105.76 1951.96,-1115.76 1958.96,-1115.76"/>
</g>
<!-- p11 -->
<g id="node12" class="node">
<title>p11</title>
<ellipse fill="black" stroke="black" cx="1994.46" cy="-1103.8" rx="1.8" ry="1.8"/>
</g>
<!-- p10&#45;&gt;p11 -->
<g id="edge10" class="edge">
<title>p10&#45;&gt;p11</title>
<path fill="none" stroke="black" d="M2001.22,-1186.97C2000.32,-1175.99 1997.01,-1135.82 1995.38,-1116"/>
<polygon fill="black" stroke="black" points="1998.84,-1115.44 1994.54,-1105.76 1991.87,-1116.01 1998.84,-1115.44"/>
</g>
<!-- p13 -->
<g id="node14" class="node">
<title>p13</title>
<ellipse fill="none" stroke="black" cx="2356.46" cy="-1103.8" rx="341.74" ry="18"/>
<text text-anchor="middle" x="2356.46" y="-1100.1" font-family="Times-Roman" font-size="14.00">single_sample_seurat:SINGLE_SAMPLE:FILTER:SC__SEURAT__CELL_FILTER</text>
</g>
<!-- p12&#45;&gt;p13 -->
<g id="edge12" class="edge">
<title>p12&#45;&gt;p13</title>
<path fill="none" stroke="black" d="M2310.19,-1172.6C2318.45,-1160.5 2329.64,-1144.1 2338.94,-1130.47"/>
<polygon fill="black" stroke="black" points="2341.99,-1132.21 2344.74,-1121.98 2336.21,-1128.26 2341.99,-1132.21"/>
<text text-anchor="middle" x="2346.96" y="-1143.6" font-family="Times-Roman" font-size="14.00">data</text>
</g>
<!-- p14 -->
<g id="node15" class="node">
<title>p14</title>
<ellipse fill="none" stroke="black" cx="2356.46" cy="-1030.8" rx="361.24" ry="18"/>
<text text-anchor="middle" x="2356.46" y="-1027.1" font-family="Times-Roman" font-size="14.00">single_sample_seurat:SINGLE_SAMPLE:FILTER:SC__SEURAT__FEATURE_FILTER</text>
</g>
<!-- p13&#45;&gt;p14 -->
<g id="edge13" class="edge">
<title>p13&#45;&gt;p14</title>
<path fill="none" stroke="black" d="M2356.46,-1085.61C2356.46,-1077.59 2356.46,-1067.85 2356.46,-1058.87"/>
<polygon fill="black" stroke="black" points="2359.96,-1058.83 2356.46,-1048.83 2352.96,-1058.83 2359.96,-1058.83"/>
</g>
<!-- p15 -->
<g id="node16" class="node">
<title>p15</title>
<ellipse fill="none" stroke="black" cx="2356.46" cy="-943.8" rx="387.23" ry="18"/>
<text text-anchor="middle" x="2356.46" y="-940.1" font-family="Times-Roman" font-size="14.00">single_sample_seurat:SINGLE_SAMPLE:NORMALIZE:SC__SEURAT__NORMALIZATION</text>
</g>
<!-- p14&#45;&gt;p15 -->
<g id="edge14" class="edge">
<title>p14&#45;&gt;p15</title>
<path fill="none" stroke="black" d="M2356.46,-1012.6C2356.46,-1000.96 2356.46,-985.35 2356.46,-972.04"/>
<polygon fill="black" stroke="black" points="2359.96,-971.98 2356.46,-961.98 2352.96,-971.98 2359.96,-971.98"/>
<text text-anchor="middle" x="2380.96" y="-983.6" font-family="Times-Roman" font-size="14.00">filtered</text>
</g>
<!-- p16 -->
<g id="node17" class="node">
<title>p16</title>
<ellipse fill="none" stroke="black" cx="2769.46" cy="-856.8" rx="3.5" ry="3.5"/>
<text text-anchor="middle" x="2750.46" y="-864.1" font-family="Times-Roman" font-size="14.00">map</text>
</g>
<!-- p15&#45;&gt;p16 -->
<g id="edge15" class="edge">
<title>p15&#45;&gt;p16</title>
<path fill="none" stroke="black" d="M2437.56,-926.11C2539.78,-905.07 2707.96,-870.46 2756.17,-860.54"/>
<polygon fill="black" stroke="black" points="2756.99,-863.94 2766.08,-858.49 2755.58,-857.08 2756.99,-863.94"/>
<text text-anchor="middle" x="2603.96" y="-896.6" font-family="Times-Roman" font-size="14.00">data</text>
</g>
<!-- p22 -->
<g id="node23" class="node">
<title>p22</title>
<ellipse fill="none" stroke="black" cx="1871.46" cy="-856.8" rx="490.91" ry="18"/>
<text text-anchor="middle" x="1871.46" y="-853.1" font-family="Times-Roman" font-size="14.00">single_sample_seurat:SINGLE_SAMPLE:HVG_SELECTION:SC__SEURAT__FIND_HIGHLY_VARIABLE_FEATURES</text>
</g>
<!-- p15&#45;&gt;p22 -->
<g id="edge21" class="edge">
<title>p15&#45;&gt;p22</title>
<path fill="none" stroke="black" d="M2262.37,-926.31C2180.36,-911.94 2061.55,-891.12 1976.47,-876.2"/>
<polygon fill="black" stroke="black" points="1976.98,-872.74 1966.52,-874.46 1975.77,-879.64 1976.98,-872.74"/>
<text text-anchor="middle" x="2158.96" y="-896.6" font-family="Times-Roman" font-size="14.00">data</text>
</g>
<!-- p20 -->
<g id="node18" class="node">
<title>p20</title>
<ellipse fill="none" stroke="black" cx="2639.46" cy="-769.8" rx="476.32" ry="18"/>
<text text-anchor="middle" x="2639.46" y="-766.1" font-family="Times-Roman" font-size="14.00">single_sample_seurat:SINGLE_SAMPLE:NORMALIZE:PUBLISH_SEURAT_RDS_NORMALIZED:SC__PUBLISH</text>
</g>
<!-- p16&#45;&gt;p20 -->
<g id="edge16" class="edge">
<title>p16&#45;&gt;p20</title>
<path fill="none" stroke="black" d="M2772.66,-855.37C2791.64,-852.7 2887.5,-837.46 2860.46,-805.8 2854.77,-799.14 2844.23,-793.74 2830.72,-789.36"/>
<polygon fill="black" stroke="black" points="2831.5,-785.94 2820.92,-786.49 2829.53,-792.66 2831.5,-785.94"/>
</g>
<!-- p21 -->
<g id="node22" class="node">
<title>p21</title>
<ellipse fill="black" stroke="black" cx="2639.46" cy="-697.2" rx="1.8" ry="1.8"/>
</g>
<!-- p20&#45;&gt;p21 -->
<g id="edge20" class="edge">
<title>p20&#45;&gt;p21</title>
<path fill="none" stroke="black" d="M2639.46,-751.71C2639.46,-738.54 2639.46,-720.72 2639.46,-709.34"/>
<polygon fill="black" stroke="black" points="2642.96,-709.02 2639.46,-699.02 2635.96,-709.02 2642.96,-709.02"/>
</g>
<!-- p17 -->
<g id="node19" class="node">
<title>p17</title>
<ellipse fill="black" stroke="black" cx="2415.46" cy="-856.8" rx="3.6" ry="3.6"/>
</g>
<!-- p17&#45;&gt;p20 -->
<g id="edge17" class="edge">
<title>p17&#45;&gt;p20</title>
<path fill="none" stroke="black" d="M2416.19,-852.96C2418.58,-844.29 2427.04,-818.01 2444.46,-805.8 2453.86,-799.21 2471.62,-793.67 2492.75,-789.09"/>
<polygon fill="black" stroke="black" points="2493.58,-792.5 2502.67,-787.06 2492.17,-785.64 2493.58,-792.5"/>
<text text-anchor="middle" x="2499.96" y="-809.6" font-family="Times-Roman" font-size="14.00">fileOutputSuffix</text>
</g>
<!-- p18 -->
<g id="node20" class="node">
<title>p18</title>
<ellipse fill="black" stroke="black" cx="2549.46" cy="-856.8" rx="3.6" ry="3.6"/>
</g>
<!-- p18&#45;&gt;p20 -->
<g id="edge18" class="edge">
<title>p18&#45;&gt;p20</title>
<path fill="none" stroke="black" d="M2549.77,-853.17C2550.87,-845.1 2555.21,-820.36 2568.46,-805.8 2572.76,-801.06 2577.86,-796.89 2583.3,-793.23"/>
<polygon fill="black" stroke="black" points="2585.36,-796.08 2592.1,-787.91 2581.73,-790.1 2585.36,-796.08"/>
<text text-anchor="middle" x="2601.96" y="-809.6" font-family="Times-Roman" font-size="14.00">toolName</text>
</g>
<!-- p19 -->
<g id="node21" class="node">
<title>p19</title>
<ellipse fill="black" stroke="black" cx="2639.46" cy="-856.8" rx="3.6" ry="3.6"/>
</g>
<!-- p19&#45;&gt;p20 -->
<g id="edge19" class="edge">
<title>p19&#45;&gt;p20</title>
<path fill="none" stroke="black" d="M2639.46,-852.97C2639.46,-844.48 2639.46,-818.55 2639.46,-798.07"/>
<polygon fill="black" stroke="black" points="2642.96,-797.97 2639.46,-787.97 2635.96,-797.97 2642.96,-797.97"/>
<text text-anchor="middle" x="2749.46" y="-809.6" font-family="Times-Roman" font-size="14.00">isParameterExplorationModeOn</text>
</g>
<!-- p23 -->
<g id="node24" class="node">
<title>p23</title>
<ellipse fill="none" stroke="black" cx="1773.46" cy="-769.8" rx="371.53" ry="18"/>
<text text-anchor="middle" x="1773.46" y="-766.1" font-family="Times-Roman" font-size="14.00">single_sample_seurat:SINGLE_SAMPLE:HVG_SELECTION:SC__SEURAT__SCALING</text>
</g>
<!-- p22&#45;&gt;p23 -->
<g id="edge22" class="edge">
<title>p22&#45;&gt;p23</title>
<path fill="none" stroke="black" d="M1851.62,-838.6C1837.01,-825.93 1816.96,-808.53 1800.82,-794.54"/>
<polygon fill="black" stroke="black" points="1803.11,-791.88 1793.26,-787.98 1798.52,-797.17 1803.11,-791.88"/>
</g>
<!-- p24 -->
<g id="node25" class="node">
<title>p24</title>
<ellipse fill="none" stroke="black" cx="2123.46" cy="-697.2" rx="3.5" ry="3.5"/>
<text text-anchor="middle" x="2104.46" y="-704.5" font-family="Times-Roman" font-size="14.00">map</text>
</g>
<!-- p23&#45;&gt;p24 -->
<g id="edge23" class="edge">
<title>p23&#45;&gt;p24</title>
<path fill="none" stroke="black" d="M1855.96,-752.16C1941.86,-734.83 2069.47,-709.09 2110.36,-700.84"/>
<polygon fill="black" stroke="black" points="2111.16,-704.25 2120.27,-698.84 2109.77,-697.39 2111.16,-704.25"/>
<text text-anchor="middle" x="2035.96" y="-722.6" font-family="Times-Roman" font-size="14.00">data</text>
</g>
<!-- p30 -->
<g id="node31" class="node">
<title>p30</title>
<ellipse fill="none" stroke="black" cx="1700.46" cy="-697.2" rx="3.5" ry="3.5"/>
<text text-anchor="middle" x="1681.46" y="-704.5" font-family="Times-Roman" font-size="14.00">map</text>
</g>
<!-- p23&#45;&gt;p30 -->
<g id="edge29" class="edge">
<title>p23&#45;&gt;p30</title>
<path fill="none" stroke="black" d="M1755.79,-751.71C1741.4,-737.8 1721.65,-718.69 1710.05,-707.47"/>
<polygon fill="black" stroke="black" points="1712.37,-704.86 1702.75,-700.42 1707.51,-709.89 1712.37,-704.86"/>
<text text-anchor="middle" x="1752.96" y="-722.6" font-family="Times-Roman" font-size="14.00">data</text>
</g>
<!-- p28 -->
<g id="node26" class="node">
<title>p28</title>
<ellipse fill="none" stroke="black" cx="2206.46" cy="-624.6" rx="471.72" ry="18"/>
<text text-anchor="middle" x="2206.46" y="-620.9" font-family="Times-Roman" font-size="14.00">single_sample_seurat:SINGLE_SAMPLE:HVG_SELECTION:PUBLISH_SEURAT_RDS_SCALED:SC__PUBLISH</text>
</g>
<!-- p24&#45;&gt;p28 -->
<g id="edge24" class="edge">
<title>p24&#45;&gt;p28</title>
<path fill="none" stroke="black" d="M2126.25,-694.95C2132.54,-692.08 2148.15,-684.52 2159.46,-675.6 2168.77,-668.25 2177.94,-659.06 2185.68,-650.57"/>
<polygon fill="black" stroke="black" points="2188.34,-652.85 2192.34,-643.04 2183.09,-648.21 2188.34,-652.85"/>
</g>
<!-- p29 -->
<g id="node30" class="node">
<title>p29</title>
<ellipse fill="black" stroke="black" cx="2206.46" cy="-537.6" rx="1.8" ry="1.8"/>
</g>
<!-- p28&#45;&gt;p29 -->
<g id="edge28" class="edge">
<title>p28&#45;&gt;p29</title>
<path fill="none" stroke="black" d="M2206.46,-606.4C2206.46,-589.52 2206.46,-564.26 2206.46,-549.82"/>
<polygon fill="black" stroke="black" points="2209.96,-549.68 2206.46,-539.68 2202.96,-549.68 2209.96,-549.68"/>
</g>
<!-- p25 -->
<g id="node27" class="node">
<title>p25</title>
<ellipse fill="black" stroke="black" cx="2047.46" cy="-697.2" rx="3.6" ry="3.6"/>
</g>
<!-- p25&#45;&gt;p28 -->
<g id="edge25" class="edge">
<title>p25&#45;&gt;p28</title>
<path fill="none" stroke="black" d="M2046.15,-693.61C2043.13,-687.21 2036.51,-670.45 2044.46,-660.6 2049.49,-654.37 2059.98,-649.19 2073.34,-644.91"/>
<polygon fill="black" stroke="black" points="2074.39,-648.25 2083.01,-642.08 2072.43,-641.53 2074.39,-648.25"/>
<text text-anchor="middle" x="2099.96" y="-664.4" font-family="Times-Roman" font-size="14.00">fileOutputSuffix</text>
</g>
<!-- p26 -->
<g id="node28" class="node">
<title>p26</title>
<ellipse fill="black" stroke="black" cx="2206.46" cy="-697.2" rx="3.6" ry="3.6"/>
</g>
<!-- p26&#45;&gt;p28 -->
<g id="edge26" class="edge">
<title>p26&#45;&gt;p28</title>
<path fill="none" stroke="black" d="M2206.46,-693.52C2206.46,-686.85 2206.46,-668.9 2206.46,-653.13"/>
<polygon fill="black" stroke="black" points="2209.96,-652.73 2206.46,-642.73 2202.96,-652.73 2209.96,-652.73"/>
<text text-anchor="middle" x="2239.96" y="-664.4" font-family="Times-Roman" font-size="14.00">toolName</text>
</g>
<!-- p27 -->
<g id="node29" class="node">
<title>p27</title>
<ellipse fill="black" stroke="black" cx="2296.46" cy="-697.2" rx="3.6" ry="3.6"/>
</g>
<!-- p27&#45;&gt;p28 -->
<g id="edge27" class="edge">
<title>p27&#45;&gt;p28</title>
<path fill="none" stroke="black" d="M2295.45,-693.64C2292.85,-687.29 2285.34,-670.66 2274.46,-660.6 2269.35,-655.88 2263.48,-651.62 2257.38,-647.84"/>
<polygon fill="black" stroke="black" points="2258.75,-644.59 2248.34,-642.63 2255.26,-650.65 2258.75,-644.59"/>
<text text-anchor="middle" x="2396.46" y="-664.4" font-family="Times-Roman" font-size="14.00">isParameterExplorationModeOn</text>
</g>
<!-- p31 -->
<g id="node32" class="node">
<title>p31</title>
<ellipse fill="none" stroke="black" cx="1258.46" cy="-624.6" rx="458.42" ry="18"/>
<text text-anchor="middle" x="1258.46" y="-620.9" font-family="Times-Roman" font-size="14.00">single_sample_seurat:SINGLE_SAMPLE:DIM_REDUCTION_PCA:SC__SEURAT__DIM_REDUCTION__PCA</text>
</g>
<!-- p30&#45;&gt;p31 -->
<g id="edge30" class="edge">
<title>p30&#45;&gt;p31</title>
<path fill="none" stroke="black" d="M1697.15,-695.67C1670.86,-691.47 1493.3,-663.11 1372.3,-643.78"/>
<polygon fill="black" stroke="black" points="1372.66,-640.3 1362.23,-642.18 1371.55,-647.21 1372.66,-640.3"/>
</g>
<!-- p32 -->
<g id="node33" class="node">
<title>p32</title>
<ellipse fill="none" stroke="black" cx="1258.46" cy="-537.6" rx="482.01" ry="18"/>
<text text-anchor="middle" x="1258.46" y="-533.9" font-family="Times-Roman" font-size="14.00">single_sample_seurat:SINGLE_SAMPLE:NEIGHBORHOOD_GRAPH:SC__SEURAT__NEIGHBORHOOD_GRAPH</text>
</g>
<!-- p31&#45;&gt;p32 -->
<g id="edge31" class="edge">
<title>p31&#45;&gt;p32</title>
<path fill="none" stroke="black" d="M1258.46,-606.4C1258.46,-594.76 1258.46,-579.15 1258.46,-565.84"/>
<polygon fill="black" stroke="black" points="1261.96,-565.78 1258.46,-555.78 1254.96,-565.78 1261.96,-565.78"/>
<text text-anchor="middle" x="1273.96" y="-577.4" font-family="Times-Roman" font-size="14.00">data</text>
</g>
<!-- p33 -->
<g id="node34" class="node">
<title>p33</title>
<ellipse fill="none" stroke="black" cx="1258.46" cy="-450.6" rx="500.41" ry="18"/>
<text text-anchor="middle" x="1258.46" y="-446.9" font-family="Times-Roman" font-size="14.00">single_sample_seurat:SINGLE_SAMPLE:DIM_REDUCTION_TSNE_UMAP:SC__SEURAT__DIM_REDUCTION__TSNE</text>
</g>
<!-- p32&#45;&gt;p33 -->
<g id="edge32" class="edge">
<title>p32&#45;&gt;p33</title>
<path fill="none" stroke="black" d="M1258.46,-519.4C1258.46,-507.76 1258.46,-492.15 1258.46,-478.84"/>
<polygon fill="black" stroke="black" points="1261.96,-478.78 1258.46,-468.78 1254.96,-478.78 1261.96,-478.78"/>
<text text-anchor="middle" x="1273.96" y="-490.4" font-family="Times-Roman" font-size="14.00">data</text>
</g>
<!-- p34 -->
<g id="node35" class="node">
<title>p34</title>
<ellipse fill="none" stroke="black" cx="996.46" cy="-377.6" rx="503.11" ry="18"/>
<text text-anchor="middle" x="996.46" y="-373.9" font-family="Times-Roman" font-size="14.00">single_sample_seurat:SINGLE_SAMPLE:DIM_REDUCTION_TSNE_UMAP:SC__SEURAT__DIM_REDUCTION__UMAP</text>
</g>
<!-- p33&#45;&gt;p34 -->
<g id="edge33" class="edge">
<title>p33&#45;&gt;p34</title>
<path fill="none" stroke="black" d="M1196.03,-432.68C1157.72,-422.3 1108.51,-408.97 1068.54,-398.13"/>
<polygon fill="black" stroke="black" points="1069.42,-394.75 1058.85,-395.51 1067.59,-401.5 1069.42,-394.75"/>
</g>
<!-- p35 -->
<g id="node37" class="node">
<title>p35</title>
<ellipse fill="none" stroke="black" cx="1521.46" cy="-377.6" rx="3.5" ry="3.5"/>
<text text-anchor="middle" x="1533.46" y="-384.9" font-family="Times-Roman" font-size="14.00">map</text>
</g>
<!-- p33&#45;&gt;p35 -->
<g id="edge35" class="edge">
<title>p33&#45;&gt;p35</title>
<path fill="none" stroke="black" d="M1414.81,-433.46C1447.45,-425.38 1480.43,-413.38 1508.46,-395.6 1510.89,-394.05 1513.05,-391.88 1514.86,-389.61"/>
<polygon fill="black" stroke="black" points="1517.92,-391.33 1520.32,-381.01 1512.01,-387.58 1517.92,-391.33"/>
</g>
<!-- p37 -->
<g id="node36" class="node">
<title>p37</title>
<ellipse fill="none" stroke="black" cx="996.46" cy="-305.1" rx="3.5" ry="3.5"/>
<text text-anchor="middle" x="977.46" y="-312.4" font-family="Times-Roman" font-size="14.00">map</text>
</g>
<!-- p34&#45;&gt;p37 -->
<g id="edge34" class="edge">
<title>p34&#45;&gt;p37</title>
<path fill="none" stroke="black" d="M996.46,-359.53C996.46,-346.98 996.46,-330.19 996.46,-318.8"/>
<polygon fill="black" stroke="black" points="999.96,-318.76 996.46,-308.76 992.96,-318.76 999.96,-318.76"/>
</g>
<!-- p38 -->
<g id="node39" class="node">
<title>p38</title>
<ellipse fill="none" stroke="black" cx="996.46" cy="-232.6" rx="371.23" ry="18"/>
<text text-anchor="middle" x="996.46" y="-228.9" font-family="Times-Roman" font-size="14.00">single_sample_seurat:SINGLE_SAMPLE:CLUSTERING:SC__SEURAT__CLUSTERING</text>
</g>
<!-- p37&#45;&gt;p38 -->
<g id="edge37" class="edge">
<title>p37&#45;&gt;p38</title>
<path fill="none" stroke="black" d="M996.46,-301.42C996.46,-294.76 996.46,-276.84 996.46,-261.09"/>
<polygon fill="black" stroke="black" points="999.96,-260.7 996.46,-250.7 992.96,-260.7 999.96,-260.7"/>
<text text-anchor="middle" x="1011.96" y="-272.4" font-family="Times-Roman" font-size="14.00">data</text>
</g>
<!-- p36 -->
<g id="node38" class="node">
<title>p36</title>
<ellipse fill="black" stroke="black" cx="1521.46" cy="-305.1" rx="1.8" ry="1.8"/>
</g>
<!-- p35&#45;&gt;p36 -->
<g id="edge36" class="edge">
<title>p35&#45;&gt;p36</title>
<path fill="none" stroke="black" d="M1521.46,-373.92C1521.46,-364.69 1521.46,-333.86 1521.46,-317.13"/>
<polygon fill="black" stroke="black" points="1524.96,-317.06 1521.46,-307.06 1517.96,-317.06 1524.96,-317.06"/>
<text text-anchor="middle" x="1564.46" y="-330.4" font-family="Times-Roman" font-size="14.00">dimred_tsne</text>
</g>
<!-- p39 -->
<g id="node40" class="node">
<title>p39</title>
<ellipse fill="none" stroke="black" cx="487.46" cy="-145.6" rx="487.41" ry="18"/>
<text text-anchor="middle" x="487.46" y="-141.9" font-family="Times-Roman" font-size="14.00">single_sample_seurat:SINGLE_SAMPLE:DIFFERENTIAL_GENE_EXPRESSION:SC__SEURAT__MARKER_GENES</text>
</g>
<!-- p38&#45;&gt;p39 -->
<g id="edge38" class="edge">
<title>p38&#45;&gt;p39</title>
<path fill="none" stroke="black" d="M898.32,-215.21C812,-200.8 686.5,-179.84 596.95,-164.88"/>
<polygon fill="black" stroke="black" points="597.47,-161.42 587.03,-163.23 596.32,-168.33 597.47,-161.42"/>
<text text-anchor="middle" x="787.96" y="-185.4" font-family="Times-Roman" font-size="14.00">data</text>
</g>
<!-- p44 -->
<g id="node45" class="node">
<title>p44</title>
<ellipse fill="none" stroke="black" cx="1620.46" cy="-145.6" rx="3.5" ry="3.5"/>
<text text-anchor="middle" x="1601.46" y="-152.9" font-family="Times-Roman" font-size="14.00">map</text>
</g>
<!-- p38&#45;&gt;p44 -->
<g id="edge42" class="edge">
<title>p38&#45;&gt;p44</title>
<path fill="none" stroke="black" d="M1118.67,-215.59C1221.4,-202.04 1372.07,-181.95 1503.46,-163.6 1541.01,-158.35 1585.28,-151.83 1607.03,-148.6"/>
<polygon fill="black" stroke="black" points="1607.83,-152.02 1617.2,-147.09 1606.8,-145.1 1607.83,-152.02"/>
<text text-anchor="middle" x="1379.96" y="-185.4" font-family="Times-Roman" font-size="14.00">data</text>
</g>
<!-- p52 -->
<g id="node53" class="node">
<title>p52</title>
<ellipse fill="none" stroke="black" cx="996.46" cy="-145.6" rx="3.5" ry="3.5"/>
<text text-anchor="middle" x="1008.46" y="-152.9" font-family="Times-Roman" font-size="14.00">map</text>
</g>
<!-- p38&#45;&gt;p52 -->
<g id="edge49" class="edge">
<title>p38&#45;&gt;p52</title>
<path fill="none" stroke="black" d="M996.46,-214.4C996.46,-198.21 996.46,-174.31 996.46,-159.64"/>
<polygon fill="black" stroke="black" points="999.96,-159.24 996.46,-149.24 992.96,-159.24 999.96,-159.24"/>
<text text-anchor="middle" x="1011.96" y="-185.4" font-family="Times-Roman" font-size="14.00">data</text>
</g>
<!-- p40 -->
<g id="node41" class="node">
<title>p40</title>
<ellipse fill="black" stroke="black" cx="487.46" cy="-58.6" rx="1.8" ry="1.8"/>
</g>
<!-- p39&#45;&gt;p40 -->
<g id="edge39" class="edge">
<title>p39&#45;&gt;p40</title>
<path fill="none" stroke="black" d="M487.46,-127.4C487.46,-110.52 487.46,-85.26 487.46,-70.82"/>
<polygon fill="black" stroke="black" points="490.96,-70.68 487.46,-60.68 483.96,-70.68 490.96,-70.68"/>
</g>
<!-- p41 -->
<g id="node42" class="node">
<title>p41</title>
<ellipse fill="black" stroke="black" cx="2463.46" cy="-1466.6" rx="3.6" ry="3.6"/>
</g>
<!-- p42 -->
<g id="node43" class="node">
<title>p42</title>
<ellipse fill="none" stroke="black" cx="2463.46" cy="-1394" rx="409.43" ry="18"/>
<text text-anchor="middle" x="2463.46" y="-1390.3" font-family="Times-Roman" font-size="14.00">single_sample_seurat:SINGLE_SAMPLE:UTILS__GENERATE_WORKFLOW_CONFIG_REPORT</text>
</g>
<!-- p41&#45;&gt;p42 -->
<g id="edge40" class="edge">
<title>p41&#45;&gt;p42</title>
<path fill="none" stroke="black" d="M2463.46,-1462.92C2463.46,-1456.25 2463.46,-1438.3 2463.46,-1422.53"/>
<polygon fill="black" stroke="black" points="2466.96,-1422.13 2463.46,-1412.13 2459.96,-1422.13 2466.96,-1422.13"/>
<text text-anchor="middle" x="2483.46" y="-1433.8" font-family="Times-Roman" font-size="14.00">ipynb</text>
</g>
<!-- p43 -->
<g id="node44" class="node">
<title>p43</title>
<ellipse fill="black" stroke="black" cx="2463.46" cy="-1321.4" rx="1.8" ry="1.8"/>
</g>
<!-- p42&#45;&gt;p43 -->
<g id="edge41" class="edge">
<title>p42&#45;&gt;p43</title>
<path fill="none" stroke="black" d="M2463.46,-1375.91C2463.46,-1362.74 2463.46,-1344.92 2463.46,-1333.54"/>
<polygon fill="black" stroke="black" points="2466.96,-1333.22 2463.46,-1323.22 2459.96,-1333.22 2466.96,-1333.22"/>
</g>
<!-- p48 -->
<g id="node46" class="node">
<title>p48</title>
<ellipse fill="none" stroke="black" cx="1725.46" cy="-58.6" rx="289.45" ry="18"/>
<text text-anchor="middle" x="1725.46" y="-54.9" font-family="Times-Roman" font-size="14.00">single_sample_seurat:SINGLE_SAMPLE:PUBLISH:SC__PUBLISH</text>
</g>
<!-- p44&#45;&gt;p48 -->
<g id="edge43" class="edge">
<title>p44&#45;&gt;p48</title>
<path fill="none" stroke="black" d="M1623.86,-144.35C1637.2,-143.19 1686.39,-137.14 1711.46,-109.6 1717.17,-103.32 1720.58,-94.89 1722.6,-86.74"/>
<polygon fill="black" stroke="black" points="1726.07,-87.23 1724.49,-76.76 1719.19,-85.93 1726.07,-87.23"/>
</g>
<!-- p49 -->
<g id="node50" class="node">
<title>p49</title>
<ellipse fill="black" stroke="black" cx="1725.46" cy="-1.8" rx="1.8" ry="1.8"/>
</g>
<!-- p48&#45;&gt;p49 -->
<g id="edge47" class="edge">
<title>p48&#45;&gt;p49</title>
<path fill="none" stroke="black" d="M1725.46,-40.56C1725.46,-31.87 1725.46,-21.56 1725.46,-13.9"/>
<polygon fill="black" stroke="black" points="1728.96,-13.76 1725.46,-3.76 1721.96,-13.76 1728.96,-13.76"/>
</g>
<!-- p45 -->
<g id="node47" class="node">
<title>p45</title>
<ellipse fill="black" stroke="black" cx="1758.46" cy="-145.6" rx="3.6" ry="3.6"/>
</g>
<!-- p45&#45;&gt;p48 -->
<g id="edge44" class="edge">
<title>p45&#45;&gt;p48</title>
<path fill="none" stroke="black" d="M1757.36,-141.77C1754.03,-133.21 1743.81,-106.88 1735.82,-86.3"/>
<polygon fill="black" stroke="black" points="1739,-84.82 1732.12,-76.77 1732.48,-87.36 1739,-84.82"/>
<text text-anchor="middle" x="1799.96" y="-98.4" font-family="Times-Roman" font-size="14.00">fileOutputSuffix</text>
</g>
<!-- p46 -->
<g id="node48" class="node">
<title>p46</title>
<ellipse fill="black" stroke="black" cx="1400.46" cy="-145.6" rx="3.6" ry="3.6"/>
</g>
<!-- p46&#45;&gt;p48 -->
<g id="edge45" class="edge">
<title>p46&#45;&gt;p48</title>
<path fill="none" stroke="black" d="M1400.08,-141.79C1399.1,-133.22 1397.45,-107.2 1411.46,-94.6 1421.31,-85.73 1468.52,-78.57 1523.46,-73.09"/>
<polygon fill="black" stroke="black" points="1523.82,-76.57 1533.43,-72.12 1523.14,-69.6 1523.82,-76.57"/>
<text text-anchor="middle" x="1444.96" y="-98.4" font-family="Times-Roman" font-size="14.00">toolName</text>
</g>
<!-- p47 -->
<g id="node49" class="node">
<title>p47</title>
<ellipse fill="black" stroke="black" cx="1490.46" cy="-145.6" rx="3.6" ry="3.6"/>
</g>
<!-- p47&#45;&gt;p48 -->
<g id="edge46" class="edge">
<title>p47&#45;&gt;p48</title>
<path fill="none" stroke="black" d="M1489.15,-141.91C1485.37,-133.69 1475.41,-108.55 1487.46,-94.6 1494.78,-86.12 1509.5,-79.65 1528.19,-74.73"/>
<polygon fill="black" stroke="black" points="1529.09,-78.12 1537.99,-72.37 1527.45,-71.31 1529.09,-78.12"/>
<text text-anchor="middle" x="1597.46" y="-98.4" font-family="Times-Roman" font-size="14.00">isParameterExplorationModeOn</text>
</g>
<!-- p50 -->
<g id="node51" class="node">
<title>p50</title>
<ellipse fill="black" stroke="black" cx="2892.46" cy="-1466.6" rx="3.6" ry="3.6"/>
<text text-anchor="middle" x="2835.86" y="-1474" font-family="Times-Roman" font-size="14.00">Channel.empty</text>
</g>
<!-- p51 -->
<g id="node52" class="node">
<title>p51</title>
<ellipse fill="black" stroke="black" cx="2892.46" cy="-1394" rx="1.8" ry="1.8"/>
</g>
<!-- p50&#45;&gt;p51 -->
<g id="edge48" class="edge">
<title>p50&#45;&gt;p51</title>
<path fill="none" stroke="black" d="M2892.46,-1462.92C2892.46,-1453.68 2892.46,-1422.8 2892.46,-1406.05"/>
<polygon fill="black" stroke="black" points="2895.96,-1405.96 2892.46,-1395.96 2888.96,-1405.96 2895.96,-1405.96"/>
<text text-anchor="middle" x="2903.96" y="-1433.8" font-family="Times-Roman" font-size="14.00">out</text>
</g>
<!-- p53 -->
<g id="node54" class="node">
<title>p53</title>
<ellipse fill="none" stroke="black" cx="967.46" cy="-58.6" rx="450.32" ry="18"/>
<text text-anchor="middle" x="967.46" y="-54.9" font-family="Times-Roman" font-size="14.00">single_sample_seurat:SINGLE_SAMPLE:FILE_CONVERTER_TO_SCOPE:SC__SEURAT_RDS_TO_LOOM</text>
</g>
<!-- p52&#45;&gt;p53 -->
<g id="edge50" class="edge">
<title>p52&#45;&gt;p53</title>
<path fill="none" stroke="black" d="M995.62,-142.15C992.84,-134.01 983.7,-107.21 976.58,-86.33"/>
<polygon fill="black" stroke="black" points="979.82,-85 973.28,-76.67 973.2,-87.26 979.82,-85"/>
</g>
<!-- p54 -->
<g id="node55" class="node">
<title>p54</title>
<ellipse fill="black" stroke="black" cx="967.46" cy="-1.8" rx="1.8" ry="1.8"/>
</g>
<!-- p53&#45;&gt;p54 -->
<g id="edge51" class="edge">
<title>p53&#45;&gt;p54</title>
<path fill="none" stroke="black" d="M967.46,-40.56C967.46,-31.87 967.46,-21.56 967.46,-13.9"/>
<polygon fill="black" stroke="black" points="970.96,-13.76 967.46,-3.76 963.96,-13.76 970.96,-13.76"/>
</g>
</g>
</svg>
