<?xml version="1.0" encoding="UTF-8" standalone="no"?><!DOCTYPE svg PUBLIC "-//W3C//DTD SVG 1.1//EN" "http://www.w3.org/Graphics/SVG/1.1/DTD/svg11.dtd"><!-- Generated by graphviz version 2.40.1 (20161225.0304)
 --><!-- Title: pipeline_dag Pages: 1 --><svg xmlns="http://www.w3.org/2000/svg" xmlns:xlink="http://www.w3.org/1999/xlink" width="4158pt" height="1487pt" viewBox="0.00 0.00 4157.59 1486.80">
<g id="graph0" class="graph" transform="scale(1 1) rotate(0) translate(4 1482.8)">
<title>pipeline_dag</title>
<polygon fill="#ffffff" stroke="transparent" points="-4,4 -4,-1482.8 4153.5895,-1482.8 4153.5895,4 -4,4"/>
<!-- p0 -->
<g id="node1" class="node">
<title>p0</title>
<ellipse fill="#000000" stroke="#000000" cx="2745.5552" cy="-1458.4" rx="3.6" ry="3.6"/>
<text text-anchor="middle" x="2690.8272" y="-1466.2" font-family="Times,serif" font-size="14.00" fill="#000000">Channel.fromPath</text>
</g>
<!-- p1 -->
<g id="node2" class="node">
<title>p1</title>
<ellipse fill="none" stroke="#000000" cx="2745.5552" cy="-1414.3" rx="3.5" ry="3.5"/>
<text text-anchor="middle" x="2730.0026" y="-1422" font-family="Times,serif" font-size="14.00" fill="#000000">map</text>
</g>
<!-- p0&#45;&gt;p1 -->
<g id="edge1" class="edge">
<title>p0-&gt;p1</title>
<path fill="none" stroke="#000000" d="M2745.5552,-1454.6401C2745.5552,-1448.8469 2745.5552,-1437.444 2745.5552,-1428.2354"/>
<polygon fill="#000000" stroke="#000000" points="2749.0553,-1428.0504 2745.5552,-1418.0504 2742.0553,-1428.0505 2749.0553,-1428.0504"/>
</g>
<!-- p2 -->
<g id="node3" class="node">
<title>p2</title>
<ellipse fill="none" stroke="#000000" cx="2745.5552" cy="-1340" rx="307.3007" ry="18"/>
<text text-anchor="middle" x="2745.5552" y="-1335.8" font-family="Times,serif" font-size="14.00" fill="#000000">single_sample:SINGLE_SAMPLE:QC_FILTER:SC__FILE_CONVERTER</text>
</g>
<!-- p1&#45;&gt;p2 -->
<g id="edge2" class="edge">
<title>p1-&gt;p2</title>
<path fill="none" stroke="#000000" d="M2745.5552,-1410.7164C2745.5552,-1403.0595 2745.5552,-1384.4817 2745.5552,-1368.289"/>
<polygon fill="#000000" stroke="#000000" points="2749.0553,-1368.1312 2745.5552,-1358.1313 2742.0553,-1368.1313 2749.0553,-1368.1312"/>
<text text-anchor="middle" x="2757.2151" y="-1380.2" font-family="Times,serif" font-size="14.00" fill="#000000">data</text>
</g>
<!-- p3 -->
<g id="node4" class="node">
<title>p3</title>
<ellipse fill="none" stroke="#000000" cx="2745.5552" cy="-1267" rx="370.4282" ry="18"/>
<text text-anchor="middle" x="2745.5552" y="-1262.8" font-family="Times,serif" font-size="14.00" fill="#000000">single_sample:SINGLE_SAMPLE:QC_FILTER:SC__SCANPY__COMPUTE_QC_STATS</text>
</g>
<!-- p2&#45;&gt;p3 -->
<g id="edge3" class="edge">
<title>p2-&gt;p3</title>
<path fill="none" stroke="#000000" d="M2745.5552,-1321.9551C2745.5552,-1313.8828 2745.5552,-1304.1764 2745.5552,-1295.1817"/>
<polygon fill="#000000" stroke="#000000" points="2749.0553,-1295.0903 2745.5552,-1285.0904 2742.0553,-1295.0904 2749.0553,-1295.0903"/>
</g>
<!-- p4 -->
<g id="node5" class="node">
<title>p4</title>
<ellipse fill="none" stroke="#000000" cx="2502.5552" cy="-1178.2" rx="335.0926" ry="18"/>
<text text-anchor="middle" x="2502.5552" y="-1174" font-family="Times,serif" font-size="14.00" fill="#000000">single_sample:SINGLE_SAMPLE:QC_FILTER:SC__SCANPY__GENE_FILTER</text>
</g>
<!-- p3&#45;&gt;p4 -->
<g id="edge4" class="edge">
<title>p3-&gt;p4</title>
<path fill="none" stroke="#000000" d="M2696.6728,-1249.1368C2657.4565,-1234.8059 2602.2976,-1214.6491 2560.7953,-1199.4828"/>
<polygon fill="#000000" stroke="#000000" points="2561.9533,-1196.1796 2551.3594,-1196.0346 2559.5506,-1202.7544 2561.9533,-1196.1796"/>
<text text-anchor="middle" x="2660.7151" y="-1218.4" font-family="Times,serif" font-size="14.00" fill="#000000">data1</text>
</g>
<!-- p6 -->
<g id="node8" class="node">
<title>p6</title>
<ellipse fill="none" stroke="#000000" cx="3095.5552" cy="-1178.2" rx="3.5" ry="3.5"/>
<text text-anchor="middle" x="3081.1646" y="-1185.9" font-family="Times,serif" font-size="14.00" fill="#000000">join</text>
</g>
<!-- p3&#45;&gt;p6 -->
<g id="edge7" class="edge">
<title>p3-&gt;p6</title>
<path fill="none" stroke="#000000" d="M2849.7951,-1249.66C2911.4889,-1237.8667 2990.6111,-1220.0523 3058.5552,-1196.2 3067.0478,-1193.2186 3076.1437,-1188.8116 3083.1917,-1185.1045"/>
<polygon fill="#000000" stroke="#000000" points="3085.1175,-1188.04 3092.2004,-1180.1607 3081.7498,-1181.9033 3085.1175,-1188.04"/>
<text text-anchor="middle" x="3014.7151" y="-1218.4" font-family="Times,serif" font-size="14.00" fill="#000000">data1</text>
</g>
<!-- p5 -->
<g id="node6" class="node">
<title>p5</title>
<ellipse fill="none" stroke="#000000" cx="2035.5552" cy="-1089.4" rx="333.3865" ry="18"/>
<text text-anchor="middle" x="2035.5552" y="-1085.2" font-family="Times,serif" font-size="14.00" fill="#000000">single_sample:SINGLE_SAMPLE:QC_FILTER:SC__SCANPY__CELL_FILTER</text>
</g>
<!-- p4&#45;&gt;p5 -->
<g id="edge5" class="edge">
<title>p4-&gt;p5</title>
<path fill="none" stroke="#000000" d="M2411.4043,-1160.8677C2332.62,-1145.8868 2218.8738,-1124.258 2137.1758,-1108.7232"/>
<polygon fill="#000000" stroke="#000000" points="2137.3521,-1105.194 2126.8743,-1106.7643 2136.0444,-1112.0708 2137.3521,-1105.194"/>
</g>
<!-- p12 -->
<g id="node7" class="node">
<title>p12</title>
<ellipse fill="none" stroke="#000000" cx="1297.5552" cy="-1000.6" rx="297.4577" ry="18"/>
<text text-anchor="middle" x="1297.5552" y="-996.4" font-family="Times,serif" font-size="14.00" fill="#000000">single_sample:SINGLE_SAMPLE:SC__H5AD_TO_FILTERED_LOOM</text>
</g>
<!-- p5&#45;&gt;p12 -->
<g id="edge6" class="edge">
<title>p5-&gt;p12</title>
<path fill="none" stroke="#000000" d="M1898.9038,-1072.9574C1768.8547,-1057.3092 1573.8898,-1033.85 1441.4842,-1017.9183"/>
<polygon fill="#000000" stroke="#000000" points="1441.6121,-1014.4085 1431.2655,-1016.6887 1440.7758,-1021.3584 1441.6121,-1014.4085"/>
<text text-anchor="middle" x="1753.7663" y="-1040.8" font-family="Times,serif" font-size="14.00" fill="#000000">filtered</text>
</g>
<!-- p14 -->
<g id="node15" class="node">
<title>p14</title>
<ellipse fill="none" stroke="#000000" cx="2035.5552" cy="-1000.6" rx="422.4355" ry="18"/>
<text text-anchor="middle" x="2035.5552" y="-996.4" font-family="Times,serif" font-size="14.00" fill="#000000">single_sample:SINGLE_SAMPLE:NORMALIZE_TRANSFORM:SC__SCANPY__NORMALIZATION</text>
</g>
<!-- p5&#45;&gt;p14 -->
<g id="edge14" class="edge">
<title>p5-&gt;p14</title>
<path fill="none" stroke="#000000" d="M2035.5552,-1071.0006C2035.5552,-1058.8949 2035.5552,-1042.8076 2035.5552,-1029.0674"/>
<polygon fill="#000000" stroke="#000000" points="2039.0553,-1028.672 2035.5552,-1018.672 2032.0553,-1028.6721 2039.0553,-1028.672"/>
<text text-anchor="middle" x="2055.7663" y="-1040.8" font-family="Times,serif" font-size="14.00" fill="#000000">filtered</text>
</g>
<!-- p13 -->
<g id="node14" class="node">
<title>p13</title>
<ellipse fill="#000000" stroke="#000000" cx="1297.5552" cy="-927.6" rx="1.8" ry="1.8"/>
</g>
<!-- p12&#45;&gt;p13 -->
<g id="edge13" class="edge">
<title>p12-&gt;p13</title>
<path fill="none" stroke="#000000" d="M1297.5552,-982.5551C1297.5552,-969.2025 1297.5552,-951.3784 1297.5552,-939.701"/>
<polygon fill="#000000" stroke="#000000" points="1301.0553,-939.4525 1297.5552,-929.4525 1294.0553,-939.4525 1301.0553,-939.4525"/>
</g>
<!-- p9 -->
<g id="node9" class="node">
<title>p9</title>
<ellipse fill="none" stroke="#000000" cx="3083.5552" cy="-1089.4" rx="589.6568" ry="18"/>
<text text-anchor="middle" x="3083.5552" y="-1085.2" font-family="Times,serif" font-size="14.00" fill="#000000">single_sample:SINGLE_SAMPLE:QC_FILTER:GENERATE_DUAL_INPUT_REPORT:SC__SCANPY__GENERATE_DUAL_INPUT_REPORT</text>
</g>
<!-- p6&#45;&gt;p9 -->
<g id="edge8" class="edge">
<title>p6-&gt;p9</title>
<path fill="none" stroke="#000000" d="M3097.2692,-1175.0631C3101.5455,-1166.8215 3111.9647,-1143.9147 3106.5552,-1125.4 3105.6686,-1122.3655 3104.4396,-1119.3435 3103.0068,-1116.4139"/>
<polygon fill="#000000" stroke="#000000" points="3105.8998,-1114.4216 3097.9055,-1107.4688 3099.8191,-1117.8894 3105.8998,-1114.4216"/>
</g>
<!-- p10 -->
<g id="node12" class="node">
<title>p10</title>
<ellipse fill="none" stroke="#000000" cx="3630.5552" cy="-1000.6" rx="519.0686" ry="18"/>
<text text-anchor="middle" x="3630.5552" y="-996.4" font-family="Times,serif" font-size="14.00" fill="#000000">single_sample:SINGLE_SAMPLE:QC_FILTER:GENERATE_DUAL_INPUT_REPORT:SC__SCANPY__REPORT_TO_HTML</text>
</g>
<!-- p9&#45;&gt;p10 -->
<g id="edge11" class="edge">
<title>p9-&gt;p10</title>
<path fill="none" stroke="#000000" d="M3192.6063,-1071.6966C3284.8683,-1056.7188 3416.8424,-1035.2941 3511.7662,-1019.8842"/>
<polygon fill="#000000" stroke="#000000" points="3512.3915,-1023.3286 3521.7014,-1018.2713 3511.2698,-1016.4191 3512.3915,-1023.3286"/>
</g>
<!-- p43 -->
<g id="node44" class="node">
<title>p43</title>
<ellipse fill="none" stroke="#000000" cx="1959.5552" cy="-264.6" rx="3.5" ry="3.5"/>
<text text-anchor="middle" x="1945.1646" y="-272.3" font-family="Times,serif" font-size="14.00" fill="#000000">mix</text>
</g>
<!-- p9&#45;&gt;p43 -->
<g id="edge44" class="edge">
<title>p9-&gt;p43</title>
<path fill="none" stroke="#000000" d="M3083.5552,-1071.3721C3083.5552,-1053.4311 3083.5552,-1025.1125 3083.5552,-1000.6 3083.5552,-1000.6 3083.5552,-1000.6 3083.5552,-353.4 3083.5552,-231.0358 2100.0593,-322.9956 1984.5552,-282.6 1979.1849,-280.7219 1973.9611,-277.2966 1969.6892,-273.9343"/>
<polygon fill="#000000" stroke="#000000" points="1971.9849,-271.2922 1962.1711,-267.2997 1967.3531,-276.5407 1971.9849,-271.2922"/>
</g>
<!-- p7 -->
<g id="node10" class="node">
<title>p7</title>
<ellipse fill="#000000" stroke="#000000" cx="2990.5552" cy="-1178.2" rx="3.6" ry="3.6"/>
</g>
<!-- p7&#45;&gt;p9 -->
<g id="edge9" class="edge">
<title>p7-&gt;p9</title>
<path fill="none" stroke="#000000" d="M2990.3417,-1174.3829C2990.0212,-1164.9458 2990.4707,-1140.2119 3002.6646,-1125.4 3006.545,-1120.6864 3011.1685,-1116.5689 3016.2112,-1112.976"/>
<polygon fill="#000000" stroke="#000000" points="3018.4437,-1115.706 3025.036,-1107.4119 3014.7102,-1109.7847 3018.4437,-1115.706"/>
<text text-anchor="middle" x="3018.5005" y="-1129.6" font-family="Times,serif" font-size="14.00" fill="#000000">ipynb</text>
</g>
<!-- p8 -->
<g id="node11" class="node">
<title>p8</title>
<ellipse fill="#000000" stroke="#000000" cx="3045.5552" cy="-1178.2" rx="3.6" ry="3.6"/>
</g>
<!-- p8&#45;&gt;p9 -->
<g id="edge10" class="edge">
<title>p8-&gt;p9</title>
<path fill="none" stroke="#000000" d="M3044.2942,-1174.662C3041.3772,-1165.8619 3034.9799,-1142.4668 3042.6898,-1125.4 3044.3502,-1121.7245 3046.5918,-1118.2743 3049.175,-1115.0765"/>
<polygon fill="#000000" stroke="#000000" points="3051.8509,-1117.3403 3056.1627,-1107.6625 3046.7569,-1112.5391 3051.8509,-1117.3403"/>
<text text-anchor="middle" x="3072.4879" y="-1129.6" font-family="Times,serif" font-size="14.00" fill="#000000">reportTitle</text>
</g>
<!-- p11 -->
<g id="node13" class="node">
<title>p11</title>
<ellipse fill="#000000" stroke="#000000" cx="3630.5552" cy="-927.6" rx="1.8" ry="1.8"/>
</g>
<!-- p10&#45;&gt;p11 -->
<g id="edge12" class="edge">
<title>p10-&gt;p11</title>
<path fill="none" stroke="#000000" d="M3630.5552,-982.5551C3630.5552,-969.2025 3630.5552,-951.3784 3630.5552,-939.701"/>
<polygon fill="#000000" stroke="#000000" points="3634.0553,-939.4525 3630.5552,-929.4525 3627.0553,-939.4525 3634.0553,-939.4525"/>
</g>
<!-- p15 -->
<g id="node16" class="node">
<title>p15</title>
<ellipse fill="none" stroke="#000000" cx="1907.5552" cy="-927.6" rx="462.3446" ry="18"/>
<text text-anchor="middle" x="1907.5552" y="-923.4" font-family="Times,serif" font-size="14.00" fill="#000000">single_sample:SINGLE_SAMPLE:NORMALIZE_TRANSFORM:SC__SCANPY__DATA_TRANSFORMATION</text>
</g>
<!-- p14&#45;&gt;p15 -->
<g id="edge15" class="edge">
<title>p14-&gt;p15</title>
<path fill="none" stroke="#000000" d="M2003.9147,-982.5551C1987.1453,-972.9912 1966.3535,-961.1334 1948.3807,-950.8833"/>
<polygon fill="#000000" stroke="#000000" points="1949.6958,-947.6042 1939.2753,-945.6904 1946.2279,-953.6848 1949.6958,-947.6042"/>
</g>
<!-- p16 -->
<g id="node17" class="node">
<title>p16</title>
<ellipse fill="none" stroke="#000000" cx="1732.5552" cy="-838.8" rx="399.882" ry="18"/>
<text text-anchor="middle" x="1732.5552" y="-834.6" font-family="Times,serif" font-size="14.00" fill="#000000">single_sample:SINGLE_SAMPLE:HVG_SELECTION:SC__SCANPY__FEATURE_SELECTION</text>
</g>
<!-- p15&#45;&gt;p16 -->
<g id="edge16" class="edge">
<title>p15-&gt;p16</title>
<path fill="none" stroke="#000000" d="M1872.1413,-909.63C1844.7446,-895.7281 1806.6368,-876.3911 1777.1592,-861.4334"/>
<polygon fill="#000000" stroke="#000000" points="1778.4178,-858.1472 1767.9164,-856.7433 1775.2502,-864.3896 1778.4178,-858.1472"/>
<text text-anchor="middle" x="1847.2151" y="-879" font-family="Times,serif" font-size="14.00" fill="#000000">data</text>
</g>
<!-- p17 -->
<g id="node18" class="node">
<title>p17</title>
<ellipse fill="none" stroke="#000000" cx="1318.5552" cy="-765.8" rx="389.4282" ry="18"/>
<text text-anchor="middle" x="1318.5552" y="-761.6" font-family="Times,serif" font-size="14.00" fill="#000000">single_sample:SINGLE_SAMPLE:HVG_SELECTION:SC__SCANPY__FEATURE_SCALING</text>
</g>
<!-- p16&#45;&gt;p17 -->
<g id="edge17" class="edge">
<title>p16-&gt;p17</title>
<path fill="none" stroke="#000000" d="M1633.3919,-821.3147C1571.4024,-810.3842 1491.5121,-796.2972 1427.7207,-785.049"/>
<polygon fill="#000000" stroke="#000000" points="1428.0818,-781.5588 1417.626,-783.269 1426.8662,-788.4524 1428.0818,-781.5588"/>
</g>
<!-- p20 -->
<g id="node19" class="node">
<title>p20</title>
<ellipse fill="none" stroke="#000000" cx="1729.5552" cy="-677" rx="487.2635" ry="18"/>
<text text-anchor="middle" x="1729.5552" y="-672.8" font-family="Times,serif" font-size="14.00" fill="#000000">single_sample:SINGLE_SAMPLE:HVG_SELECTION:GENERATE_REPORT:SC__SCANPY__GENERATE_REPORT</text>
</g>
<!-- p17&#45;&gt;p20 -->
<g id="edge18" class="edge">
<title>p17-&gt;p20</title>
<path fill="none" stroke="#000000" d="M1400.2469,-748.1498C1468.6641,-733.3677 1566.271,-712.2789 1637.4523,-696.8996"/>
<polygon fill="#000000" stroke="#000000" points="1638.2799,-700.3016 1647.3152,-694.7686 1636.8015,-693.4595 1638.2799,-700.3016"/>
<text text-anchor="middle" x="1573.2151" y="-717.2" font-family="Times,serif" font-size="14.00" fill="#000000">data</text>
</g>
<!-- p23 -->
<g id="node24" class="node">
<title>p23</title>
<ellipse fill="none" stroke="#000000" cx="752.5552" cy="-677" rx="407.9724" ry="18"/>
<text text-anchor="middle" x="752.5552" y="-672.8" font-family="Times,serif" font-size="14.00" fill="#000000">single_sample:SINGLE_SAMPLE:DIM_REDUCTION:SC__SCANPY__DIM_REDUCTION__PCA</text>
</g>
<!-- p17&#45;&gt;p23 -->
<g id="edge23" class="edge">
<title>p17-&gt;p23</title>
<path fill="none" stroke="#000000" d="M1208.4175,-748.5204C1112.1888,-733.4231 972.7374,-711.5445 873.4505,-695.9673"/>
<polygon fill="#000000" stroke="#000000" points="873.7881,-692.4776 863.3664,-694.3852 872.7031,-699.393 873.7881,-692.4776"/>
<text text-anchor="middle" x="1098.2151" y="-717.2" font-family="Times,serif" font-size="14.00" fill="#000000">data</text>
</g>
<!-- p21 -->
<g id="node22" class="node">
<title>p21</title>
<ellipse fill="none" stroke="#000000" cx="1474.5552" cy="-604" rx="481.4665" ry="18"/>
<text text-anchor="middle" x="1474.5552" y="-599.8" font-family="Times,serif" font-size="14.00" fill="#000000">single_sample:SINGLE_SAMPLE:HVG_SELECTION:GENERATE_REPORT:SC__SCANPY__REPORT_TO_HTML</text>
</g>
<!-- p20&#45;&gt;p21 -->
<g id="edge21" class="edge">
<title>p20-&gt;p21</title>
<path fill="none" stroke="#000000" d="M1667.1752,-659.1422C1630.9011,-648.7579 1585.0144,-635.6217 1547.1276,-624.7756"/>
<polygon fill="#000000" stroke="#000000" points="1547.7521,-621.3139 1537.175,-621.9265 1545.8255,-628.0436 1547.7521,-621.3139"/>
</g>
<!-- p20&#45;&gt;p43 -->
<g id="edge45" class="edge">
<title>p20-&gt;p43</title>
<path fill="none" stroke="#000000" d="M1871.7775,-659.7597C1929.8179,-648.6205 1983.5552,-631.0132 1983.5552,-604 1983.5552,-604 1983.5552,-604 1983.5552,-442.2 1983.5552,-410.0539 1967.9184,-314.091 1961.8881,-278.278"/>
<polygon fill="#000000" stroke="#000000" points="1965.3223,-277.5949 1960.1971,-268.3222 1958.4211,-278.7671 1965.3223,-277.5949"/>
</g>
<!-- p18 -->
<g id="node20" class="node">
<title>p18</title>
<ellipse fill="#000000" stroke="#000000" cx="1729.5552" cy="-765.8" rx="3.6" ry="3.6"/>
</g>
<!-- p18&#45;&gt;p20 -->
<g id="edge19" class="edge">
<title>p18-&gt;p20</title>
<path fill="none" stroke="#000000" d="M1729.5552,-761.9844C1729.5552,-752.3163 1729.5552,-726.15 1729.5552,-705.3826"/>
<polygon fill="#000000" stroke="#000000" points="1733.0553,-705.1306 1729.5552,-695.1306 1726.0553,-705.1307 1733.0553,-705.1306"/>
<text text-anchor="middle" x="1745.5005" y="-717.2" font-family="Times,serif" font-size="14.00" fill="#000000">ipynb</text>
</g>
<!-- p19 -->
<g id="node21" class="node">
<title>p19</title>
<ellipse fill="#000000" stroke="#000000" cx="1784.5552" cy="-765.8" rx="3.6" ry="3.6"/>
</g>
<!-- p19&#45;&gt;p20 -->
<g id="edge20" class="edge">
<title>p19-&gt;p20</title>
<path fill="none" stroke="#000000" d="M1783.5505,-762.2628C1780.9552,-753.4646 1773.4594,-730.0733 1762.5552,-713 1760.2962,-709.463 1757.677,-705.9478 1754.9213,-702.5783"/>
<polygon fill="#000000" stroke="#000000" points="1757.5584,-700.277 1748.3491,-695.0387 1752.2817,-704.8767 1757.5584,-700.277"/>
<text text-anchor="middle" x="1801.4879" y="-717.2" font-family="Times,serif" font-size="14.00" fill="#000000">reportTitle</text>
</g>
<!-- p22 -->
<g id="node23" class="node">
<title>p22</title>
<ellipse fill="#000000" stroke="#000000" cx="1474.5552" cy="-531" rx="1.8" ry="1.8"/>
</g>
<!-- p21&#45;&gt;p22 -->
<g id="edge22" class="edge">
<title>p21-&gt;p22</title>
<path fill="none" stroke="#000000" d="M1474.5552,-585.9551C1474.5552,-572.6025 1474.5552,-554.7784 1474.5552,-543.101"/>
<polygon fill="#000000" stroke="#000000" points="1478.0553,-542.8525 1474.5552,-532.8525 1471.0553,-542.8525 1478.0553,-542.8525"/>
</g>
<!-- p24 -->
<g id="node25" class="node">
<title>p24</title>
<ellipse fill="none" stroke="#000000" cx="561.5552" cy="-604" rx="413.1897" ry="18"/>
<text text-anchor="middle" x="561.5552" y="-599.8" font-family="Times,serif" font-size="14.00" fill="#000000">single_sample:SINGLE_SAMPLE:DIM_REDUCTION:SC__SCANPY__DIM_REDUCTION__TSNE</text>
</g>
<!-- p23&#45;&gt;p24 -->
<g id="edge24" class="edge">
<title>p23-&gt;p24</title>
<path fill="none" stroke="#000000" d="M705.3417,-658.9551C678.9571,-648.8709 645.8995,-636.2363 618.136,-625.6251"/>
<polygon fill="#000000" stroke="#000000" points="619.1467,-622.2646 608.5562,-621.9637 616.6476,-628.8033 619.1467,-622.2646"/>
</g>
<!-- p25 -->
<g id="node26" class="node">
<title>p25</title>
<ellipse fill="none" stroke="#000000" cx="1020.5552" cy="-531" rx="417.2028" ry="18"/>
<text text-anchor="middle" x="1020.5552" y="-526.8" font-family="Times,serif" font-size="14.00" fill="#000000">single_sample:SINGLE_SAMPLE:DIM_REDUCTION:SC__SCANPY__DIM_REDUCTION__UMAP</text>
</g>
<!-- p24&#45;&gt;p25 -->
<g id="edge25" class="edge">
<title>p24-&gt;p25</title>
<path fill="none" stroke="#000000" d="M670.914,-586.6074C740.3045,-575.5715 830.1019,-561.29 901.3181,-549.9636"/>
<polygon fill="#000000" stroke="#000000" points="901.9135,-553.413 911.2396,-548.3857 900.814,-546.4999 901.9135,-553.413"/>
</g>
<!-- p28 -->
<g id="node27" class="node">
<title>p28</title>
<ellipse fill="none" stroke="#000000" cx="581.5552" cy="-442.2" rx="488.4073" ry="18"/>
<text text-anchor="middle" x="581.5552" y="-438" font-family="Times,serif" font-size="14.00" fill="#000000">single_sample:SINGLE_SAMPLE:DIM_REDUCTION:GENERATE_REPORT:SC__SCANPY__GENERATE_REPORT</text>
</g>
<!-- p25&#45;&gt;p28 -->
<g id="edge26" class="edge">
<title>p25-&gt;p28</title>
<path fill="none" stroke="#000000" d="M933.298,-513.3498C860.0705,-498.5375 755.5368,-477.3926 679.4666,-462.0053"/>
<polygon fill="#000000" stroke="#000000" points="679.8934,-458.5208 669.3979,-459.9686 678.5055,-465.3819 679.8934,-458.5208"/>
<text text-anchor="middle" x="852.2151" y="-482.4" font-family="Times,serif" font-size="14.00" fill="#000000">data</text>
</g>
<!-- p31 -->
<g id="node32" class="node">
<title>p31</title>
<ellipse fill="none" stroke="#000000" cx="1549.5552" cy="-442.2" rx="405.677" ry="18"/>
<text text-anchor="middle" x="1549.5552" y="-438" font-family="Times,serif" font-size="14.00" fill="#000000">single_sample:SINGLE_SAMPLE:CLUSTER_IDENTIFICATION:SC__SCANPY__CLUSTERING</text>
</g>
<!-- p25&#45;&gt;p31 -->
<g id="edge31" class="edge">
<title>p25-&gt;p31</title>
<path fill="none" stroke="#000000" d="M1124.4374,-513.5619C1214.0004,-498.5275 1343.1066,-476.8553 1435.5085,-461.3443"/>
<polygon fill="#000000" stroke="#000000" points="1436.1767,-464.7812 1445.4592,-459.6739 1435.0178,-457.8778 1436.1767,-464.7812"/>
<text text-anchor="middle" x="1344.2151" y="-482.4" font-family="Times,serif" font-size="14.00" fill="#000000">data</text>
</g>
<!-- p29 -->
<g id="node30" class="node">
<title>p29</title>
<ellipse fill="none" stroke="#000000" cx="482.5552" cy="-353.4" rx="482.6104" ry="18"/>
<text text-anchor="middle" x="482.5552" y="-349.2" font-family="Times,serif" font-size="14.00" fill="#000000">single_sample:SINGLE_SAMPLE:DIM_REDUCTION:GENERATE_REPORT:SC__SCANPY__REPORT_TO_HTML</text>
</g>
<!-- p28&#45;&gt;p29 -->
<g id="edge29" class="edge">
<title>p28-&gt;p29</title>
<path fill="none" stroke="#000000" d="M561.0423,-423.8006C546.3435,-410.6162 526.3794,-392.709 510.2647,-378.2546"/>
<polygon fill="#000000" stroke="#000000" points="512.4842,-375.5438 502.703,-371.472 507.8102,-380.7547 512.4842,-375.5438"/>
</g>
<!-- p28&#45;&gt;p43 -->
<g id="edge43" class="edge">
<title>p28-&gt;p43</title>
<path fill="none" stroke="#000000" d="M929.2051,-429.5449C1294.3894,-415.26 1821.8125,-391.404 1863.5552,-371.4 1907.0317,-350.5652 1939.6026,-300.2679 1952.9364,-276.9063"/>
<polygon fill="#000000" stroke="#000000" points="1956.0495,-278.5085 1957.7909,-268.0578 1949.9124,-275.1416 1956.0495,-278.5085"/>
</g>
<!-- p26 -->
<g id="node28" class="node">
<title>p26</title>
<ellipse fill="#000000" stroke="#000000" cx="526.5552" cy="-531" rx="3.6" ry="3.6"/>
</g>
<!-- p26&#45;&gt;p28 -->
<g id="edge27" class="edge">
<title>p26-&gt;p28</title>
<path fill="none" stroke="#000000" d="M527.2811,-527.4278C529.2004,-518.5496 535.0072,-494.9903 545.6646,-478.2 547.9525,-474.5955 550.6573,-471.0678 553.5397,-467.7165"/>
<polygon fill="#000000" stroke="#000000" points="556.2247,-469.9689 560.4753,-460.264 551.1005,-465.2 556.2247,-469.9689"/>
<text text-anchor="middle" x="562.5005" y="-482.4" font-family="Times,serif" font-size="14.00" fill="#000000">ipynb</text>
</g>
<!-- p27 -->
<g id="node29" class="node">
<title>p27</title>
<ellipse fill="#000000" stroke="#000000" cx="581.5552" cy="-531" rx="3.6" ry="3.6"/>
</g>
<!-- p27&#45;&gt;p28 -->
<g id="edge28" class="edge">
<title>p27-&gt;p28</title>
<path fill="none" stroke="#000000" d="M581.5552,-527.1844C581.5552,-517.5163 581.5552,-491.35 581.5552,-470.5826"/>
<polygon fill="#000000" stroke="#000000" points="585.0553,-470.3306 581.5552,-460.3306 578.0553,-470.3307 585.0553,-470.3306"/>
<text text-anchor="middle" x="611.4879" y="-482.4" font-family="Times,serif" font-size="14.00" fill="#000000">reportTitle</text>
</g>
<!-- p30 -->
<g id="node31" class="node">
<title>p30</title>
<ellipse fill="#000000" stroke="#000000" cx="482.5552" cy="-264.6" rx="1.8" ry="1.8"/>
</g>
<!-- p29&#45;&gt;p30 -->
<g id="edge30" class="edge">
<title>p29-&gt;p30</title>
<path fill="none" stroke="#000000" d="M482.5552,-335.0006C482.5552,-317.5759 482.5552,-291.9021 482.5552,-276.8518"/>
<polygon fill="#000000" stroke="#000000" points="486.0553,-276.5582 482.5552,-266.5582 479.0553,-276.5582 486.0553,-276.5582"/>
</g>
<!-- p34 -->
<g id="node33" class="node">
<title>p34</title>
<ellipse fill="none" stroke="#000000" cx="2521.5552" cy="-353.4" rx="534.0901" ry="18"/>
<text text-anchor="middle" x="2521.5552" y="-349.2" font-family="Times,serif" font-size="14.00" fill="#000000">single_sample:SINGLE_SAMPLE:CLUSTER_IDENTIFICATION:GENERATE_REPORT:SC__SCANPY__GENERATE_REPORT</text>
</g>
<!-- p31&#45;&gt;p34 -->
<g id="edge32" class="edge">
<title>p31-&gt;p34</title>
<path fill="none" stroke="#000000" d="M1726.9871,-425.9902C1896.495,-410.5043 2151.4045,-387.2162 2326.5322,-371.2169"/>
<polygon fill="#000000" stroke="#000000" points="2326.9998,-374.6889 2336.6399,-370.2935 2326.3629,-367.7179 2326.9998,-374.6889"/>
<text text-anchor="middle" x="2134.2151" y="-393.6" font-family="Times,serif" font-size="14.00" fill="#000000">data</text>
</g>
<!-- p37 -->
<g id="node38" class="node">
<title>p37</title>
<ellipse fill="none" stroke="#000000" cx="1431.5552" cy="-353.4" rx="423.0151" ry="18"/>
<text text-anchor="middle" x="1431.5552" y="-349.2" font-family="Times,serif" font-size="14.00" fill="#000000">single_sample:SINGLE_SAMPLE:CLUSTER_IDENTIFICATION:SC__SCANPY__MARKER_GENES</text>
</g>
<!-- p31&#45;&gt;p37 -->
<g id="edge37" class="edge">
<title>p31-&gt;p37</title>
<path fill="none" stroke="#000000" d="M1525.6761,-424.23C1507.8806,-410.8381 1483.3828,-392.4025 1463.8412,-377.6966"/>
<polygon fill="#000000" stroke="#000000" points="1465.8986,-374.8645 1455.8037,-371.6481 1461.6894,-380.4577 1465.8986,-374.8645"/>
<text text-anchor="middle" x="1513.2151" y="-393.6" font-family="Times,serif" font-size="14.00" fill="#000000">data</text>
</g>
<!-- p35 -->
<g id="node36" class="node">
<title>p35</title>
<ellipse fill="none" stroke="#000000" cx="2521.5552" cy="-264.6" rx="528.2932" ry="18"/>
<text text-anchor="middle" x="2521.5552" y="-260.4" font-family="Times,serif" font-size="14.00" fill="#000000">single_sample:SINGLE_SAMPLE:CLUSTER_IDENTIFICATION:GENERATE_REPORT:SC__SCANPY__REPORT_TO_HTML</text>
</g>
<!-- p34&#45;&gt;p35 -->
<g id="edge35" class="edge">
<title>p34-&gt;p35</title>
<path fill="none" stroke="#000000" d="M2521.5552,-335.0006C2521.5552,-322.8949 2521.5552,-306.8076 2521.5552,-293.0674"/>
<polygon fill="#000000" stroke="#000000" points="2525.0553,-292.672 2521.5552,-282.672 2518.0553,-292.6721 2525.0553,-292.672"/>
</g>
<!-- p34&#45;&gt;p43 -->
<g id="edge46" class="edge">
<title>p34-&gt;p43</title>
<path fill="none" stroke="#000000" d="M2316.3374,-336.7525C2191.0219,-324.5793 2043.832,-306.1081 1984.5552,-282.6 1979.4096,-280.5594 1974.3383,-277.2266 1970.1223,-273.98"/>
<polygon fill="#000000" stroke="#000000" points="1972.0796,-271.0485 1962.2046,-267.2097 1967.5303,-276.3687 1972.0796,-271.0485"/>
</g>
<!-- p32 -->
<g id="node34" class="node">
<title>p32</title>
<ellipse fill="#000000" stroke="#000000" cx="2562.5552" cy="-442.2" rx="3.6" ry="3.6"/>
</g>
<!-- p32&#45;&gt;p34 -->
<g id="edge33" class="edge">
<title>p32-&gt;p34</title>
<path fill="none" stroke="#000000" d="M2561.2693,-438.818C2558.0324,-430.3739 2549.1878,-407.727 2540.5552,-389.4 2539.2132,-386.551 2537.7627,-383.603 2536.2821,-380.6768"/>
<polygon fill="#000000" stroke="#000000" points="2539.2594,-378.8153 2531.5462,-371.5518 2533.0463,-382.0399 2539.2594,-378.8153"/>
<text text-anchor="middle" x="2563.5005" y="-393.6" font-family="Times,serif" font-size="14.00" fill="#000000">ipynb</text>
</g>
<!-- p33 -->
<g id="node35" class="node">
<title>p33</title>
<ellipse fill="#000000" stroke="#000000" cx="2479.5552" cy="-442.2" rx="3.6" ry="3.6"/>
</g>
<!-- p33&#45;&gt;p34 -->
<g id="edge34" class="edge">
<title>p33-&gt;p34</title>
<path fill="none" stroke="#000000" d="M2478.2459,-438.6395C2475.2186,-429.7881 2468.5896,-406.2851 2476.6898,-389.4 2478.5364,-385.5507 2481.0174,-381.9831 2483.8694,-378.7105"/>
<polygon fill="#000000" stroke="#000000" points="2486.4043,-381.1264 2491.0735,-371.6159 2481.4926,-376.1388 2486.4043,-381.1264"/>
<text text-anchor="middle" x="2506.4879" y="-393.6" font-family="Times,serif" font-size="14.00" fill="#000000">reportTitle</text>
</g>
<!-- p36 -->
<g id="node37" class="node">
<title>p36</title>
<ellipse fill="#000000" stroke="#000000" cx="2521.5552" cy="-206" rx="1.8" ry="1.8"/>
</g>
<!-- p35&#45;&gt;p36 -->
<g id="edge36" class="edge">
<title>p35-&gt;p36</title>
<path fill="none" stroke="#000000" d="M2521.5552,-246.3798C2521.5552,-237.1425 2521.5552,-226.1821 2521.5552,-218.0128"/>
<polygon fill="#000000" stroke="#000000" points="2525.0553,-217.906 2521.5552,-207.9061 2518.0553,-217.9061 2525.0553,-217.906"/>
</g>
<!-- p38 -->
<g id="node39" class="node">
<title>p38</title>
<ellipse fill="none" stroke="#000000" cx="1650.5552" cy="-264.6" rx="247.1161" ry="18"/>
<text text-anchor="middle" x="1650.5552" y="-260.4" font-family="Times,serif" font-size="14.00" fill="#000000">single_sample:SINGLE_SAMPLE:SC__H5AD_TO_LOOM</text>
</g>
<!-- p37&#45;&gt;p38 -->
<g id="edge38" class="edge">
<title>p37-&gt;p38</title>
<path fill="none" stroke="#000000" d="M1475.8731,-335.43C1510.8665,-321.2409 1559.8238,-301.3897 1597.009,-286.3119"/>
<polygon fill="#000000" stroke="#000000" points="1598.7254,-289.3927 1606.6774,-282.3915 1596.095,-282.9057 1598.7254,-289.3927"/>
</g>
<!-- p41 -->
<g id="node41" class="node">
<title>p41</title>
<ellipse fill="none" stroke="#000000" cx="1065.5552" cy="-264.6" rx="241.3328" ry="18"/>
<text text-anchor="middle" x="1065.5552" y="-260.4" font-family="Times,serif" font-size="14.00" fill="#000000">single_sample:SINGLE_SAMPLE:SC__PUBLISH_H5AD</text>
</g>
<!-- p37&#45;&gt;p41 -->
<g id="edge40" class="edge">
<title>p37-&gt;p41</title>
<path fill="none" stroke="#000000" d="M1358.3693,-335.6434C1297.1823,-320.7981 1210.0043,-299.6467 1146.6944,-284.2862"/>
<polygon fill="#000000" stroke="#000000" points="1147.2894,-280.8291 1136.7461,-281.8725 1145.6389,-287.6318 1147.2894,-280.8291"/>
</g>
<!-- p39 -->
<g id="node40" class="node">
<title>p39</title>
<ellipse fill="#000000" stroke="#000000" cx="1666.5552" cy="-206" rx="1.8" ry="1.8"/>
</g>
<!-- p38&#45;&gt;p39 -->
<g id="edge39" class="edge">
<title>p38-&gt;p39</title>
<path fill="none" stroke="#000000" d="M1655.53,-246.3798C1658.0825,-237.0312 1661.1169,-225.9177 1663.3555,-217.7187"/>
<polygon fill="#000000" stroke="#000000" points="1666.7771,-218.4748 1666.0348,-207.9061 1660.0243,-216.631 1666.7771,-218.4748"/>
</g>
<!-- p42 -->
<g id="node43" class="node">
<title>p42</title>
<ellipse fill="#000000" stroke="#000000" cx="1065.5552" cy="-206" rx="1.8" ry="1.8"/>
</g>
<!-- p41&#45;&gt;p42 -->
<g id="edge42" class="edge">
<title>p41-&gt;p42</title>
<path fill="none" stroke="#000000" d="M1065.5552,-246.3798C1065.5552,-237.1425 1065.5552,-226.1821 1065.5552,-218.0128"/>
<polygon fill="#000000" stroke="#000000" points="1069.0553,-217.906 1065.5552,-207.9061 1062.0553,-217.9061 1069.0553,-217.906"/>
</g>
<!-- p40 -->
<g id="node42" class="node">
<title>p40</title>
<ellipse fill="#000000" stroke="#000000" cx="986.5552" cy="-353.4" rx="3.6" ry="3.6"/>
</g>
<!-- p40&#45;&gt;p41 -->
<g id="edge41" class="edge">
<title>p40-&gt;p41</title>
<path fill="none" stroke="#000000" d="M988.6499,-350.255C991.1297,-346.5917 995.4434,-340.4033 999.5552,-335.4 1012.3983,-319.7723 1027.7561,-303.1874 1040.4241,-290.0007"/>
<polygon fill="#000000" stroke="#000000" points="1043.0889,-292.2801 1047.5326,-282.6622 1038.061,-287.4097 1043.0889,-292.2801"/>
<text text-anchor="middle" x="1059.8813" y="-304.8" font-family="Times,serif" font-size="14.00" fill="#000000">fOutSuffix</text>
</g>
<!-- p44 -->
<g id="node45" class="node">
<title>p44</title>
<ellipse fill="none" stroke="#000000" cx="1878.5552" cy="-206" rx="3.5" ry="3.5"/>
<text text-anchor="middle" x="1842.396" y="-213.7" font-family="Times,serif" font-size="14.00" fill="#000000">groupTuple</text>
</g>
<!-- p43&#45;&gt;p44 -->
<g id="edge47" class="edge">
<title>p43-&gt;p44</title>
<path fill="none" stroke="#000000" d="M1956.4788,-262.3744C1945.6029,-254.5061 1908.6111,-227.7442 1889.7745,-214.1167"/>
<polygon fill="#000000" stroke="#000000" points="1891.7882,-211.2537 1881.6346,-208.2279 1887.6852,-216.9251 1891.7882,-211.2537"/>
</g>
<!-- p46 -->
<g id="node46" class="node">
<title>p46</title>
<ellipse fill="none" stroke="#000000" cx="1680.5552" cy="-131.6" rx="299.2392" ry="18"/>
<text text-anchor="middle" x="1680.5552" y="-127.4" font-family="Times,serif" font-size="14.00" fill="#000000">single_sample:SINGLE_SAMPLE:SC__SCANPY__MERGE_REPORTS</text>
</g>
<!-- p44&#45;&gt;p46 -->
<g id="edge48" class="edge">
<title>p44-&gt;p46</title>
<path fill="none" stroke="#000000" d="M1875.1185,-204.7086C1858.9235,-198.6233 1788.861,-172.2967 1737.4358,-152.9733"/>
<polygon fill="#000000" stroke="#000000" points="1738.6598,-149.6944 1728.0677,-149.4532 1736.1975,-156.247 1738.6598,-149.6944"/>
</g>
<!-- p47 -->
<g id="node48" class="node">
<title>p47</title>
<ellipse fill="none" stroke="#000000" cx="1680.5552" cy="-58.6" rx="305.0206" ry="18"/>
<text text-anchor="middle" x="1680.5552" y="-54.4" font-family="Times,serif" font-size="14.00" fill="#000000">single_sample:SINGLE_SAMPLE:SC__SCANPY__REPORT_TO_HTML</text>
</g>
<!-- p46&#45;&gt;p47 -->
<g id="edge50" class="edge">
<title>p46-&gt;p47</title>
<path fill="none" stroke="#000000" d="M1680.5552,-113.5551C1680.5552,-105.4828 1680.5552,-95.7764 1680.5552,-86.7817"/>
<polygon fill="#000000" stroke="#000000" points="1684.0553,-86.6903 1680.5552,-76.6904 1677.0553,-86.6904 1684.0553,-86.6903"/>
</g>
<!-- p45 -->
<g id="node47" class="node">
<title>p45</title>
<ellipse fill="#000000" stroke="#000000" cx="1643.5552" cy="-206" rx="3.6" ry="3.6"/>
</g>
<!-- p45&#45;&gt;p46 -->
<g id="edge49" class="edge">
<title>p45-&gt;p46</title>
<path fill="none" stroke="#000000" d="M1645.3398,-202.4115C1649.2253,-194.5984 1658.7585,-175.4289 1666.9272,-159.0032"/>
<polygon fill="#000000" stroke="#000000" points="1670.2071,-160.2681 1671.5261,-149.7557 1663.9394,-157.151 1670.2071,-160.2681"/>
<text text-anchor="middle" x="1692.4879" y="-171.8" font-family="Times,serif" font-size="14.00" fill="#000000">reportTitle</text>
</g>
<!-- p48 -->
<g id="node49" class="node">
<title>p48</title>
<ellipse fill="#000000" stroke="#000000" cx="1680.5552" cy="-1.8" rx="1.8" ry="1.8"/>
</g>
<!-- p47&#45;&gt;p48 -->
<g id="edge51" class="edge">
<title>p47-&gt;p48</title>
<path fill="none" stroke="#000000" d="M1680.5552,-40.3155C1680.5552,-31.6139 1680.5552,-21.4551 1680.5552,-13.756"/>
<polygon fill="#000000" stroke="#000000" points="1684.0553,-13.6036 1680.5552,-3.6036 1677.0553,-13.6037 1684.0553,-13.6036"/>
</g>
</g>
</svg>