<?xml version="1.0" encoding="UTF-8" standalone="no"?><!DOCTYPE svg PUBLIC "-//W3C//DTD SVG 1.1//EN" "http://www.w3.org/Graphics/SVG/1.1/DTD/svg11.dtd"><!-- Generated by graphviz version 2.40.1 (20161225.0304)
 --><!-- Title: dag Pages: 1 --><svg xmlns="http://www.w3.org/2000/svg" xmlns:xlink="http://www.w3.org/1999/xlink" width="2777pt" height="900pt" viewBox="0.00 0.00 2776.71 900.20">
<g id="graph0" class="graph" transform="scale(1 1) rotate(0) translate(4 896.2)">
<title>dag</title>
<polygon fill="#ffffff" stroke="transparent" points="-4,4 -4,-896.2 2772.7052,-896.2 2772.7052,4 -4,4"/>
<!-- p0 -->
<g id="node1" class="node">
<title>p0</title>
<ellipse fill="#000000" stroke="#000000" cx="1309.6" cy="-871.8" rx="3.6" ry="3.6"/>
<text text-anchor="middle" x="1267.3159" y="-879.6" font-family="Times,serif" font-size="14.00" fill="#000000">Channel.from</text>
</g>
<!-- p3 -->
<g id="node2" class="node">
<title>p3</title>
<ellipse fill="none" stroke="#000000" cx="1272.6" cy="-797.4" rx="185.7974" ry="18"/>
<text text-anchor="middle" x="1272.6" y="-793.2" font-family="Times,serif" font-size="14.00" fill="#000000">SCENIC:GRNBOOST2_WITHOUT_DASK</text>
</g>
<!-- p0&#45;&gt;p3 -->
<g id="edge1" class="edge">
<title>p0-&gt;p3</title>
<path fill="none" stroke="#000000" d="M1307.8154,-868.2115C1303.9298,-860.3984 1294.3966,-841.2289 1286.2279,-824.8032"/>
<polygon fill="#000000" stroke="#000000" points="1289.2158,-822.951 1281.629,-815.5557 1282.9481,-826.0681 1289.2158,-822.951"/>
<text text-anchor="middle" x="1311.6526" y="-837.6" font-family="Times,serif" font-size="14.00" fill="#000000">runs</text>
</g>
<!-- p9 -->
<g id="node5" class="node">
<title>p9</title>
<ellipse fill="none" stroke="#000000" cx="1579.6" cy="-708.6" rx="140.7078" ry="18"/>
<text text-anchor="middle" x="1579.6" y="-704.4" font-family="Times,serif" font-size="14.00" fill="#000000">SCENIC:CISTARGET__MOTIF</text>
</g>
<!-- p3&#45;&gt;p9 -->
<g id="edge4" class="edge">
<title>p3-&gt;p9</title>
<path fill="none" stroke="#000000" d="M1331.7927,-780.2785C1383.6262,-765.2856 1458.8837,-743.5173 1512.847,-727.9084"/>
<polygon fill="#000000" stroke="#000000" points="1514.0312,-731.2094 1522.6649,-725.0685 1512.0861,-724.485 1514.0312,-731.2094"/>
</g>
<!-- p15 -->
<g id="node14" class="node">
<title>p15</title>
<ellipse fill="none" stroke="#000000" cx="946.6" cy="-708.6" rx="143.577" ry="18"/>
<text text-anchor="middle" x="946.6" y="-704.4" font-family="Times,serif" font-size="14.00" fill="#000000">SCENIC:CISTARGET__TRACK</text>
</g>
<!-- p3&#45;&gt;p15 -->
<g id="edge13" class="edge">
<title>p3-&gt;p15</title>
<path fill="none" stroke="#000000" d="M1210.1296,-780.3835C1154.7272,-765.2923 1073.9035,-743.2765 1016.3942,-727.6114"/>
<polygon fill="#000000" stroke="#000000" points="1017.2251,-724.2103 1006.6568,-724.959 1015.3853,-730.9642 1017.2251,-724.2103"/>
</g>
<!-- p1 -->
<g id="node3" class="node">
<title>p1</title>
<ellipse fill="#000000" stroke="#000000" cx="1180.6" cy="-871.8" rx="3.6" ry="3.6"/>
</g>
<!-- p1&#45;&gt;p3 -->
<g id="edge2" class="edge">
<title>p1-&gt;p3</title>
<path fill="none" stroke="#000000" d="M1181.5199,-868.1575C1183.5608,-860.7359 1189.119,-843.6965 1199.3966,-833.4 1204.4868,-828.3004 1210.4449,-823.806 1216.7249,-819.8775"/>
<polygon fill="#000000" stroke="#000000" points="1218.5128,-822.8869 1225.4369,-814.8677 1215.0232,-816.8187 1218.5128,-822.8869"/>
<text text-anchor="middle" x="1234.2017" y="-837.6" font-family="Times,serif" font-size="14.00" fill="#000000">filteredloom</text>
</g>
<!-- p2 -->
<g id="node4" class="node">
<title>p2</title>
<ellipse fill="#000000" stroke="#000000" cx="1272.6" cy="-871.8" rx="3.6" ry="3.6"/>
</g>
<!-- p2&#45;&gt;p3 -->
<g id="edge3" class="edge">
<title>p2-&gt;p3</title>
<path fill="none" stroke="#000000" d="M1272.6,-867.7999C1272.6,-859.8769 1272.6,-841.573 1272.6,-825.6153"/>
<polygon fill="#000000" stroke="#000000" points="1276.1001,-825.6003 1272.6,-815.6003 1269.1001,-825.6003 1276.1001,-825.6003"/>
<text text-anchor="middle" x="1279.5979" y="-837.6" font-family="Times,serif" font-size="14.00" fill="#000000">tfs</text>
</g>
<!-- p18 -->
<g id="node11" class="node">
<title>p18</title>
<ellipse fill="none" stroke="#000000" cx="1950.6" cy="-619.8" rx="125.6613" ry="18"/>
<text text-anchor="middle" x="1950.6" y="-615.6" font-family="Times,serif" font-size="14.00" fill="#000000">SCENIC:AUCELL__MOTIF</text>
</g>
<!-- p9&#45;&gt;p18 -->
<g id="edge10" class="edge">
<title>p9-&gt;p18</title>
<path fill="none" stroke="#000000" d="M1646.3558,-692.6218C1710.9458,-677.162 1808.6712,-653.7711 1875.84,-637.694"/>
<polygon fill="#000000" stroke="#000000" points="1877.0235,-641.0097 1885.9341,-635.278 1875.394,-634.202 1877.0235,-641.0097"/>
<text text-anchor="middle" x="1806.1526" y="-660" font-family="Times,serif" font-size="14.00" fill="#000000">ctx</text>
</g>
<!-- p22 -->
<g id="node25" class="node">
<title>p22</title>
<ellipse fill="none" stroke="#000000" cx="1579.6" cy="-619.8" rx="3.5" ry="3.5"/>
<text text-anchor="middle" x="1564.0474" y="-627.5" font-family="Times,serif" font-size="14.00" fill="#000000">map</text>
</g>
<!-- p9&#45;&gt;p22 -->
<g id="edge24" class="edge">
<title>p9-&gt;p22</title>
<path fill="none" stroke="#000000" d="M1579.6,-690.2006C1579.6,-673.3728 1579.6,-648.8514 1579.6,-633.6352"/>
<polygon fill="#000000" stroke="#000000" points="1583.1001,-633.4153 1579.6,-623.4153 1576.1001,-633.4153 1583.1001,-633.4153"/>
<text text-anchor="middle" x="1588.1526" y="-660" font-family="Times,serif" font-size="14.00" fill="#000000">ctx</text>
</g>
<!-- p4 -->
<g id="node6" class="node">
<title>p4</title>
<ellipse fill="#000000" stroke="#000000" cx="1484.6" cy="-871.8" rx="3.6" ry="3.6"/>
<text text-anchor="middle" x="1429.872" y="-879.6" font-family="Times,serif" font-size="14.00" fill="#000000">Channel.fromPath</text>
</g>
<!-- p5 -->
<g id="node7" class="node">
<title>p5</title>
<ellipse fill="none" stroke="#000000" cx="1484.6" cy="-797.4" rx="3.5" ry="3.5"/>
<text text-anchor="middle" x="1499.7578" y="-805.1" font-family="Times,serif" font-size="14.00" fill="#000000">collect</text>
</g>
<!-- p4&#45;&gt;p5 -->
<g id="edge5" class="edge">
<title>p4-&gt;p5</title>
<path fill="none" stroke="#000000" d="M1484.6,-867.7999C1484.6,-857.3076 1484.6,-828.61 1484.6,-811.2649"/>
<polygon fill="#000000" stroke="#000000" points="1488.1001,-811.0641 1484.6,-801.0641 1481.1001,-811.0642 1488.1001,-811.0641"/>
</g>
<!-- p5&#45;&gt;p9 -->
<g id="edge6" class="edge">
<title>p5-&gt;p9</title>
<path fill="none" stroke="#000000" d="M1484.8049,-793.8437C1485.5184,-784.5899 1488.6332,-759.4499 1501.8244,-744.6 1506.6478,-739.1701 1512.4594,-734.5021 1518.7071,-730.5027"/>
<polygon fill="#000000" stroke="#000000" points="1520.5369,-733.4878 1527.445,-725.4549 1517.0353,-727.4265 1520.5369,-733.4878"/>
<text text-anchor="middle" x="1526.4878" y="-748.8" font-family="Times,serif" font-size="14.00" fill="#000000">motifDB</text>
</g>
<!-- p6 -->
<g id="node8" class="node">
<title>p6</title>
<ellipse fill="#000000" stroke="#000000" cx="1557.6" cy="-797.4" rx="3.6" ry="3.6"/>
</g>
<!-- p6&#45;&gt;p9 -->
<g id="edge7" class="edge">
<title>p6-&gt;p9</title>
<path fill="none" stroke="#000000" d="M1557.0233,-793.7231C1555.789,-784.9962 1553.3914,-762.4295 1558.3966,-744.6 1559.2323,-741.6233 1560.3775,-738.6398 1561.706,-735.7343"/>
<polygon fill="#000000" stroke="#000000" points="1564.8377,-737.299 1566.4195,-726.8229 1558.65,-734.0261 1564.8377,-737.299"/>
<text text-anchor="middle" x="1592.2017" y="-748.8" font-family="Times,serif" font-size="14.00" fill="#000000">filteredloom</text>
</g>
<!-- p7 -->
<g id="node9" class="node">
<title>p7</title>
<ellipse fill="#000000" stroke="#000000" cx="1649.6" cy="-797.4" rx="3.6" ry="3.6"/>
</g>
<!-- p7&#45;&gt;p9 -->
<g id="edge8" class="edge">
<title>p7-&gt;p9</title>
<path fill="none" stroke="#000000" d="M1648.7851,-793.7288C1646.6229,-784.6248 1640.0374,-760.591 1627.6,-744.6 1624.3654,-740.4413 1620.5353,-736.5206 1616.4713,-732.9062"/>
<polygon fill="#000000" stroke="#000000" points="1618.4179,-729.9766 1608.4626,-726.3511 1613.9841,-735.3935 1618.4179,-729.9766"/>
<text text-anchor="middle" x="1666.1505" y="-748.8" font-family="Times,serif" font-size="14.00" fill="#000000">annotation</text>
</g>
<!-- p8 -->
<g id="node10" class="node">
<title>p8</title>
<ellipse fill="#000000" stroke="#000000" cx="1731.6" cy="-797.4" rx="3.6" ry="3.6"/>
</g>
<!-- p8&#45;&gt;p9 -->
<g id="edge9" class="edge">
<title>p8-&gt;p9</title>
<path fill="none" stroke="#000000" d="M1730.5064,-793.9666C1727.3365,-784.5737 1717.2307,-758.2465 1699.6,-744.6 1690.328,-737.4233 1679.64,-731.6728 1668.5435,-727.066"/>
<polygon fill="#000000" stroke="#000000" points="1669.7385,-723.7758 1659.1484,-723.4592 1667.2296,-730.3108 1669.7385,-723.7758"/>
<text text-anchor="middle" x="1725.6526" y="-748.8" font-family="Times,serif" font-size="14.00" fill="#000000">type</text>
</g>
<!-- p26 -->
<g id="node21" class="node">
<title>p26</title>
<ellipse fill="none" stroke="#000000" cx="1990.6" cy="-545.4" rx="3.5" ry="3.5"/>
<text text-anchor="middle" x="1968.4422" y="-553.1" font-family="Times,serif" font-size="14.00" fill="#000000">collect</text>
</g>
<!-- p18&#45;&gt;p26 -->
<g id="edge20" class="edge">
<title>p18-&gt;p26</title>
<path fill="none" stroke="#000000" d="M1960.2829,-601.7898C1967.647,-588.0925 1977.581,-569.6153 1984.0379,-557.6056"/>
<polygon fill="#000000" stroke="#000000" points="1987.1639,-559.1822 1988.8166,-548.7171 1980.9985,-555.8674 1987.1639,-559.1822"/>
<text text-anchor="middle" x="1988.3146" y="-571.2" font-family="Times,serif" font-size="14.00" fill="#000000">auc</text>
</g>
<!-- p10 -->
<g id="node12" class="node">
<title>p10</title>
<ellipse fill="#000000" stroke="#000000" cx="810.6" cy="-871.8" rx="3.6" ry="3.6"/>
<text text-anchor="middle" x="755.872" y="-879.6" font-family="Times,serif" font-size="14.00" fill="#000000">Channel.fromPath</text>
</g>
<!-- p11 -->
<g id="node13" class="node">
<title>p11</title>
<ellipse fill="none" stroke="#000000" cx="810.6" cy="-797.4" rx="3.5" ry="3.5"/>
<text text-anchor="middle" x="788.4422" y="-805.1" font-family="Times,serif" font-size="14.00" fill="#000000">collect</text>
</g>
<!-- p10&#45;&gt;p11 -->
<g id="edge11" class="edge">
<title>p10-&gt;p11</title>
<path fill="none" stroke="#000000" d="M810.6,-867.7999C810.6,-857.3076 810.6,-828.61 810.6,-811.2649"/>
<polygon fill="#000000" stroke="#000000" points="814.1001,-811.0641 810.6,-801.0641 807.1001,-811.0642 814.1001,-811.0641"/>
</g>
<!-- p11&#45;&gt;p15 -->
<g id="edge12" class="edge">
<title>p11-&gt;p15</title>
<path fill="none" stroke="#000000" d="M810.718,-793.7336C811.2264,-784.2138 813.9201,-758.4871 828.1764,-744.6 834.5728,-738.3692 849.2973,-732.3898 866.2685,-727.1553"/>
<polygon fill="#000000" stroke="#000000" points="867.2825,-730.5053 875.8894,-724.3269 865.3082,-723.7895 867.2825,-730.5053"/>
<text text-anchor="middle" x="852.3118" y="-748.8" font-family="Times,serif" font-size="14.00" fill="#000000">trackDB</text>
</g>
<!-- p21 -->
<g id="node18" class="node">
<title>p21</title>
<ellipse fill="none" stroke="#000000" cx="607.6" cy="-619.8" rx="128.5303" ry="18"/>
<text text-anchor="middle" x="607.6" y="-615.6" font-family="Times,serif" font-size="14.00" fill="#000000">SCENIC:AUCELL__TRACK</text>
</g>
<!-- p15&#45;&gt;p21 -->
<g id="edge17" class="edge">
<title>p15-&gt;p21</title>
<path fill="none" stroke="#000000" d="M884.4222,-692.3127C826.1191,-677.0404 739.0368,-654.2295 678.1574,-638.2823"/>
<polygon fill="#000000" stroke="#000000" points="678.8036,-634.8335 668.2431,-635.6853 677.0298,-641.6051 678.8036,-634.8335"/>
<text text-anchor="middle" x="816.1526" y="-660" font-family="Times,serif" font-size="14.00" fill="#000000">ctx</text>
</g>
<!-- p37 -->
<g id="node40" class="node">
<title>p37</title>
<ellipse fill="none" stroke="#000000" cx="946.6" cy="-619.8" rx="3.5" ry="3.5"/>
<text text-anchor="middle" x="931.0474" y="-627.5" font-family="Times,serif" font-size="14.00" fill="#000000">map</text>
</g>
<!-- p15&#45;&gt;p37 -->
<g id="edge41" class="edge">
<title>p15-&gt;p37</title>
<path fill="none" stroke="#000000" d="M946.6,-690.2006C946.6,-673.3728 946.6,-648.8514 946.6,-633.6352"/>
<polygon fill="#000000" stroke="#000000" points="950.1001,-633.4153 946.6,-623.4153 943.1001,-633.4153 950.1001,-633.4153"/>
<text text-anchor="middle" x="955.1526" y="-660" font-family="Times,serif" font-size="14.00" fill="#000000">ctx</text>
</g>
<!-- p12 -->
<g id="node15" class="node">
<title>p12</title>
<ellipse fill="#000000" stroke="#000000" cx="880.6" cy="-797.4" rx="3.6" ry="3.6"/>
</g>
<!-- p12&#45;&gt;p15 -->
<g id="edge14" class="edge">
<title>p12-&gt;p15</title>
<path fill="none" stroke="#000000" d="M879.7756,-793.7169C877.9466,-784.5858 874.4542,-760.4949 884.3966,-744.6 887.3742,-739.8397 891.227,-735.6406 895.5553,-731.9525"/>
<polygon fill="#000000" stroke="#000000" points="897.8282,-734.6243 903.7736,-725.8549 893.6571,-729.0027 897.8282,-734.6243"/>
<text text-anchor="middle" x="919.2017" y="-748.8" font-family="Times,serif" font-size="14.00" fill="#000000">filteredloom</text>
</g>
<!-- p13 -->
<g id="node16" class="node">
<title>p13</title>
<ellipse fill="#000000" stroke="#000000" cx="972.6" cy="-797.4" rx="3.6" ry="3.6"/>
</g>
<!-- p13&#45;&gt;p15 -->
<g id="edge15" class="edge">
<title>p13-&gt;p15</title>
<path fill="none" stroke="#000000" d="M971.4828,-793.5844C968.6261,-783.8276 960.8498,-757.2685 954.7433,-736.4124"/>
<polygon fill="#000000" stroke="#000000" points="958.0775,-735.3442 951.9085,-726.7306 951.3596,-737.3112 958.0775,-735.3442"/>
<text text-anchor="middle" x="992.1505" y="-748.8" font-family="Times,serif" font-size="14.00" fill="#000000">annotation</text>
</g>
<!-- p14 -->
<g id="node17" class="node">
<title>p14</title>
<ellipse fill="#000000" stroke="#000000" cx="1054.6" cy="-797.4" rx="3.6" ry="3.6"/>
</g>
<!-- p14&#45;&gt;p15 -->
<g id="edge16" class="edge">
<title>p14-&gt;p15</title>
<path fill="none" stroke="#000000" d="M1053.5206,-793.8214C1050.5469,-784.5136 1041.3921,-759.2547 1025.6,-744.6 1019.7739,-739.1935 1012.9958,-734.4868 1005.9052,-730.421"/>
<polygon fill="#000000" stroke="#000000" points="1007.2811,-727.1894 996.8047,-725.6093 1004.0091,-733.3777 1007.2811,-727.1894"/>
<text text-anchor="middle" x="1051.6526" y="-748.8" font-family="Times,serif" font-size="14.00" fill="#000000">type</text>
</g>
<!-- p41 -->
<g id="node24" class="node">
<title>p41</title>
<ellipse fill="none" stroke="#000000" cx="441.6" cy="-545.4" rx="3.5" ry="3.5"/>
<text text-anchor="middle" x="419.4422" y="-553.1" font-family="Times,serif" font-size="14.00" fill="#000000">collect</text>
</g>
<!-- p21&#45;&gt;p41 -->
<g id="edge23" class="edge">
<title>p21-&gt;p41</title>
<path fill="none" stroke="#000000" d="M569.099,-602.5441C532.2247,-586.0173 478.7137,-562.0341 454.436,-551.153"/>
<polygon fill="#000000" stroke="#000000" points="455.624,-547.8501 445.0671,-546.9539 452.761,-554.2378 455.624,-547.8501"/>
<text text-anchor="middle" x="534.3146" y="-571.2" font-family="Times,serif" font-size="14.00" fill="#000000">auc</text>
</g>
<!-- p16 -->
<g id="node19" class="node">
<title>p16</title>
<ellipse fill="#000000" stroke="#000000" cx="1973.6" cy="-708.6" rx="3.6" ry="3.6"/>
</g>
<!-- p16&#45;&gt;p18 -->
<g id="edge18" class="edge">
<title>p16-&gt;p18</title>
<path fill="none" stroke="#000000" d="M1972.6117,-704.7844C1970.0846,-695.0276 1963.2056,-668.4685 1957.8037,-647.6124"/>
<polygon fill="#000000" stroke="#000000" points="1961.1916,-646.7336 1955.296,-637.9306 1954.4152,-648.4888 1961.1916,-646.7336"/>
<text text-anchor="middle" x="1987.3125" y="-660" font-family="Times,serif" font-size="14.00" fill="#000000">exprMat</text>
</g>
<!-- p17 -->
<g id="node20" class="node">
<title>p17</title>
<ellipse fill="#000000" stroke="#000000" cx="1926.6" cy="-708.6" rx="3.6" ry="3.6"/>
</g>
<!-- p17&#45;&gt;p18 -->
<g id="edge19" class="edge">
<title>p17-&gt;p18</title>
<path fill="none" stroke="#000000" d="M1926.4513,-704.9217C1926.2025,-696.1916 1926.1741,-673.6186 1931.4948,-655.8 1932.3773,-652.8444 1933.5133,-649.8515 1934.7908,-646.9197"/>
<polygon fill="#000000" stroke="#000000" points="1937.9614,-648.4034 1939.2168,-637.8832 1931.6749,-645.3244 1937.9614,-648.4034"/>
<text text-anchor="middle" x="1942.6526" y="-660" font-family="Times,serif" font-size="14.00" fill="#000000">type</text>
</g>
<!-- p28 -->
<g id="node30" class="node">
<title>p28</title>
<ellipse fill="none" stroke="#000000" cx="2179.6" cy="-471" rx="286.4224" ry="18"/>
<text text-anchor="middle" x="2179.6" y="-466.8" font-family="Times,serif" font-size="14.00" fill="#000000">SCENIC:MULTI_RUNS_TO_LOOM__MOTIF:AGGR_REGULONS</text>
</g>
<!-- p26&#45;&gt;p28 -->
<g id="edge29" class="edge">
<title>p26-&gt;p28</title>
<path fill="none" stroke="#000000" d="M1993.8804,-544.1086C2009.2752,-538.0485 2075.6631,-511.9149 2124.6929,-492.6142"/>
<polygon fill="#000000" stroke="#000000" points="2126.2242,-495.7729 2134.2472,-488.8532 2123.6601,-489.2594 2126.2242,-495.7729"/>
</g>
<!-- p19 -->
<g id="node22" class="node">
<title>p19</title>
<ellipse fill="#000000" stroke="#000000" cx="631.6" cy="-708.6" rx="3.6" ry="3.6"/>
</g>
<!-- p19&#45;&gt;p21 -->
<g id="edge21" class="edge">
<title>p19-&gt;p21</title>
<path fill="none" stroke="#000000" d="M630.5687,-704.7844C627.9318,-695.0276 620.7536,-668.4685 615.1169,-647.6124"/>
<polygon fill="#000000" stroke="#000000" points="618.4881,-646.6711 612.5002,-637.9306 611.7306,-648.4975 618.4881,-646.6711"/>
<text text-anchor="middle" x="646.3125" y="-660" font-family="Times,serif" font-size="14.00" fill="#000000">exprMat</text>
</g>
<!-- p20 -->
<g id="node23" class="node">
<title>p20</title>
<ellipse fill="#000000" stroke="#000000" cx="584.6" cy="-708.6" rx="3.6" ry="3.6"/>
</g>
<!-- p20&#45;&gt;p21 -->
<g id="edge22" class="edge">
<title>p20-&gt;p21</title>
<path fill="none" stroke="#000000" d="M584.0104,-704.9163C582.75,-696.1746 580.3091,-673.5785 585.4948,-655.8 586.3702,-652.7989 587.5669,-649.7991 588.9537,-646.8834"/>
<polygon fill="#000000" stroke="#000000" points="592.111,-648.4056 593.8701,-637.9578 585.9796,-645.0282 592.111,-648.4056"/>
<text text-anchor="middle" x="597.6526" y="-660" font-family="Times,serif" font-size="14.00" fill="#000000">type</text>
</g>
<!-- p43 -->
<g id="node45" class="node">
<title>p43</title>
<ellipse fill="none" stroke="#000000" cx="360.6" cy="-471" rx="288.7916" ry="18"/>
<text text-anchor="middle" x="360.6" y="-466.8" font-family="Times,serif" font-size="14.00" fill="#000000">SCENIC:MULTI_RUNS_TO_LOOM__TRACK:AGGR_REGULONS</text>
</g>
<!-- p41&#45;&gt;p43 -->
<g id="edge46" class="edge">
<title>p41-&gt;p43</title>
<path fill="none" stroke="#000000" d="M438.905,-542.9246C430.9563,-535.6236 406.9526,-513.5758 387.5962,-495.7965"/>
<polygon fill="#000000" stroke="#000000" points="389.9144,-493.1735 380.182,-488.9864 385.1791,-498.3288 389.9144,-493.1735"/>
</g>
<!-- p23 -->
<g id="node26" class="node">
<title>p23</title>
<ellipse fill="none" stroke="#000000" cx="1579.6" cy="-545.4" rx="3.5" ry="3.5"/>
<text text-anchor="middle" x="1557.4422" y="-553.1" font-family="Times,serif" font-size="14.00" fill="#000000">collect</text>
</g>
<!-- p22&#45;&gt;p23 -->
<g id="edge25" class="edge">
<title>p22-&gt;p23</title>
<path fill="none" stroke="#000000" d="M1579.6,-616.2115C1579.6,-606.0721 1579.6,-576.8076 1579.6,-559.2337"/>
<polygon fill="#000000" stroke="#000000" points="1583.1001,-559.1277 1579.6,-549.1277 1576.1001,-559.1278 1583.1001,-559.1277"/>
</g>
<!-- p25 -->
<g id="node27" class="node">
<title>p25</title>
<ellipse fill="none" stroke="#000000" cx="1566.6" cy="-471" rx="283.5723" ry="18"/>
<text text-anchor="middle" x="1566.6" y="-466.8" font-family="Times,serif" font-size="14.00" fill="#000000">SCENIC:MULTI_RUNS_TO_LOOM__MOTIF:AGGR_FEATURES</text>
</g>
<!-- p23&#45;&gt;p25 -->
<g id="edge26" class="edge">
<title>p23-&gt;p25</title>
<path fill="none" stroke="#000000" d="M1578.973,-541.8115C1577.6333,-534.1444 1574.3828,-515.5415 1571.5496,-499.3271"/>
<polygon fill="#000000" stroke="#000000" points="1574.9414,-498.404 1569.7724,-489.1557 1568.0459,-499.6089 1574.9414,-498.404"/>
</g>
<!-- p33 -->
<g id="node29" class="node">
<title>p33</title>
<ellipse fill="none" stroke="#000000" cx="1871.6" cy="-382.2" rx="325.2479" ry="18"/>
<text text-anchor="middle" x="1871.6" y="-378" font-family="Times,serif" font-size="14.00" fill="#000000">SCENIC:MULTI_RUNS_TO_LOOM__MOTIF:FEATURES_TO_REGULONS</text>
</g>
<!-- p25&#45;&gt;p33 -->
<g id="edge28" class="edge">
<title>p25-&gt;p33</title>
<path fill="none" stroke="#000000" d="M1627.2228,-453.3498C1677.3496,-438.7555 1748.5911,-418.0137 1801.2285,-402.6885"/>
<polygon fill="#000000" stroke="#000000" points="1802.2084,-406.0486 1810.8313,-399.8927 1800.2515,-399.3277 1802.2084,-406.0486"/>
</g>
<!-- p24 -->
<g id="node28" class="node">
<title>p24</title>
<ellipse fill="#000000" stroke="#000000" cx="1540.6" cy="-545.4" rx="3.6" ry="3.6"/>
</g>
<!-- p24&#45;&gt;p25 -->
<g id="edge27" class="edge">
<title>p24-&gt;p25</title>
<path fill="none" stroke="#000000" d="M1540.4363,-541.6854C1540.2446,-534.6943 1540.376,-519.1886 1544.4948,-507 1545.4956,-504.0383 1546.776,-501.0649 1548.2151,-498.1657"/>
<polygon fill="#000000" stroke="#000000" points="1551.3687,-499.6976 1553.2047,-489.2631 1545.2623,-496.2752 1551.3687,-499.6976"/>
<text text-anchor="middle" x="1555.6526" y="-511.2" font-family="Times,serif" font-size="14.00" fill="#000000">type</text>
</g>
<!-- p36 -->
<g id="node35" class="node">
<title>p36</title>
<ellipse fill="none" stroke="#000000" cx="2455.6" cy="-293.4" rx="278.9001" ry="18"/>
<text text-anchor="middle" x="2455.6" y="-289.2" font-family="Times,serif" font-size="14.00" fill="#000000">SCENIC:MULTI_RUNS_TO_LOOM__MOTIF:SAVE_TO_LOOM</text>
</g>
<!-- p33&#45;&gt;p36 -->
<g id="edge37" class="edge">
<title>p33-&gt;p36</title>
<path fill="none" stroke="#000000" d="M1983.1651,-365.236C2084.252,-349.8652 2232.7871,-327.2798 2336.2285,-311.551"/>
<polygon fill="#000000" stroke="#000000" points="2337.0485,-314.9666 2346.4087,-310.0031 2335.9962,-308.0462 2337.0485,-314.9666"/>
</g>
<!-- p28&#45;&gt;p33 -->
<g id="edge35" class="edge">
<title>p28-&gt;p33</title>
<path fill="none" stroke="#000000" d="M2118.3809,-453.3498C2067.761,-438.7555 1995.8188,-418.0137 1942.6637,-402.6885"/>
<polygon fill="#000000" stroke="#000000" points="1943.5447,-399.3 1932.9664,-399.8927 1941.6054,-406.026 1943.5447,-399.3"/>
<text text-anchor="middle" x="2140.8728" y="-422.4" font-family="Times,serif" font-size="14.00" fill="#000000">multiRunsAggrRegulonsFolder</text>
</g>
<!-- p31 -->
<g id="node32" class="node">
<title>p31</title>
<ellipse fill="none" stroke="#000000" cx="2455.6" cy="-382.2" rx="240.7337" ry="18"/>
<text text-anchor="middle" x="2455.6" y="-378" font-family="Times,serif" font-size="14.00" fill="#000000">SCENIC:MULTI_RUNS_TO_LOOM__MOTIF:AUCELL</text>
</g>
<!-- p28&#45;&gt;p31 -->
<g id="edge31" class="edge">
<title>p28-&gt;p31</title>
<path fill="none" stroke="#000000" d="M2234.7894,-453.2434C2279.9715,-438.7066 2343.9471,-418.1231 2391.4135,-402.8513"/>
<polygon fill="#000000" stroke="#000000" points="2392.5298,-406.1689 2400.9773,-399.7743 2390.3858,-399.5053 2392.5298,-406.1689"/>
</g>
<!-- p27 -->
<g id="node31" class="node">
<title>p27</title>
<ellipse fill="#000000" stroke="#000000" cx="2179.6" cy="-545.4" rx="3.6" ry="3.6"/>
</g>
<!-- p27&#45;&gt;p28 -->
<g id="edge30" class="edge">
<title>p27-&gt;p28</title>
<path fill="none" stroke="#000000" d="M2179.6,-541.3999C2179.6,-533.4769 2179.6,-515.173 2179.6,-499.2153"/>
<polygon fill="#000000" stroke="#000000" points="2183.1001,-499.2003 2179.6,-489.2003 2176.1001,-499.2003 2183.1001,-499.2003"/>
<text text-anchor="middle" x="2191.6526" y="-511.2" font-family="Times,serif" font-size="14.00" fill="#000000">type</text>
</g>
<!-- p31&#45;&gt;p36 -->
<g id="edge34" class="edge">
<title>p31-&gt;p36</title>
<path fill="none" stroke="#000000" d="M2455.6,-363.8006C2455.6,-351.6949 2455.6,-335.6076 2455.6,-321.8674"/>
<polygon fill="#000000" stroke="#000000" points="2459.1001,-321.472 2455.6,-311.472 2452.1001,-321.4721 2459.1001,-321.472"/>
</g>
<!-- p29 -->
<g id="node33" class="node">
<title>p29</title>
<ellipse fill="#000000" stroke="#000000" cx="2487.6" cy="-471" rx="3.6" ry="3.6"/>
</g>
<!-- p29&#45;&gt;p31 -->
<g id="edge32" class="edge">
<title>p29-&gt;p31</title>
<path fill="none" stroke="#000000" d="M2486.0395,-467.6706C2483.1174,-461.3717 2476.7066,-447.2434 2472.175,-435 2469.2204,-427.0174 2466.3257,-418.2363 2463.8033,-410.1655"/>
<polygon fill="#000000" stroke="#000000" points="2467.1,-408.9768 2460.8309,-400.4358 2460.4054,-411.022 2467.1,-408.9768"/>
<text text-anchor="middle" x="2495.3125" y="-422.4" font-family="Times,serif" font-size="14.00" fill="#000000">exprMat</text>
</g>
<!-- p30 -->
<g id="node34" class="node">
<title>p30</title>
<ellipse fill="#000000" stroke="#000000" cx="2541.6" cy="-471" rx="3.6" ry="3.6"/>
</g>
<!-- p30&#45;&gt;p31 -->
<g id="edge33" class="edge">
<title>p30-&gt;p31</title>
<path fill="none" stroke="#000000" d="M2540.9115,-467.2237C2539.0376,-457.8799 2533.0582,-433.3419 2519.6,-418.2 2515.4316,-413.5102 2510.5004,-409.2929 2505.2536,-405.54"/>
<polygon fill="#000000" stroke="#000000" points="2507.099,-402.5648 2496.8135,-400.0234 2503.2692,-408.4243 2507.099,-402.5648"/>
<text text-anchor="middle" x="2541.6526" y="-422.4" font-family="Times,serif" font-size="14.00" fill="#000000">type</text>
</g>
<!-- p52 -->
<g id="node39" class="node">
<title>p52</title>
<ellipse fill="none" stroke="#000000" cx="1407.6" cy="-220.4" rx="192.7787" ry="18"/>
<text text-anchor="middle" x="1407.6" y="-216.2" font-family="Times,serif" font-size="14.00" fill="#000000">SCENIC:MERGE_MOTIF_TRACK_LOOMS</text>
</g>
<!-- p36&#45;&gt;p52 -->
<g id="edge40" class="edge">
<title>p36-&gt;p52</title>
<path fill="none" stroke="#000000" d="M2265.8151,-280.1803C2067.7762,-266.3856 1760.4278,-244.9767 1572.2864,-231.8715"/>
<polygon fill="#000000" stroke="#000000" points="1572.5222,-228.3795 1562.3032,-231.1761 1572.0357,-235.3626 1572.5222,-228.3795"/>
</g>
<!-- p32 -->
<g id="node36" class="node">
<title>p32</title>
<ellipse fill="#000000" stroke="#000000" cx="1871.6" cy="-471" rx="3.6" ry="3.6"/>
</g>
<!-- p32&#45;&gt;p33 -->
<g id="edge36" class="edge">
<title>p32-&gt;p33</title>
<path fill="none" stroke="#000000" d="M1871.6,-467.1844C1871.6,-457.5163 1871.6,-431.35 1871.6,-410.5826"/>
<polygon fill="#000000" stroke="#000000" points="1875.1001,-410.3306 1871.6,-400.3306 1868.1001,-410.3307 1875.1001,-410.3306"/>
<text text-anchor="middle" x="1883.6526" y="-422.4" font-family="Times,serif" font-size="14.00" fill="#000000">type</text>
</g>
<!-- p34 -->
<g id="node37" class="node">
<title>p34</title>
<ellipse fill="#000000" stroke="#000000" cx="2717.6" cy="-382.2" rx="3.6" ry="3.6"/>
</g>
<!-- p34&#45;&gt;p36 -->
<g id="edge38" class="edge">
<title>p34-&gt;p36</title>
<path fill="none" stroke="#000000" d="M2716.1291,-378.5981C2714.2747,-374.5055 2710.7007,-367.9142 2705.6,-364.2 2670.743,-338.8182 2627.0619,-322.52 2586.006,-312.0608"/>
<polygon fill="#000000" stroke="#000000" points="2586.7339,-308.6357 2576.1883,-309.6562 2585.0686,-315.4348 2586.7339,-308.6357"/>
<text text-anchor="middle" x="2699.3125" y="-333.6" font-family="Times,serif" font-size="14.00" fill="#000000">exprMat</text>
</g>
<!-- p35 -->
<g id="node38" class="node">
<title>p35</title>
<ellipse fill="#000000" stroke="#000000" cx="2764.6" cy="-382.2" rx="3.6" ry="3.6"/>
</g>
<!-- p35&#45;&gt;p36 -->
<g id="edge39" class="edge">
<title>p35-&gt;p36</title>
<path fill="none" stroke="#000000" d="M2763.2188,-378.6001C2759.2438,-368.7818 2746.7544,-341.468 2726.6,-329.4 2711.5437,-320.3846 2682.5724,-313.5737 2648.9817,-308.446"/>
<polygon fill="#000000" stroke="#000000" points="2649.3088,-304.9567 2638.9082,-306.9762 2648.2981,-311.8834 2649.3088,-304.9567"/>
<text text-anchor="middle" x="2756.6526" y="-333.6" font-family="Times,serif" font-size="14.00" fill="#000000">type</text>
</g>
<!-- p53 -->
<g id="node54" class="node">
<title>p53</title>
<ellipse fill="none" stroke="#000000" cx="1407.6" cy="-147.4" rx="98.4294" ry="18"/>
<text text-anchor="middle" x="1407.6" y="-143.2" font-family="Times,serif" font-size="14.00" fill="#000000">SCENIC:VISUALIZE</text>
</g>
<!-- p52&#45;&gt;p53 -->
<g id="edge58" class="edge">
<title>p52-&gt;p53</title>
<path fill="none" stroke="#000000" d="M1407.6,-202.3551C1407.6,-194.2828 1407.6,-184.5764 1407.6,-175.5817"/>
<polygon fill="#000000" stroke="#000000" points="1411.1001,-175.4903 1407.6,-165.4904 1404.1001,-175.4904 1411.1001,-175.4903"/>
</g>
<!-- p38 -->
<g id="node41" class="node">
<title>p38</title>
<ellipse fill="none" stroke="#000000" cx="946.6" cy="-545.4" rx="3.5" ry="3.5"/>
<text text-anchor="middle" x="924.4422" y="-553.1" font-family="Times,serif" font-size="14.00" fill="#000000">collect</text>
</g>
<!-- p37&#45;&gt;p38 -->
<g id="edge42" class="edge">
<title>p37-&gt;p38</title>
<path fill="none" stroke="#000000" d="M946.6,-616.2115C946.6,-606.0721 946.6,-576.8076 946.6,-559.2337"/>
<polygon fill="#000000" stroke="#000000" points="950.1001,-559.1277 946.6,-549.1277 943.1001,-559.1278 950.1001,-559.1277"/>
</g>
<!-- p40 -->
<g id="node42" class="node">
<title>p40</title>
<ellipse fill="none" stroke="#000000" cx="953.6" cy="-471" rx="286.4418" ry="18"/>
<text text-anchor="middle" x="953.6" y="-466.8" font-family="Times,serif" font-size="14.00" fill="#000000">SCENIC:MULTI_RUNS_TO_LOOM__TRACK:AGGR_FEATURES</text>
</g>
<!-- p38&#45;&gt;p40 -->
<g id="edge43" class="edge">
<title>p38-&gt;p40</title>
<path fill="none" stroke="#000000" d="M946.9376,-541.8115C947.659,-534.1444 949.4093,-515.5415 950.9348,-499.3271"/>
<polygon fill="#000000" stroke="#000000" points="954.4396,-499.4396 951.8918,-489.1557 947.4704,-498.7838 954.4396,-499.4396"/>
</g>
<!-- p48 -->
<g id="node44" class="node">
<title>p48</title>
<ellipse fill="none" stroke="#000000" cx="950.6" cy="-382.2" rx="328.1171" ry="18"/>
<text text-anchor="middle" x="950.6" y="-378" font-family="Times,serif" font-size="14.00" fill="#000000">SCENIC:MULTI_RUNS_TO_LOOM__TRACK:FEATURES_TO_REGULONS</text>
</g>
<!-- p40&#45;&gt;p48 -->
<g id="edge45" class="edge">
<title>p40-&gt;p48</title>
<path fill="none" stroke="#000000" d="M952.9784,-452.6006C952.5694,-440.4949 952.0259,-424.4076 951.5617,-410.6674"/>
<polygon fill="#000000" stroke="#000000" points="955.0463,-410.1481 951.2105,-400.272 948.0503,-410.3845 955.0463,-410.1481"/>
</g>
<!-- p39 -->
<g id="node43" class="node">
<title>p39</title>
<ellipse fill="#000000" stroke="#000000" cx="979.6" cy="-545.4" rx="3.6" ry="3.6"/>
</g>
<!-- p39&#45;&gt;p40 -->
<g id="edge44" class="edge">
<title>p39-&gt;p40</title>
<path fill="none" stroke="#000000" d="M978.346,-541.8115C975.6411,-534.0714 969.0414,-515.1862 963.3376,-498.8645"/>
<polygon fill="#000000" stroke="#000000" points="966.5478,-497.4412 959.9447,-489.1557 959.9397,-499.7505 966.5478,-497.4412"/>
<text text-anchor="middle" x="984.6526" y="-511.2" font-family="Times,serif" font-size="14.00" fill="#000000">type</text>
</g>
<!-- p51 -->
<g id="node50" class="node">
<title>p51</title>
<ellipse fill="none" stroke="#000000" cx="360.6" cy="-293.4" rx="281.2693" ry="18"/>
<text text-anchor="middle" x="360.6" y="-289.2" font-family="Times,serif" font-size="14.00" fill="#000000">SCENIC:MULTI_RUNS_TO_LOOM__TRACK:SAVE_TO_LOOM</text>
</g>
<!-- p48&#45;&gt;p51 -->
<g id="edge54" class="edge">
<title>p48-&gt;p51</title>
<path fill="none" stroke="#000000" d="M838.2368,-365.2884C736.0483,-349.9081 585.6555,-327.2728 481.0253,-311.525"/>
<polygon fill="#000000" stroke="#000000" points="481.4554,-308.0504 471.0458,-310.023 480.4135,-314.9725 481.4554,-308.0504"/>
</g>
<!-- p43&#45;&gt;p48 -->
<g id="edge52" class="edge">
<title>p43-&gt;p48</title>
<path fill="none" stroke="#000000" d="M471.2282,-454.3495C572.8069,-439.0611 723.0657,-416.4458 828.2036,-400.6217"/>
<polygon fill="#000000" stroke="#000000" points="828.8665,-404.0614 838.2342,-399.112 827.8247,-397.1394 828.8665,-404.0614"/>
<text text-anchor="middle" x="796.8728" y="-422.4" font-family="Times,serif" font-size="14.00" fill="#000000">multiRunsAggrRegulonsFolder</text>
</g>
<!-- p46 -->
<g id="node47" class="node">
<title>p46</title>
<ellipse fill="none" stroke="#000000" cx="360.6" cy="-382.2" rx="243.1031" ry="18"/>
<text text-anchor="middle" x="360.6" y="-378" font-family="Times,serif" font-size="14.00" fill="#000000">SCENIC:MULTI_RUNS_TO_LOOM__TRACK:AUCELL</text>
</g>
<!-- p43&#45;&gt;p46 -->
<g id="edge48" class="edge">
<title>p43-&gt;p46</title>
<path fill="none" stroke="#000000" d="M360.6,-452.6006C360.6,-440.4949 360.6,-424.4076 360.6,-410.6674"/>
<polygon fill="#000000" stroke="#000000" points="364.1001,-410.272 360.6,-400.272 357.1001,-410.2721 364.1001,-410.272"/>
</g>
<!-- p42 -->
<g id="node46" class="node">
<title>p42</title>
<ellipse fill="#000000" stroke="#000000" cx="360.6" cy="-545.4" rx="3.6" ry="3.6"/>
</g>
<!-- p42&#45;&gt;p43 -->
<g id="edge47" class="edge">
<title>p42-&gt;p43</title>
<path fill="none" stroke="#000000" d="M360.6,-541.3999C360.6,-533.4769 360.6,-515.173 360.6,-499.2153"/>
<polygon fill="#000000" stroke="#000000" points="364.1001,-499.2003 360.6,-489.2003 357.1001,-499.2003 364.1001,-499.2003"/>
<text text-anchor="middle" x="372.6526" y="-511.2" font-family="Times,serif" font-size="14.00" fill="#000000">type</text>
</g>
<!-- p46&#45;&gt;p51 -->
<g id="edge51" class="edge">
<title>p46-&gt;p51</title>
<path fill="none" stroke="#000000" d="M360.6,-363.8006C360.6,-351.6949 360.6,-335.6076 360.6,-321.8674"/>
<polygon fill="#000000" stroke="#000000" points="364.1001,-321.472 360.6,-311.472 357.1001,-321.4721 364.1001,-321.472"/>
</g>
<!-- p44 -->
<g id="node48" class="node">
<title>p44</title>
<ellipse fill="#000000" stroke="#000000" cx="3.6" cy="-471" rx="3.6" ry="3.6"/>
</g>
<!-- p44&#45;&gt;p46 -->
<g id="edge49" class="edge">
<title>p44-&gt;p46</title>
<path fill="none" stroke="#000000" d="M5.4261,-467.6498C10.887,-458.0019 28.1511,-430.0876 51.175,-418.2 71.9244,-407.4868 113.8856,-399.9048 160.3865,-394.5607"/>
<polygon fill="#000000" stroke="#000000" points="160.8186,-398.0343 170.3721,-393.4539 160.0474,-391.0769 160.8186,-398.0343"/>
<text text-anchor="middle" x="75.3125" y="-422.4" font-family="Times,serif" font-size="14.00" fill="#000000">exprMat</text>
</g>
<!-- p45 -->
<g id="node49" class="node">
<title>p45</title>
<ellipse fill="#000000" stroke="#000000" cx="50.6" cy="-471" rx="3.6" ry="3.6"/>
</g>
<!-- p45&#45;&gt;p46 -->
<g id="edge50" class="edge">
<title>p45-&gt;p46</title>
<path fill="none" stroke="#000000" d="M52.0432,-467.3592C53.8716,-463.23 57.4211,-456.6044 62.6,-453 92.5612,-432.1474 176.0958,-413.298 247.1237,-400.3008"/>
<polygon fill="#000000" stroke="#000000" points="247.8379,-403.7285 257.0562,-398.506 246.5932,-396.84 247.8379,-403.7285"/>
<text text-anchor="middle" x="171.6526" y="-422.4" font-family="Times,serif" font-size="14.00" fill="#000000">type</text>
</g>
<!-- p51&#45;&gt;p52 -->
<g id="edge57" class="edge">
<title>p51-&gt;p52</title>
<path fill="none" stroke="#000000" d="M551.1146,-280.1167C748.8564,-266.3296 1054.968,-244.9866 1242.6763,-231.899"/>
<polygon fill="#000000" stroke="#000000" points="1243.1832,-235.3722 1252.9155,-231.1851 1242.6963,-228.3892 1243.1832,-235.3722"/>
</g>
<!-- p47 -->
<g id="node51" class="node">
<title>p47</title>
<ellipse fill="#000000" stroke="#000000" cx="1261.6" cy="-471" rx="3.6" ry="3.6"/>
</g>
<!-- p47&#45;&gt;p48 -->
<g id="edge53" class="edge">
<title>p47-&gt;p48</title>
<path fill="none" stroke="#000000" d="M1260.0999,-467.648C1258.0856,-463.5437 1254.112,-456.6849 1248.6,-453 1218.5699,-432.9243 1136.4837,-414.2165 1066.0517,-401.079"/>
<polygon fill="#000000" stroke="#000000" points="1066.6663,-397.6334 1056.1974,-399.2627 1065.3973,-404.5175 1066.6663,-397.6334"/>
<text text-anchor="middle" x="1214.6526" y="-422.4" font-family="Times,serif" font-size="14.00" fill="#000000">type</text>
</g>
<!-- p49 -->
<g id="node52" class="node">
<title>p49</title>
<ellipse fill="#000000" stroke="#000000" cx="48.6" cy="-382.2" rx="3.6" ry="3.6"/>
</g>
<!-- p49&#45;&gt;p51 -->
<g id="edge55" class="edge">
<title>p49-&gt;p51</title>
<path fill="none" stroke="#000000" d="M50.0832,-378.5967C54.3374,-368.7695 67.61,-341.4354 88.175,-329.4 103.4461,-320.4628 132.7399,-313.6823 166.6479,-308.5591"/>
<polygon fill="#000000" stroke="#000000" points="167.4186,-311.9842 176.8152,-307.0898 166.4174,-305.0561 167.4186,-311.9842"/>
<text text-anchor="middle" x="112.3125" y="-333.6" font-family="Times,serif" font-size="14.00" fill="#000000">exprMat</text>
</g>
<!-- p50 -->
<g id="node53" class="node">
<title>p50</title>
<ellipse fill="#000000" stroke="#000000" cx="95.6" cy="-382.2" rx="3.6" ry="3.6"/>
</g>
<!-- p50&#45;&gt;p51 -->
<g id="edge56" class="edge">
<title>p50-&gt;p51</title>
<path fill="none" stroke="#000000" d="M97.1246,-378.884C99.1642,-374.8167 103.164,-367.9961 108.6,-364.2 144.8942,-338.8548 190.055,-322.5469 232.0796,-312.0683"/>
<polygon fill="#000000" stroke="#000000" points="232.9315,-315.4633 241.8373,-309.7242 231.2964,-308.6569 232.9315,-315.4633"/>
<text text-anchor="middle" x="183.6526" y="-333.6" font-family="Times,serif" font-size="14.00" fill="#000000">type</text>
</g>
<!-- p54 -->
<g id="node55" class="node">
<title>p54</title>
<ellipse fill="none" stroke="#000000" cx="1407.6" cy="-74.4" rx="121.5857" ry="18"/>
<text text-anchor="middle" x="1407.6" y="-70.2" font-family="Times,serif" font-size="14.00" fill="#000000">SCENIC:PUBLISH_LOOM</text>
</g>
<!-- p53&#45;&gt;p54 -->
<g id="edge59" class="edge">
<title>p53-&gt;p54</title>
<path fill="none" stroke="#000000" d="M1407.6,-129.3551C1407.6,-121.2828 1407.6,-111.5764 1407.6,-102.5817"/>
<polygon fill="#000000" stroke="#000000" points="1411.1001,-102.4903 1407.6,-92.4904 1404.1001,-102.4904 1411.1001,-102.4903"/>
</g>
<!-- p55 -->
<g id="node56" class="node">
<title>p55</title>
<ellipse fill="#000000" stroke="#000000" cx="1407.6" cy="-1.8" rx="1.8" ry="1.8"/>
</g>
<!-- p54&#45;&gt;p55 -->
<g id="edge60" class="edge">
<title>p54-&gt;p55</title>
<path fill="none" stroke="#000000" d="M1407.6,-56.08C1407.6,-42.7955 1407.6,-25.213 1407.6,-13.7103"/>
<polygon fill="#000000" stroke="#000000" points="1411.1001,-13.6218 1407.6,-3.6218 1404.1001,-13.6219 1411.1001,-13.6218"/>
<text text-anchor="middle" x="1409.9303" y="-25.8" font-family="Times,serif" font-size="14.00" fill="#000000">f</text>
</g>
</g>
</svg>